<?xml version="1.0" standalone="no"?>
<!DOCTYPE svg PUBLIC "-//W3C//DTD SVG 1.1//EN" "http://www.w3.org/Graphics/SVG/1.1/DTD/svg11.dtd" >
<svg xmlns="http://www.w3.org/2000/svg">
<metadata>
Created by FontPrep 20130207 at Sat Mar  5 10:58:57 2016
 By Matthias Rohrbach
Generated in 2013 by FontLab Studio. Copyright info pending.
</metadata>
<defs>
<font id="a9baca9c3ea45fe3af767a2cc64fb7f8" horiz-adv-x='1024' >
  <font-face 
    font-family="CircularPro-Black"
    font-weight="900"
    font-stretch="normal"
    units-per-em="2048"
    panose-1="2 11 10 4 2 1 1 1 1 2"
    ascent="1657"
    descent="-391"
    x-height="1018"
    cap-height="1452"
    bbox="-123 -549 3232 2148"
    underline-thickness="163"
    underline-position="-236"
    unicode-range="U+000D-FEFF"
  />
<missing-glyph horiz-adv-x="1218" 
d="M391 254h436v944h-436v-944zM137 0v1452h944v-1452h-944z" />
    <glyph glyph-name="f_f" unicode="ff" horiz-adv-x="1413" 
d="M1386 756h-221v-756h-311v756h-358v-756h-312v756h-161v262h161v88q0 178 104 286t285 107q102 0 148 -22v-254q-41 10 -92 10t-92 -29t-41 -98v-88h358v88q0 178 102 286t285 107q109 0 150 -20v-256q-41 10 -93 10t-93 -29q-40 -29 -40 -98v-88h221v-262z" />
    <glyph glyph-name="f_f_i" unicode="ffi" horiz-adv-x="1992" 
d="M1520 1329q0 76 53 129t129 53t129 -53t53 -129t-53 -129t-129 -53t-129 53t-53 129zM573 1499q98 0 148 -24v-252q-41 10 -92 10q-133 0 -133 -127v-88h358v88q0 178 102 286t285 107q104 0 150 -22v-254q-41 10 -93 10t-93 -29q-40 -29 -40 -98v-88h695v-1018h-314v756
h-381v-756h-311v756h-358v-756h-312v756h-161v262h161v88q0 178 104 286t285 107z" />
    <glyph glyph-name="f_f_l" unicode="ffl" horiz-adv-x="1996" 
d="M629 1233q-51 0 -92 -29t-41 -98v-88h358v88q0 178 102 286t285 107q104 0 150 -22v-254q-41 10 -93 10t-93 -29q-40 -29 -40 -98v-88h383v465h312v-1483h-312v756h-383v-756h-311v756h-358v-756h-312v756h-161v262h161v88q0 178 104 286t285 107q102 0 148 -22v-254
q-41 10 -92 10z" />
    <glyph glyph-name="f_i" unicode="fi" horiz-adv-x="1316" 
d="M844 1329q0 76 53 129t129 53t129 -53t53 -129t-54 -129t-129 -53t-128 53t-53 129zM870 756h-374v-756h-312v756h-161v262h161v88q0 178 104 286t285 107q98 0 144 -22v-254q-37 10 -88 10t-92 -29t-41 -98v-88h686v-1018h-312v756z" />
    <glyph glyph-name="f_l" unicode="fl" horiz-adv-x="1318" 
d="M629 1233q-51 0 -92 -29t-41 -98v-88h372v465h314v-1483h-314v756h-372v-756h-312v756h-161v262h161v88q0 178 104 286t285 107q98 0 144 -22v-254q-37 10 -88 10z" />
    <glyph glyph-name=".notdef" horiz-adv-x="1218" 
d="M391 254h436v944h-436v-944zM137 0v1452h944v-1452h-944z" />
    <glyph glyph-name=".null" horiz-adv-x="0" 
 />
    <glyph glyph-name=".null" horiz-adv-x="0" 
 />
    <glyph glyph-name="uni000D" unicode="&#xd;" horiz-adv-x="503" 
 />
    <glyph glyph-name="space" unicode=" " horiz-adv-x="503" 
 />
    <glyph glyph-name="exclam" unicode="!" horiz-adv-x="706" 
d="M176 157q0 73 51 125t125 52t126 -52t52 -125t-52 -125t-126 -52t-125 52t-51 125zM541 1452l-72 -997h-229l-72 997h373z" />
    <glyph glyph-name="quotedbl" unicode="&#x22;" horiz-adv-x="851" 
d="M622 1352q70 0 118 -49t48 -121q0 -33 -8 -62l-102 -370h-111l-102 370l-10 62q0 72 48 121t119 49zM230 1352q70 0 119 -49q48 -49 48 -121q0 -33 -8 -62l-102 -370h-111l-102 370l-11 62q1 72 49 121t118 49z" />
    <glyph glyph-name="numbersign" unicode="#" horiz-adv-x="1523" 
d="M659 803l-57 -266h258l58 266h-259zM176 803v215h295l68 311h233l-67 -311h258l67 311h236l-68 -311h252v-215h-297l-57 -266h250v-218h-297l-68 -319h-236l68 319h-258l-68 -319h-233l68 319h-246v218h293l57 266h-250z" />
    <glyph glyph-name="dollar" unicode="$" horiz-adv-x="1220" 
d="M754 -240h-236v220q-202 32 -312 158t-122 270l283 63q7 -96 75 -161t193 -64q78 0 127 35t49 94q0 88 -127 117l-182 43q-174 41 -273 143q-98 102 -98 257t110 269t277 144v221h236v-228q156 -35 244 -132t112 -218l-285 -76q-33 170 -209 170q-82 1 -127 -39t-45 -94
q0 -88 121 -116l178 -39q197 -43 290 -151t93 -255t-100 -262t-272 -145v-224z" />
    <glyph glyph-name="percent" unicode="%" horiz-adv-x="1785" 
d="M561 0h-262l930 1329h264zM1016 312q0 142 102 242t244 99q142 0 244 -99q102 -98 102 -242t-101 -241t-245 -97t-246 98q-100 98 -100 240zM1485 312q0 58 -35 96t-88 36q-53 0 -89 -37t-36 -96t35 -96t89 -37t89 38t35 96zM80 1013q0 142 102 241q102 100 244 100
t244 -100t102 -242t-101 -240t-245 -98t-246 98q-100 99 -100 241zM301 1012q0 -58 35 -96t89 -38t89 38t35 96t-35 96q-35 37 -88 37t-89 -37t-36 -96z" />
    <glyph glyph-name="ampersand" unicode="&#x26;" horiz-adv-x="1488" 
d="M500 1109q0 -62 73 -140l35 -37l58 41q84 61 84 139q0 51 -37 87t-89 36t-88 -32t-36 -94zM592 238q100 0 192 96l-225 241l-10 -8q-113 -82 -113 -180q0 -59 44 -104t112 -45zM589 -29q-210 0 -332 120t-122 280q1 125 61 214t187 181l-21 22q-152 166 -151 312
q0 176 124 280t296 104t290 -104t117 -268q0 -186 -204 -336l-48 -35l195 -204l387 395v-381l-205 -207l326 -344h-393l-131 141q-166 -170 -376 -170z" />
    <glyph glyph-name="quotesingle" unicode="'" horiz-adv-x="460" 
d="M230 1352q70 0 119 -49q48 -49 48 -121q0 -33 -8 -62l-102 -370h-111l-102 370l-11 62q1 72 49 121t118 49z" />
    <glyph glyph-name="parenleft" unicode="(" horiz-adv-x="702" 
d="M76 666q0 608 450 1036l176 -166q-178 -186 -272 -396t-94 -476t94 -476t272 -397l-176 -166q-450 433 -450 1041z" />
    <glyph glyph-name="parenright" unicode=")" horiz-adv-x="702" 
d="M627 666q0 -606 -449 -1041l-178 166q180 188 274 397q94 210 94 476t-94 475t-274 397l178 166q449 -430 449 -1036z" />
    <glyph glyph-name="asterisk" unicode="*" horiz-adv-x="948" 
d="M596 1452v-252l233 76l78 -225l-235 -78l143 -199l-192 -141l-150 201l-147 -201l-193 141l143 199l-235 78l76 225l233 -76v252h246z" />
    <glyph glyph-name="plus" unicode="+" horiz-adv-x="1226" 
d="M94 737h389v400h262v-400h388v-254h-388v-399h-262v399h-389v254z" />
    <glyph glyph-name="comma" unicode="," horiz-adv-x="657" 
d="M117 182q0 80 58 134q57 54 153 54t155 -74t59 -184t-36 -201q-37 -91 -97 -145q-117 -105 -255 -122v145q74 15 138 75t66 146q-18 -14 -57 -14q-82 0 -133 53t-51 133z" />
    <glyph glyph-name="hyphen" unicode="-" horiz-adv-x="798" 
d="M707 477h-615v281h615v-281z" />
    <glyph glyph-name="period" unicode="." horiz-adv-x="669" 
d="M125 193q0 86 61 147q62 61 148 61t148 -61t62 -146q0 -84 -62 -148t-148 -64t-148 62q-61 63 -61 149z" />
    <glyph glyph-name="slash" unicode="/" horiz-adv-x="1013" 
d="M1014 1481l-738 -1510h-276l735 1510h279z" />
    <glyph glyph-name="zero" unicode="0" horiz-adv-x="1286" 
d="M76 664q0 293 117 469q149 227 451 227t452 -227q116 -176 116 -469t-116 -469q-154 -227 -452 -227t-451 227q-117 176 -117 469zM644 1075q-245 1 -245 -411t245 -412t245 412t-245 411z" />
    <glyph glyph-name="one" unicode="1" horiz-adv-x="854" 
d="M709 0h-322v864h-317v215q145 2 244 74t118 176h277v-1329z" />
    <glyph glyph-name="two" unicode="2" horiz-adv-x="1128" 
d="M72 909q0 187 134 319t360 132t362 -126t135 -310q0 -258 -262 -414l-252 -150q-68 -43 -90 -90h614v-270h-1010q0 197 71 341t243 245l217 127q80 47 113 93t33 113t-47 111q-46 44 -134 45q-88 0 -136 -55t-48 -141q0 -43 12 -82l-303 2q-12 33 -12 110z" />
    <glyph glyph-name="three" unicode="3" horiz-adv-x="1120" 
d="M61 1059v270h959v-250l-328 -254q158 -10 266 -124q108 -113 107 -289q0 -176 -142 -308q-143 -132 -373 -133q-230 0 -374 124q-143 124 -160 302l312 58q4 -89 62 -149t150 -60t145 53q54 53 54 135t-57 128t-127 46t-127 -30l-139 213l327 268h-555z" />
    <glyph glyph-name="four" unicode="4" horiz-adv-x="1245" 
d="M678 547v438l-334 -438h334zM63 276v328l553 725h385v-782h213v-271h-213v-276h-323v276h-615z" />
    <glyph glyph-name="five" unicode="5" horiz-adv-x="1140" 
d="M562 242q89 0 147 52q57 52 57 143t-60 143t-162 51q-102 0 -171 -86l-45 16q-236 70 -244 78l149 690h773v-270h-549l-54 -250q82 72 226 72q209 0 334 -117t125 -320t-141 -340t-367 -137t-370 124t-157 288l299 61q4 -82 62 -140t148 -58z" />
    <glyph glyph-name="six" unicode="6" horiz-adv-x="1196" 
d="M416 434q0 -86 59 -140t147 -54t149 53q60 53 60 139t-60 140t-148 54q-87 0 -147 -52q-60 -54 -60 -140zM821 1085q-169 0 -285 -86t-145 -251q37 61 121 100t195 39q201 0 323 -124t121 -324q0 -200 -146 -335t-383 -135t-392 165t-154 446q0 352 209 566t555 214
q180 0 276 -55l-86 -263q-117 43 -209 43z" />
    <glyph glyph-name="seven" unicode="7" horiz-adv-x="1052" 
d="M1042 1329v-258q-45 -39 -86 -80q-40 -41 -118 -142t-136 -212t-111 -282q-52 -171 -69 -355h-336q24 285 120 514t197 361t136 161l23 23h-652v270h1032z" />
    <glyph glyph-name="eight" unicode="8" horiz-adv-x="1173" 
d="M586 -31q-227 0 -370 109q-142 109 -142 282q0 104 61 194t164 130q-96 35 -148 120t-53 171q0 169 136 277t352 108t352 -109q137 -109 137 -276q0 -86 -53 -171t-150 -120q104 -41 166 -130t62 -194q0 -174 -144 -282t-370 -109zM587 567q-95 0 -147 -51t-51 -118
q-1 -67 53 -117t145 -50q91 1 144 51t53 116t-51 118q-51 51 -146 51zM756 946q0 60 -46 104t-124 44t-124 -43t-46 -103t44 -106q44 -45 126 -45t126 44t44 105z" />
    <glyph glyph-name="nine" unicode="9" horiz-adv-x="1198" 
d="M768 901q0 82 -56 135q-56 54 -142 54t-143 -54q-56 -54 -56 -135q0 -82 56 -135t141 -53t143 53q57 53 57 135zM425 246q149 0 261 81t125 246q-41 -59 -120 -94t-169 -35q-194 0 -326 125t-132 326t144 333t379 132t385 -166t150 -473q0 -356 -184 -554t-524 -198
q-191 0 -310 70l70 260q102 -53 251 -53z" />
    <glyph glyph-name="colon" unicode=":" horiz-adv-x="659" 
d="M125 832q0 84 60 144q61 60 145 60t144 -60t60 -144t-60 -144q-62 -61 -145 -61t-144 61q-60 61 -60 144zM125 187q0 83 60 143q61 60 145 61q84 0 144 -60q60 -59 60 -143t-60 -145q-62 -61 -145 -61t-144 61q-60 61 -60 144z" />
    <glyph glyph-name="semicolon" unicode=";" horiz-adv-x="661" 
d="M125 832q0 84 60 144q61 60 145 60t144 -60t60 -144t-60 -144q-62 -61 -145 -61t-144 61q-60 61 -60 144zM131 169q0 77 56 128q57 51 147 51t146 -70t57 -174q0 -204 -116 -318t-255 -128v137q72 13 132 71t62 140q-18 -14 -53 -14q-80 0 -128 50t-48 127z" />
    <glyph glyph-name="less" unicode="&#x3c;" horiz-adv-x="1034" 
d="M72 500v221l899 459v-283l-590 -281l590 -284v-287z" />
    <glyph glyph-name="equal" unicode="=" horiz-adv-x="1243" 
d="M1128 283h-1013v249h1013v-249zM1128 694h-1013v250h1013v-250z" />
    <glyph glyph-name="greater" unicode="&#x3e;" horiz-adv-x="1034" 
d="M963 723v-221l-900 -457v281l590 282l-590 285v287z" />
    <glyph glyph-name="question" unicode="?" horiz-adv-x="1101" 
d="M350 157q0 73 51 125t125 52t126 -52t52 -125t-52 -125t-126 -52t-125 52t-51 125zM641 455h-244q-8 39 -8 90q0 172 156 289l104 77q74 55 74 133t-47 122q-47 46 -134 46q-86 0 -138 -58t-52 -122t6 -88l-286 10q-8 39 -9 86q1 186 131 314t356 129q226 0 358 -119
q130 -119 130 -285q0 -219 -198 -368l-78 -58q-59 -45 -90 -90t-31 -108z" />
    <glyph glyph-name="at" unicode="@" horiz-adv-x="1693" 
d="M861 891q-71 0 -123 -68t-52 -168q0 -170 129 -170q76 0 127 74t53 189q0 143 -134 143zM1186 289q-78 0 -126 35t-63 84q-72 -123 -235 -123q-131 0 -220 99t-89 253q0 197 118 327q119 130 283 130q56 0 110 -29t76 -80l17 82h211l-107 -498q-2 -9 -2 -29q1 -20 17 -37
t41 -18q76 -1 134 91t58 233q0 211 -146 342t-388 131t-408 -167t-166 -427t162 -424t438 -164q203 0 354 107l105 -150q-78 -71 -209 -113t-250 -42q-362 0 -595 214q-232 214 -232 563t235 577t565 228t539 -192q209 -193 209 -481q0 -225 -130 -371t-298 -151h-8z" />
    <glyph glyph-name="A" unicode="A" horiz-adv-x="1503" 
d="M750 1092l-179 -502h353zM1130 0l-104 295h-561l-105 -295h-340l547 1452h375l541 -1452h-353z" />
    <glyph glyph-name="B" unicode="B" horiz-adv-x="1263" 
d="M473 264h203q94 0 147 46t53 123t-52 124q-54 47 -148 47h-203v-340zM473 870h176q86 0 136 42q51 42 51 115t-50 115t-141 42h-172v-314zM158 1452h542q211 0 332 -109t121 -280q0 -109 -60 -195t-153 -116q106 -25 182 -116t76 -224q0 -180 -126 -296t-329 -116h-585
v1452z" />
    <glyph glyph-name="C" unicode="C" horiz-adv-x="1581" 
d="M827 -31q-319 0 -536 210t-217 543t219 547t530 214q156 0 282 -46t204 -122q154 -150 190 -322l-305 -96q-20 88 -96 171q-41 44 -113 72t-162 27q-165 1 -289 -115t-124 -321t122 -321t293 -117q170 0 262 84t121 188l310 -88q-42 -177 -192 -327q-79 -80 -209 -130
t-290 -51z" />
    <glyph glyph-name="D" unicode="D" horiz-adv-x="1486" 
d="M682 0h-524v1452h526q330 0 530 -197t199 -531q1 -334 -199 -528q-200 -196 -532 -196zM481 305h189q178 1 292 107t114 314t-114 314t-292 107h-189v-842z" />
    <glyph glyph-name="E" unicode="E" horiz-adv-x="1193" 
d="M1079 0h-921v1452h919v-305h-596v-277h541v-284h-541v-279h598v-307z" />
    <glyph glyph-name="F" unicode="F" horiz-adv-x="1163" 
d="M483 0h-325v1452h936v-307h-613v-307h539v-295h-537v-543z" />
    <glyph glyph-name="G" unicode="G" horiz-adv-x="1613" 
d="M1499 0h-262l-20 147q-53 -76 -157 -127t-251 -51q-311 0 -523 210t-212 545t220 547t519 212t465 -133t223 -316l-311 -108q-23 92 -112 173t-253 81t-294 -116t-130 -336t125 -342q124 -122 298 -122t264 77t108 161h-436v274h739v-776z" />
    <glyph glyph-name="H" unicode="H" horiz-adv-x="1542" 
d="M1386 0h-325v578h-580v-578h-323v1452h323v-569h580v569h325v-1452z" />
    <glyph glyph-name="I" unicode="I" horiz-adv-x="641" 
d="M485 0h-327v1452h327v-1452z" />
    <glyph glyph-name="J" unicode="J" horiz-adv-x="1163" 
d="M41 449v96l307 53v-133q0 -92 50 -140q50 -49 127 -49t123 52t46 135v989h324v-997q0 -203 -139 -344t-355 -141t-349 132q-134 132 -134 347z" />
    <glyph glyph-name="K" unicode="K" horiz-adv-x="1460" 
d="M481 0h-323v1452h323v-610l531 610h426l-566 -629l568 -823h-404l-391 571l-164 -182v-389z" />
    <glyph glyph-name="L" unicode="L" horiz-adv-x="1159" 
d="M1108 0h-950v1452h323v-1143h627v-309z" />
    <glyph glyph-name="M" unicode="M" horiz-adv-x="1959" 
d="M1802 0h-317v963l-379 -963h-262l-379 950v-950h-307v1452h422l399 -981l379 981h444v-1452z" />
    <glyph glyph-name="N" unicode="N" horiz-adv-x="1574" 
d="M1419 0h-342l-598 954v-954h-321v1452h393l545 -883v883h323v-1452z" />
    <glyph glyph-name="O" unicode="O" horiz-adv-x="1656" 
d="M74 726q0 337 220 547t535 210t535 -211t219 -547q0 -336 -219 -546q-218 -210 -534 -210t-536 210t-220 547zM410 727q0 -213 126 -326t294 -113t292 114q125 112 125 325t-125 327t-293 114q-167 0 -293 -114t-126 -327z" />
    <glyph glyph-name="P" unicode="P" horiz-adv-x="1255" 
d="M705 522h-224v-522h-323v1452h547q221 0 359 -131t138 -336t-138 -334t-359 -129zM483 801h189q92 0 149 50t57 135t-56 135t-150 50h-189v-370z" />
    <glyph glyph-name="Q" unicode="Q" horiz-adv-x="1656" 
d="M410 727q0 -213 126 -326t293 -112q74 0 148 24l-213 234l215 180l213 -233q55 100 55 233q0 213 -125 327t-293 114q-167 0 -293 -114t-126 -327zM74 726q0 337 220 547t535 210t535 -211t219 -547q0 -283 -164 -483l178 -195l-213 -180l-178 196q-170 -94 -377 -94
q-315 0 -535 210t-220 547z" />
    <glyph glyph-name="R" unicode="R" horiz-adv-x="1286" 
d="M481 819h191q98 0 151 48t53 129t-52 128q-54 47 -152 47h-191v-352zM481 541v-541h-323v1452h575q211 0 341 -129t130 -326q0 -147 -76 -255t-210 -154l294 -588h-356l-260 541h-115z" />
    <glyph glyph-name="S" unicode="S" horiz-adv-x="1247" 
d="M640 1196q-102 0 -158 -46t-56 -110q0 -113 143 -139l195 -37q200 -36 310 -156t110 -291t-146 -309t-405 -138q-260 0 -411 142t-169 322l297 72q10 -110 85 -180t216 -70q94 0 150 42q55 42 55 104q0 122 -156 151l-198 37q-184 35 -290 149q-105 115 -106 277
q0 201 154 334t367 133q349 0 484 -254q34 -63 46 -133l-291 -82q-10 68 -67 125t-159 57z" />
    <glyph glyph-name="T" unicode="T" horiz-adv-x="1296" 
d="M1257 1143h-448v-1143h-324v1143h-446v309h1218v-309z" />
    <glyph glyph-name="U" unicode="U" horiz-adv-x="1441" 
d="M721 -33q-250 1 -413 147t-163 410v928h324v-901q0 -129 67 -197q68 -68 186 -68t184 68t67 197v901h323v-928q0 -264 -162 -410t-413 -147z" />
    <glyph glyph-name="V" unicode="V" horiz-adv-x="1437" 
d="M727 430l346 1022h344l-530 -1452h-334l-533 1452h357z" />
    <glyph glyph-name="W" unicode="W" horiz-adv-x="2127" 
d="M1540 520l236 932h331l-395 -1452h-334l-309 963l-311 -963h-340l-395 1452h344l239 -930l301 930h332z" />
    <glyph glyph-name="X" unicode="X" horiz-adv-x="1423" 
d="M1380 1452l-467 -729l471 -723h-393l-286 471l-285 -471h-381l469 727l-469 725h389l287 -471l286 471h379z" />
    <glyph glyph-name="Y" unicode="Y" horiz-adv-x="1378" 
d="M848 0h-324v606l-504 846h379l297 -539l301 539h361l-510 -846v-606z" />
    <glyph glyph-name="Z" unicode="Z" horiz-adv-x="1318" 
d="M1227 0h-1153v311l700 832h-670v309h1115v-299l-717 -844h725v-309z" />
    <glyph glyph-name="bracketleft" unicode="[" horiz-adv-x="677" 
d="M668 -350h-510v2036h510v-234h-252v-1565h252v-237z" />
    <glyph glyph-name="backslash" unicode="\" horiz-adv-x="1017" 
d="M737 -29l-737 1510h283l735 -1510h-281z" />
    <glyph glyph-name="bracketright" unicode="]" horiz-adv-x="677" 
d="M522 -350h-512v237h254v1565h-254v234h512v-2036z" />
    <glyph glyph-name="asciicircum" unicode="^" horiz-adv-x="1095" 
d="M1071 717h-283l-237 444l-240 -444h-286l407 735h230z" />
    <glyph glyph-name="underscore" unicode="_" horiz-adv-x="1050" 
d="M1049 -254h-1045v254h1045v-254z" />
    <glyph glyph-name="grave" unicode="`" horiz-adv-x="630" 
d="M334 1139l-291 309h354l191 -309h-254z" />
    <glyph glyph-name="a" unicode="a" horiz-adv-x="1118" 
d="M383 301q0 -43 30 -73q31 -30 101 -31q70 0 123 47t53 155v45l-192 -30q-115 -18 -115 -113zM76 282q0 128 84 206t217 100l239 37q74 10 74 69q0 47 -40 79t-114 32t-119 -44q-46 -44 -50 -106l-271 56q10 127 126 232t334 105t328 -110q110 -111 109 -283v-497
q0 -96 13 -158h-281q-10 41 -10 115q-88 -143 -287 -144q-162 -1 -257 91t-95 220z" />
    <glyph glyph-name="b" unicode="b" horiz-adv-x="1273" 
d="M670 256q96 0 162 66t67 189t-65 187t-164 64t-165 -65t-67 -187t68 -188t164 -66zM438 0h-301v1483h305v-561q35 51 115 86t180 34q217 0 345 -148t128 -382t-136 -384q-136 -151 -349 -151q-98 0 -174 38t-113 100v-115z" />
    <glyph glyph-name="c" unicode="c" horiz-adv-x="1148" 
d="M598 762q-92 0 -159 -68t-67 -186t70 -184q68 -68 160 -68t147 44q54 44 72 108l275 -84q-37 -146 -165 -250t-339 -104t-370 152q-159 154 -159 388t155 386t368 153q213 -1 340 -103t164 -252l-279 -84q-17 66 -69 109t-144 43z" />
    <glyph glyph-name="d" unicode="d" horiz-adv-x="1282" 
d="M377 510q1 -122 67 -188t162 -66t163 67t67 187t-67 186t-163 66t-162 -66t-67 -186zM1139 1483v-1301q0 -92 8 -182h-299q-8 49 -8 98q-37 -53 -110 -87t-163 -34q-217 0 -360 151t-143 382t138 382q140 150 352 150t277 -104v545h308z" />
    <glyph glyph-name="e" unicode="e" horiz-adv-x="1144" 
d="M594 -31q-221 -1 -376 147t-155 391t151 393t373 149t358 -139t136 -384q0 -78 -6 -96h-708q3 -84 71 -140t160 -57q158 1 205 134l260 -74q-39 -141 -162 -233t-307 -91zM580 803q-96 0 -148 -53q-53 -53 -59 -119h407q-4 70 -54 121t-146 51z" />
    <glyph glyph-name="f" unicode="f" horiz-adv-x="743" 
d="M717 756h-221v-756h-312v756h-161v262h161v88q0 178 104 286t285 107q102 0 148 -22v-254q-41 10 -93 10t-92 -31t-40 -106v-78h221v-262z" />
    <glyph glyph-name="g" unicode="g" horiz-adv-x="1243" 
d="M596 313q96 -1 156 61t61 164q0 102 -63 163q-64 63 -154 63t-155 -62t-65 -164q0 -101 62 -163t158 -62zM811 111v47q-75 -115 -275 -115t-335 141q-135 140 -135 350t134 356t339 146q113 0 185 -39t97 -88v109h297v-891q0 -239 -137 -393t-408 -154q-209 0 -347 108
q-137 108 -160 255l274 77q16 -76 74 -122t145 -48q252 0 252 261z" />
    <glyph glyph-name="h" unicode="h" horiz-adv-x="1218" 
d="M449 0h-312v1483h312v-531q92 92 271 92t276 -114t98 -291v-639h-312v586q0 80 -42 128t-119 48t-123 -46t-49 -118v-598z" />
    <glyph glyph-name="i" unicode="i" horiz-adv-x="583" 
d="M111 1329q0 76 53 129t128 53t129 -53t54 -129t-54 -129t-129 -53t-128 53t-53 129zM449 0h-312v1018h312v-1018z" />
    <glyph glyph-name="j" unicode="j" horiz-adv-x="585" 
d="M111 1329q0 76 53 129t129 53t129 -53t53 -129t-54 -129t-129 -53t-128 53t-53 129zM137 -41v1059h312v-1092q1 -156 -91 -251t-245 -95q-104 0 -172 29v258q43 -12 92 -12q104 0 104 104z" />
    <glyph glyph-name="k" unicode="k" horiz-adv-x="1179" 
d="M449 0h-312v1483h312v-807l309 342h403l-397 -428l405 -590h-381l-239 358l-100 -108v-250z" />
    <glyph glyph-name="l" unicode="l" horiz-adv-x="585" 
d="M449 0h-312v1483h312v-1483z" />
    <glyph glyph-name="m" unicode="m" horiz-adv-x="1845" 
d="M449 0h-312v1018h297v-117q37 66 122 107t171 41q219 0 301 -160q111 160 315 160q160 1 269 -97t108 -293v-659h-301v590q0 76 -41 124t-121 48q-81 0 -125 -51t-45 -123v-588h-307v590q0 76 -42 124t-121 48t-123 -51t-45 -125v-586z" />
    <glyph glyph-name="n" unicode="n" horiz-adv-x="1218" 
d="M449 584v-584h-312v1018h301v-117q39 68 120 106t165 37q182 0 276 -114t95 -291v-639h-312v586q0 80 -42 128t-121 48t-125 -50t-45 -128z" />
    <glyph glyph-name="o" unicode="o" horiz-adv-x="1208" 
d="M605 1049q230 0 385 -152q155 -151 155 -387t-155 -388t-385 -153q-230 0 -386 154t-156 387t156 386t386 153zM605 256q95 0 162 66t67 188t-67 188q-67 64 -162 64t-163 -66t-68 -186t68 -188q68 -66 163 -66z" />
    <glyph glyph-name="p" unicode="p" horiz-adv-x="1273" 
d="M905 510q-1 120 -67 186t-163 66t-164 -66t-67 -186t67 -188q67 -66 164 -66t163 66t67 188zM449 -389h-312v1407h301v-105q35 53 116 91t183 38q217 0 345 -148t128 -382t-136 -384q-136 -151 -339 -151t-286 103v-469z" />
    <glyph glyph-name="q" unicode="q" horiz-adv-x="1273" 
d="M379 510q1 -122 67 -188t162 -66t163 67t67 187t-67 186t-163 66t-162 -66t-67 -186zM1139 -389h-305v471q-74 -104 -280 -104t-348 150q-142 151 -142 382t136 382q138 151 355 150q119 0 191 -40t96 -84v100h297v-1407z" />
    <glyph glyph-name="r" unicode="r" horiz-adv-x="825" 
d="M686 721q-104 0 -171 -68t-66 -209v-444h-312v1018h301v-137q37 79 113 113t137 34t96 -10v-307q-43 10 -98 10z" />
    <glyph glyph-name="s" unicode="s" horiz-adv-x="954" 
d="M468 199q66 -1 97 25t31 63q0 61 -100 84l-117 26q-303 64 -303 327q0 128 111 226t295 98t283 -94q99 -96 109 -209l-258 -47q-6 55 -42 90t-92 35q-56 -1 -89 -25t-33 -63q0 -61 80 -76l135 -26q154 -31 234 -117t80 -215q-1 -129 -107 -230t-299 -102q-298 0 -402 221
q-24 52 -28 99l264 47q4 -57 44 -97q41 -40 107 -40z" />
    <glyph glyph-name="t" unicode="t" horiz-adv-x="782" 
d="M510 1315v-297h199v-273h-199v-380q0 -106 113 -107q37 0 82 10v-258q-57 -29 -162 -28q-158 0 -249 88t-91 239v436h-180v273h51q78 0 118 46t39 120v131h279z" />
    <glyph glyph-name="u" unicode="u" horiz-adv-x="1220" 
d="M514 -23q-180 0 -284 114q-103 114 -103 284v643h311v-578q0 -78 42 -127t121 -49t125 48t46 126v580h311v-836q0 -100 11 -182h-299q-8 37 -9 102q-36 -61 -112 -93t-160 -32z" />
    <glyph glyph-name="v" unicode="v" horiz-adv-x="1159" 
d="M1139 1018l-387 -1018h-314l-418 1018h338l236 -633l217 633h328z" />
    <glyph glyph-name="w" unicode="w" horiz-adv-x="1742" 
d="M717 1018h330l198 -604l170 604h305l-315 -1018h-309l-222 657l-217 -657h-315l-319 1018h323l170 -602z" />
    <glyph glyph-name="x" unicode="x" horiz-adv-x="1130" 
d="M557 287q-38 -58 -186 -287h-342l350 508l-356 510h366l182 -279l179 279h348l-353 -498q342 -487 365 -520h-365z" />
    <glyph glyph-name="y" unicode="y" horiz-adv-x="1183" 
d="M537 -391h-328l231 528l-428 881h348l248 -545l226 545h329z" />
    <glyph glyph-name="z" unicode="z" horiz-adv-x="1001" 
d="M928 0h-854v274l448 478h-436v266h834v-256l-469 -494h477v-268z" />
    <glyph glyph-name="braceleft" unicode="{" horiz-adv-x="788" 
d="M92 551v254q197 0 197 180v297q0 201 108 302q109 101 299 102h82v-234h-76q-66 0 -110 -39t-45 -127v-348q0 -94 -52 -163t-151 -97q96 -29 150 -97q53 -69 53 -165v-348q0 -88 45 -128t110 -40h76v-232h-82q-190 0 -299 100t-108 302v299q0 182 -197 182z" />
    <glyph glyph-name="bar" unicode="|" horiz-adv-x="571" 
d="M416 -332h-258v2018h258v-2018z" />
    <glyph glyph-name="braceright" unicode="}" horiz-adv-x="788" 
d="M696 805v-254q-195 0 -194 -182v-299q0 -201 -109 -301t-301 -101h-82v232h76q66 0 112 40t46 128v348q0 96 52 165t148 97q-96 30 -148 98t-52 162v348q0 88 -46 127t-112 39h-76v234h82q194 0 302 -102t108 -302v-297q-1 -180 194 -180z" />
    <glyph glyph-name="asciitilde" unicode="~" horiz-adv-x="1206" 
d="M387 551q-106 0 -174 -102l-168 133q57 109 149 167t204 58t223 -59l98 -54q53 -29 104 -28q106 0 174 102l164 -133q-57 -109 -148 -167t-203 -58t-226 61l-97 53q-47 27 -100 27z" />
    <glyph glyph-name="uni00A0" unicode="&#xa0;" horiz-adv-x="503" 
 />
    <glyph glyph-name="exclamdown" unicode="&#xa1;" horiz-adv-x="645" 
d="M145 873q-1 73 51 124t126 51t126 -50q52 -52 52 -125t-52 -125t-126 -52t-126 52t-51 125zM436 575l72 -997h-373l72 997h229z" />
    <glyph glyph-name="cent" unicode="&#xa2;" horiz-adv-x="1132" 
d="M698 0h-235v172q-170 41 -279 171q-108 130 -108 311t108 314q109 132 279 171v190h235v-186q142 -27 234 -115t121 -203l-265 -77q-45 141 -196 141q-94 -1 -158 -63t-63 -170q0 -108 64 -172q65 -62 154 -62t140 40t68 99l262 -76q-29 -115 -124 -203t-237 -116v-166z
" />
    <glyph glyph-name="sterling" unicode="&#xa3;" horiz-adv-x="1212" 
d="M121 784h117q-27 80 -27 172q0 162 123 283t328 121q116 0 204 -37t136 -97q98 -122 98 -261l-271 -39q-2 84 -44 132q-41 48 -113 48t-118 -41t-46 -116t35 -165h360v-225h-289q2 -12 2 -37q0 -172 -127 -256h269q66 0 108 42t43 110l271 -17q0 -173 -106 -287
t-275 -114h-684v242q213 74 213 250q0 23 -9 67h-198v225z" />
    <glyph glyph-name="currency" unicode="&#xa4;" horiz-adv-x="1206" 
d="M414 508q0 -82 53 -134t137 -52t137 52t54 134t-53 134t-138 52t-137 -52t-53 -134zM158 505q0 114 51 210l-146 147l187 185l151 -152q94 47 207 47t197 -47l151 152l187 -185l-146 -147q53 -90 53 -203t-53 -213l146 -143l-187 -187l-149 152q-94 -47 -203 -47t-203 47
l-151 -152l-187 187l148 145q-53 90 -53 204z" />
    <glyph glyph-name="yen" unicode="&#xa5;" horiz-adv-x="1292" 
d="M1165 256h-372v-256h-299v256h-353v217h353v129h-353v217h201l-299 510h346l264 -483l265 483h331l-305 -510h221v-217h-372v-129h372v-217z" />
    <glyph glyph-name="brokenbar" unicode="&#xa6;" horiz-adv-x="571" 
d="M158 481h258v-815h-258v815zM158 1686h258v-816h-258v816z" />
    <glyph glyph-name="section" unicode="&#xa7;" horiz-adv-x="1136" 
d="M406 596q0 -76 67 -113l209 -110q51 47 51 92q1 76 -69 113l-209 110q-49 -45 -49 -92zM1012 526q0 -166 -150 -258q148 -116 148 -290t-133 -287t-321 -113t-308 104t-129 281l293 45q0 -84 43 -124t106 -40t99 33t36 84q0 72 -73 105l-207 104q-137 70 -214 152
t-77 210q0 172 149 259q-145 115 -145 291t132 289q133 112 321 112q188 1 308 -105t128 -280l-293 -45q0 164 -154 164q-59 0 -95 -34t-36 -83q0 -70 74 -103l207 -106q139 -74 215 -154t76 -211z" />
    <glyph glyph-name="dieresis" unicode="&#xa8;" horiz-adv-x="856" 
d="M498 1294q0 66 45 112t111 46t111 -46q46 -46 46 -112t-46 -110t-112 -45q-67 1 -111 45t-44 110zM45 1294q0 66 45 112t111 46q65 0 111 -46t46 -112t-46 -110t-112 -45q-66 1 -110 45q-45 44 -45 110z" />
    <glyph glyph-name="copyright" unicode="&#xa9;" horiz-adv-x="1665" 
d="M842 905q-74 0 -122 -49t-48 -136t49 -136t117 -49q68 -1 108 31q39 32 53 79l203 -61q-29 -109 -123 -185q-95 -75 -249 -75t-270 112t-116 283q0 172 114 285q114 112 270 112t248 -76q93 -76 120 -184l-203 -61q-30 110 -151 110zM74 725q0 313 222 537t535 223
q313 0 537 -223q224 -222 223 -536q0 -314 -223 -536q-222 -222 -536 -223q-314 1 -536 223t-222 535zM256 725q0 -248 166 -419t410 -171t410 171q167 171 167 419t-167 420t-411 172q-243 0 -409 -172t-166 -420z" />
    <glyph glyph-name="ordfeminine" unicode="&#xaa;" horiz-adv-x="864" 
d="M410 756q51 0 87 32t35 105v31l-126 -21q-78 -11 -78 -79t82 -68zM102 813q0 90 60 145t153 70l166 25q51 8 51 49q0 31 -26 51q-27 21 -76 21t-81 -30t-36 -71l-196 41q10 88 90 163q79 75 235 75t234 -79t78 -200v-348q0 -53 8 -111h-205q-6 31 -6 78q-61 -98 -187 -98
t-194 64t-68 155z" />
    <glyph glyph-name="guillemotleft" unicode="&#xab;" horiz-adv-x="1126" 
d="M1094 209h-293l-283 399l287 410h291l-285 -412zM627 209h-291l-283 399l287 410h289l-285 -412z" />
    <glyph glyph-name="logicalnot" unicode="&#xac;" horiz-adv-x="1226" 
d="M1122 264h-266v400h-764v256h1030v-656z" />
    <glyph glyph-name="uni00AD" unicode="&#xad;" horiz-adv-x="798" 
d="M707 477h-615v281h615v-281z" />
    <glyph glyph-name="registered" unicode="&#xae;" horiz-adv-x="1665" 
d="M762 768h88q49 0 78 27q28 27 28 71t-28 72q-29 27 -78 27h-88v-197zM762 596v-274h-213v815h342q119 0 200 -78t80 -191q1 -78 -39 -140t-106 -95l156 -311h-234l-125 274h-61zM256 725q0 -248 166 -419t410 -171t410 171q167 171 167 419t-167 420t-411 172
q-243 0 -409 -172t-166 -420zM74 725q0 313 222 537t535 223q313 0 537 -223q224 -222 223 -536q0 -314 -223 -536q-222 -222 -536 -223q-314 1 -536 223t-222 535z" />
    <glyph glyph-name="macron" unicode="&#xaf;" horiz-adv-x="675" 
d="M631 1182h-586v215h586v-215z" />
    <glyph glyph-name="degree" unicode="&#xb0;" horiz-adv-x="765" 
d="M37 1019q0 141 102 241q101 100 243 100t244 -99t103 -243q0 -144 -101 -240q-102 -98 -246 -98t-245 98q-100 99 -100 241zM258 1018q0 -59 35 -96t89 -37t89 38t35 96t-35 95t-88 37t-89 -37t-36 -96z" />
    <glyph glyph-name="plusminus" unicode="&#xb1;" horiz-adv-x="1239" 
d="M125 336h989v-254h-989v254zM125 897h362v240h263v-240h364v-254h-364v-237h-263v237h-362v254z" />
    <glyph glyph-name="twosuperior" unicode="&#xb2;" horiz-adv-x="811" 
d="M711 1214q0 -133 -172 -233l-138 -80q-10 -6 -10 -10h326v-195h-619v27q0 227 187 332l123 69q74 41 73 93q0 25 -19 47q-18 22 -62 22t-68 -28t-23 -60q0 -32 6 -45h-204q-8 33 -9 55q0 111 80 187q80 75 222 75t225 -74q82 -74 82 -182z" />
    <glyph glyph-name="threesuperior" unicode="&#xb3;" horiz-adv-x="841" 
d="M412 868q46 0 72 22t26 58t-27 58q-27 20 -63 20t-64 -12l-71 153l161 97h-323v188h596v-190l-174 -105q96 -15 148 -73t52 -155t-91 -174t-233 -77t-230 74q-87 74 -95 174l211 37q2 -39 31 -67t74 -28z" />
    <glyph glyph-name="acute" unicode="&#xb4;" horiz-adv-x="626" 
d="M582 1448l-289 -309h-248l188 309h349z" />
    <glyph glyph-name="mu" unicode="&#xb5;" horiz-adv-x="1241" 
d="M548 -23q-62 0 -97 7v-373h-312v1407h312v-578q0 -78 42 -127q43 -49 121 -49t124 48t46 126v580h312v-836q0 -90 10 -182h-299q-8 37 -8 102q-37 -61 -113 -93t-138 -32z" />
    <glyph glyph-name="paragraph" unicode="&#xb6;" horiz-adv-x="1404" 
d="M743 1223v-1614h-235v987h-37q-174 0 -300 122t-126 312t142 306t356 116h839v-229h-198v-1614h-240v1614h-201z" />
    <glyph glyph-name="periodcentered" unicode="&#xb7;" horiz-adv-x="600" 
d="M117 658q0 80 56 134t136 54t136 -54q57 -54 57 -134t-56 -133q-56 -54 -137 -54q-80 0 -136 54t-56 133z" />
    <glyph glyph-name="cedilla" unicode="&#xb8;" horiz-adv-x="612" 
d="M569 -282q-1 -79 -67 -139t-205 -60q-82 0 -152 35t-102 77l96 121q78 -78 156 -78t78 54q1 20 -19 35t-52 15t-56 -7l-76 100l98 154h185l-82 -125q90 -2 144 -52t54 -130z" />
    <glyph glyph-name="onesuperior" unicode="&#xb9;" horiz-adv-x="628" 
d="M494 698h-236v435h-192v151q98 0 153 51t68 117h207v-754z" />
    <glyph glyph-name="ordmasculine" unicode="&#xba;" horiz-adv-x="987" 
d="M494 1352q162 0 272 -108t108 -272q0 -164 -109 -272q-109 -106 -271 -106t-272 106t-110 272t110 272q110 108 272 108zM340 973q0 -82 46 -126t110 -44t108 44t45 126q0 82 -45 126t-109 44q-63 0 -109 -44t-46 -126z" />
    <glyph glyph-name="guillemotright" unicode="&#xbb;" horiz-adv-x="1126" 
d="M326 209h-293l284 397l-284 412h289l286 -410zM791 209h-291l282 397l-284 412h290l287 -410z" />
    <glyph glyph-name="onequarter" unicode="&#xbc;" horiz-adv-x="1683" 
d="M477 0h-262l930 1329h264zM1260 319v209l-187 -209h187zM903 145v230l336 381h248v-437h121v-174h-121v-145h-227v145h-357zM514 575h-235v435h-193v151q98 0 154 51q55 51 67 117h207v-754z" />
    <glyph glyph-name="onehalf" unicode="&#xbd;" horiz-adv-x="1738" 
d="M1032 512q0 110 80 186t222 76t224 -74t82 -182q0 -133 -172 -233l-137 -80q-10 -6 -10 -10h326v-195h-619v27q0 227 186 331l123 70q74 41 74 92q0 26 -19 48q-18 22 -62 22t-68 -28t-23 -60q0 -32 6 -45h-205q-8 33 -8 55zM475 0h-262l930 1329h264zM514 575h-235v435
h-193v151q98 0 154 51q55 51 67 117h207v-754z" />
    <glyph glyph-name="threequarters" unicode="&#xbe;" horiz-adv-x="1845" 
d="M643 0h-262l930 1329h264zM1421 319v209l-186 -209h186zM1065 145v230l336 381h248v-437h120v-174h-120v-145h-228v145h-356zM412 745q46 0 72 22q26 23 26 59t-27 56t-63 21q-36 0 -64 -12l-71 153l161 97h-323v188h596v-190l-174 -105q96 -14 148 -72t52 -156t-91 -174
q-91 -77 -233 -77t-230 74q-87 74 -95 174l211 37q2 -39 31 -67t74 -28z" />
    <glyph glyph-name="questiondown" unicode="&#xbf;" horiz-adv-x="1021" 
d="M358 875q0 73 52 124t126 51t124 -50q50 -52 50 -125t-50 -125q-52 -52 -124 -52t-126 52q-52 52 -52 125zM416 578h243q8 -57 9 -91q0 -174 -152 -288l-102 -78q-76 -59 -76 -133t47 -119t136 -45t138 55t50 137q0 37 -11 78l293 -24q8 -39 8 -88q0 -188 -135 -312
q-134 -124 -358 -123q-224 0 -354 120t-129 286q0 221 194 369l78 57q121 90 121 199z" />
    <glyph glyph-name="Agrave" unicode="&#xc0;" horiz-adv-x="1503" 
d="M643 1554l-307 271h371l213 -271h-277zM750 1092l-179 -502h353zM1130 0l-104 295h-561l-105 -295h-340l547 1452h375l541 -1452h-353z" />
    <glyph glyph-name="Aacute" unicode="&#xc1;" horiz-adv-x="1503" 
d="M1180 1825l-308 -271h-276l213 271h371zM750 1092l-179 -502h353zM1130 0l-104 295h-561l-105 -295h-340l547 1452h375l541 -1452h-353z" />
    <glyph glyph-name="Acircumflex" unicode="&#xc2;" horiz-adv-x="1503" 
d="M625 1554h-277l250 271h297l254 -271h-289l-119 134zM750 1092l-179 -502h353zM1130 0l-104 295h-561l-105 -295h-340l547 1452h375l541 -1452h-353z" />
    <glyph glyph-name="Atilde" unicode="&#xc3;" horiz-adv-x="1503" 
d="M1096 1833v-70q0 -105 -62 -165t-144 -60q-84 0 -166 49t-107 49q-54 0 -56 -59v-27h-178v68q0 106 61 164q60 58 144 57q84 0 167 -47t107 -47q55 0 56 59v29h178zM750 1092l-179 -502h353zM1130 0l-104 295h-561l-105 -295h-340l547 1452h375l541 -1452h-353z" />
    <glyph glyph-name="Adieresis" unicode="&#xc4;" horiz-adv-x="1503" 
d="M750 1092l-179 -502h353zM1130 0l-104 295h-561l-105 -295h-340l547 1452h375l541 -1452h-353zM1086 1530q-70 0 -114 45t-44 114t45 115t113 47q68 0 116 -47q47 -48 47 -116t-47 -113t-116 -45zM246 1689q0 69 46 115t115 47q69 0 115 -47q46 -48 47 -116
q0 -68 -47 -113q-48 -45 -116 -45t-114 45t-46 114z" />
    <glyph glyph-name="Aring" unicode="&#xc5;" horiz-adv-x="1503" 
d="M748 1833q118 0 204 -81q86 -82 86 -194t-65 -188l510 -1370h-353l-104 295h-561l-105 -295h-340l512 1360q-76 80 -76 196t87 196q86 81 205 81zM750 1087l-179 -497h353zM846 1550q0 45 -28 73t-70 28t-70 -27q-29 -27 -29 -73q0 -47 29 -73t71 -26q41 0 69 26t28 72z
" />
    <glyph glyph-name="AE" unicode="&#xc6;" horiz-adv-x="2203" 
d="M1167 578v612l-391 -612h391zM2091 0h-924v313h-561l-198 -313h-388l959 1452h1110v-305h-598v-277h543v-284h-543v-279h600v-307z" />
    <glyph glyph-name="Ccedilla" unicode="&#xc7;" horiz-adv-x="1581" 
d="M74 734q0 322 219 535q219 214 530 214q156 0 282 -46t204 -122q154 -150 190 -322l-305 -96q-20 88 -96 171q-41 44 -113 72t-162 27q-165 1 -289 -115t-124 -321t122 -321t293 -117q170 0 262 84t121 188l310 -88q-42 -173 -188 -323t-400 -179l-49 -75q90 -2 144 -52
t54 -130q-1 -79 -67 -139t-205 -60q-82 0 -152 35t-102 77l96 121q78 -78 156 -78t78 54q1 20 -19 35t-52 15t-56 -7l-76 100l65 102q-291 29 -481 234t-190 527z" />
    <glyph glyph-name="Egrave" unicode="&#xc8;" horiz-adv-x="1193" 
d="M1079 0h-921v1452h919v-305h-596v-277h541v-284h-541v-279h598v-307zM547 1554l-307 271h370l213 -271h-276z" />
    <glyph glyph-name="Eacute" unicode="&#xc9;" horiz-adv-x="1193" 
d="M1079 0h-921v1452h919v-305h-596v-277h541v-284h-541v-279h598v-307zM1001 1825l-307 -271h-276l213 271h370z" />
    <glyph glyph-name="Ecircumflex" unicode="&#xca;" horiz-adv-x="1193" 
d="M1079 0h-921v1452h919v-305h-596v-277h541v-284h-541v-279h598v-307zM489 1554h-276l250 271h297l254 -271h-289l-119 134z" />
    <glyph glyph-name="Edieresis" unicode="&#xcb;" horiz-adv-x="1193" 
d="M1079 0h-921v1452h919v-305h-596v-277h541v-284h-541v-279h598v-307zM676 1689q0 69 46 115t115 47q69 0 115 -47q46 -48 47 -116q0 -68 -47 -113q-48 -45 -116 -45t-114 45t-46 114zM394 1530q-69 0 -115 45t-46 114q1 69 47 115t114 47q68 0 116 -47q47 -48 47 -116
t-47 -113t-116 -45z" />
    <glyph glyph-name="Igrave" unicode="&#xcc;" horiz-adv-x="641" 
d="M205 1554l-307 271h370l213 -271h-276zM485 0h-327v1452h327v-1452z" />
    <glyph glyph-name="Iacute" unicode="&#xcd;" horiz-adv-x="641" 
d="M743 1825l-307 -271h-276l213 271h370zM485 0h-327v1452h327v-1452z" />
    <glyph glyph-name="Icircumflex" unicode="&#xce;" horiz-adv-x="641" 
d="M201 1554h-277l250 271h297l254 -271h-289l-119 134zM485 0h-327v1452h327v-1452z" />
    <glyph glyph-name="Idieresis" unicode="&#xcf;" horiz-adv-x="641" 
d="M485 0h-327v1452h327v-1452zM533 1530q-69 0 -113 45t-45 114q0 69 45 115q46 46 114 47q68 0 114 -47q46 -48 46 -116t-46 -113t-115 -45zM-49 1689q0 69 45 115t114 47q68 0 114 -47q46 -48 46 -116t-46 -113t-114 -45t-114 45q-45 45 -45 114z" />
    <glyph glyph-name="Eth" unicode="&#xd0;" horiz-adv-x="1554" 
d="M547 305h188q178 1 292 107t114 314t-114 314t-292 107h-188v-285h295v-227h-295v-330zM748 0h-525v635h-192v227h192v590h527q330 0 530 -197t199 -531q1 -334 -199 -528q-200 -196 -532 -196z" />
    <glyph glyph-name="Ntilde" unicode="&#xd1;" horiz-adv-x="1574" 
d="M1419 0h-342l-598 954v-954h-321v1452h393l545 -883v883h323v-1452zM1151 1833v-70q0 -105 -61 -165t-145 -60q-83 0 -165 49t-108 49q-54 0 -56 -59v-27h-178v68q0 106 62 164t144 57q83 0 166 -47t108 -47q55 0 55 59v29h178z" />
    <glyph glyph-name="Ograve" unicode="&#xd2;" horiz-adv-x="1656" 
d="M74 726q0 337 220 547t535 210t535 -211t219 -547q0 -336 -219 -546q-218 -210 -534 -210t-536 210t-220 547zM410 727q0 -213 126 -326t294 -113t292 114q125 112 125 325t-125 327t-293 114q-167 0 -293 -114t-126 -327zM692 1554l-307 271h371l213 -271h-277z" />
    <glyph glyph-name="Oacute" unicode="&#xd3;" horiz-adv-x="1656" 
d="M74 726q0 337 220 547t535 210t535 -211t219 -547q0 -336 -219 -546q-218 -210 -534 -210t-536 210t-220 547zM410 727q0 -213 126 -326t294 -113t292 114q125 112 125 325t-125 327t-293 114q-167 0 -293 -114t-126 -327zM1249 1825l-307 -271h-276l213 271h370z" />
    <glyph glyph-name="Ocircumflex" unicode="&#xd4;" horiz-adv-x="1656" 
d="M74 726q0 337 220 547t535 210t535 -211t219 -547q0 -336 -219 -546q-218 -210 -534 -210t-536 210t-220 547zM410 727q0 -213 126 -326t294 -113t292 114q125 112 125 325t-125 327t-293 114q-167 0 -293 -114t-126 -327zM705 1554h-277l250 271h297l254 -271h-289
l-119 134z" />
    <glyph glyph-name="Otilde" unicode="&#xd5;" horiz-adv-x="1656" 
d="M74 726q0 337 220 547t535 210t535 -211t219 -547q0 -336 -219 -546q-218 -210 -534 -210t-536 210t-220 547zM410 727q0 -213 126 -326t294 -113t292 114q125 112 125 325t-125 327t-293 114q-167 0 -293 -114t-126 -327zM1174 1833v-70q0 -105 -62 -165t-144 -60
q-83 0 -169 49t-108 49t-37 -15t-15 -44v-27h-178v68q0 106 61 164q60 58 144 57q84 0 167 -47t107 -47q55 0 55 59v29h179z" />
    <glyph glyph-name="Odieresis" unicode="&#xd6;" horiz-adv-x="1656" 
d="M74 726q0 337 220 547t535 210t535 -211t219 -547q0 -336 -219 -546q-218 -210 -534 -210t-536 210t-220 547zM410 727q0 -213 126 -326t294 -113t292 114q125 112 125 325t-125 327t-293 114q-167 0 -293 -114t-126 -327zM1030 1689q0 69 45 115t115 47q70 0 117 -47
q47 -48 47 -116t-47 -113t-117 -45t-115 45t-45 114zM307 1689q0 69 45 115t114 47q69 0 116 -47q47 -48 47 -116t-47 -113t-116 -45t-114 45t-45 114z" />
    <glyph glyph-name="multiply" unicode="&#xd7;" horiz-adv-x="1187" 
d="M930 88l-336 338l-336 -338l-184 188l334 336l-334 338l184 185l336 -338l336 338l184 -185l-336 -338l336 -336z" />
    <glyph glyph-name="Oslash" unicode="&#xd8;" horiz-adv-x="1656" 
d="M410 727q0 -145 65 -250l512 660q-78 31 -158 30q-167 1 -293 -113t-126 -327zM1247 727q0 152 -67 254l-512 -664q72 -29 161 -28q168 1 293 113t125 325zM74 740q0 324 220 533q220 210 535 210q193 0 359 -86l143 184l197 -151l-142 -183q197 -211 197 -535t-219 -533
q-219 -210 -535 -210q-197 0 -364 86l-141 -182l-201 150l143 184q-192 209 -192 533z" />
    <glyph glyph-name="Ugrave" unicode="&#xd9;" horiz-adv-x="1441" 
d="M721 -33q-250 1 -413 147t-163 410v928h324v-901q0 -129 67 -197q68 -68 186 -68t184 68t67 197v901h323v-928q0 -264 -162 -410t-413 -147zM614 1554l-307 271h371l213 -271h-277z" />
    <glyph glyph-name="Uacute" unicode="&#xda;" horiz-adv-x="1441" 
d="M721 -33q-250 1 -413 147t-163 410v928h324v-901q0 -129 67 -197q68 -68 186 -68t184 68t67 197v901h323v-928q0 -264 -162 -410t-413 -147zM1116 1825l-307 -271h-277l213 271h371z" />
    <glyph glyph-name="Ucircumflex" unicode="&#xdb;" horiz-adv-x="1441" 
d="M721 -33q-250 1 -413 147t-163 410v928h324v-901q0 -129 67 -197q68 -68 186 -68t184 68t67 197v901h323v-928q0 -264 -162 -410t-413 -147zM598 1554h-276l249 271h297l254 -271h-288l-119 134z" />
    <glyph glyph-name="Udieresis" unicode="&#xdc;" horiz-adv-x="1441" 
d="M721 -33q-250 1 -413 147t-163 410v928h324v-901q0 -129 67 -197q68 -68 186 -68t184 68t67 197v901h323v-928q0 -264 -162 -410t-413 -147zM813 1689q0 69 45 115t114 47q70 0 116 -47q46 -48 46 -116t-46 -113q-48 -45 -116 -45t-114 45q-45 45 -45 114zM311 1689
q0 69 45 115t115 47q70 0 117 -47q47 -48 47 -116t-47 -113t-117 -45t-115 45t-45 114z" />
    <glyph glyph-name="Yacute" unicode="&#xdd;" horiz-adv-x="1378" 
d="M1106 1825l-307 -271h-277l213 271h371zM848 0h-324v606l-504 846h379l297 -539l301 539h361l-510 -846v-606z" />
    <glyph glyph-name="Thorn" unicode="&#xde;" horiz-adv-x="1249" 
d="M696 266h-215v-266h-323v1452h323v-256h215q214 0 358 -133t144 -332t-144 -332t-358 -133zM483 541h189q92 0 147 52t55 138t-55 137t-147 52h-189v-379z" />
    <glyph glyph-name="germandbls" unicode="&#xdf;" horiz-adv-x="1251" 
d="M1229 293q0 -117 -97 -220q-98 -103 -276 -103t-267 93q-89 94 -91 203l243 41q2 -41 29 -74t74 -33q48 0 72 24t24 57q0 63 -96 98l-53 20q-231 84 -232 277q0 152 141 248l31 20q90 59 90 133q0 53 -44 92t-132 39t-146 -58t-59 -183v-967h-303v989q1 244 147 369
t363 125t349 -113t132 -276q0 -197 -180 -308l-33 -20q-47 -31 -47 -64q2 -37 64 -59l57 -22q111 -43 175 -127t65 -201z" />
    <glyph glyph-name="agrave" unicode="&#xe0;" horiz-adv-x="1118" 
d="M457 1139l-291 309h354l191 -309h-254zM383 301q0 -43 30 -73q31 -30 101 -31q70 0 123 47t53 155v45l-192 -30q-115 -18 -115 -113zM76 282q0 128 84 206t217 100l239 37q74 10 74 69q0 47 -40 79t-114 32t-119 -44q-46 -44 -50 -106l-271 56q10 127 126 232t334 105
t328 -110q110 -111 109 -283v-497q0 -96 13 -158h-281q-10 41 -10 115q-88 -143 -287 -144q-162 -1 -257 91t-95 220z" />
    <glyph glyph-name="aacute" unicode="&#xe1;" horiz-adv-x="1118" 
d="M926 1448l-289 -309h-248l189 309h348zM383 301q0 -43 30 -73q31 -30 101 -31q70 0 123 47t53 155v45l-192 -30q-115 -18 -115 -113zM76 282q0 128 84 206t217 100l239 37q74 10 74 69q0 47 -40 79t-114 32t-119 -44q-46 -44 -50 -106l-271 56q10 127 126 232t334 105
t328 -110q110 -111 109 -283v-497q0 -96 13 -158h-281q-10 41 -10 115q-88 -143 -287 -144q-162 -1 -257 91t-95 220z" />
    <glyph glyph-name="acircumflex" unicode="&#xe2;" horiz-adv-x="1118" 
d="M397 1139h-231l231 309h293l234 -309h-238l-145 145zM383 301q0 -43 30 -73q31 -30 101 -31q70 0 123 47t53 155v45l-192 -30q-115 -18 -115 -113zM76 282q0 128 84 206t217 100l239 37q74 10 74 69q0 47 -40 79t-114 32t-119 -44q-46 -44 -50 -106l-271 56
q10 127 126 232t334 105t328 -110q110 -111 109 -283v-497q0 -96 13 -158h-281q-10 41 -10 115q-88 -143 -287 -144q-162 -1 -257 91t-95 220z" />
    <glyph glyph-name="atilde" unicode="&#xe3;" horiz-adv-x="1118" 
d="M930 1446v-41q0 -131 -62 -199t-168 -67q-66 0 -154 45t-116 45q-68 0 -70 -88h-176v47q0 128 65 194t151 66t166 -46t118 -46q68 0 72 90h174zM383 301q0 -43 30 -73q31 -30 101 -31q70 0 123 47t53 155v45l-192 -30q-115 -18 -115 -113zM76 282q0 128 84 206t217 100
l239 37q74 10 74 69q0 47 -40 79t-114 32t-119 -44q-46 -44 -50 -106l-271 56q10 127 126 232t334 105t328 -110q110 -111 109 -283v-497q0 -96 13 -158h-281q-10 41 -10 115q-88 -143 -287 -144q-162 -1 -257 91t-95 220z" />
    <glyph glyph-name="adieresis" unicode="&#xe4;" horiz-adv-x="1118" 
d="M618 1294q0 66 46 112t110 46q66 0 112 -46t46 -112t-46 -110t-112 -45q-66 1 -111 45t-45 110zM166 1294q0 66 45 112t111 46t112 -46t45 -112q0 -66 -46 -110q-45 -44 -111 -45q-66 1 -111 45t-45 110zM383 301q0 -43 30 -73q31 -30 101 -31q70 0 123 47t53 155v45
l-192 -30q-115 -18 -115 -113zM76 282q0 128 84 206t217 100l239 37q74 10 74 69q0 47 -40 79t-114 32t-119 -44q-46 -44 -50 -106l-271 56q10 127 126 232t334 105t328 -110q110 -111 109 -283v-497q0 -96 13 -158h-281q-10 41 -10 115q-88 -143 -287 -144q-162 -1 -257 91
t-95 220z" />
    <glyph glyph-name="aring" unicode="&#xe5;" horiz-adv-x="1118" 
d="M610 1352q0 34 -22 56t-54 22t-54 -22t-22 -56t22 -57q22 -21 55 -21t54 22t21 56zM772 1353q0 -99 -70 -164t-168 -65t-167 65q-70 65 -70 164t70 165t168 66q97 0 167 -66t70 -165zM383 301q0 -43 30 -73q31 -30 101 -31q70 0 123 47t53 155v45l-192 -30
q-115 -18 -115 -113zM76 282q0 128 84 206t217 100l239 37q74 10 74 69q0 47 -40 79t-114 32t-119 -44q-46 -44 -50 -106l-271 56q10 127 126 232t334 105t328 -110q110 -111 109 -283v-497q0 -96 13 -158h-281q-10 41 -10 115q-88 -143 -287 -144q-162 -1 -257 91t-95 220z
" />
    <glyph glyph-name="ae" unicode="&#xe6;" horiz-adv-x="1781" 
d="M1204 803q-98 0 -152 -53t-59 -119h414q-4 70 -54 121q-51 51 -149 51zM381 299q0 -41 34 -71q33 -30 103 -31q70 0 125 47t55 155v45l-200 -30q-117 -18 -117 -115zM1217 -31q-233 0 -379 162q-139 -162 -369 -162q-186 0 -290 90q-103 91 -103 221t84 208t217 100
l246 37q76 10 75 69q0 47 -40 79t-116 32t-124 -44q-47 -44 -53 -106l-269 56q10 127 128 232t337 105t326 -116q143 117 321 117q232 -1 366 -139t134 -384q0 -78 -6 -96h-715q6 -90 73 -144t161 -55q160 1 211 140l258 -78q-41 -139 -165 -231t-308 -93z" />
    <glyph glyph-name="ccedilla" unicode="&#xe7;" horiz-adv-x="1148" 
d="M598 762q-92 0 -159 -68t-67 -186t70 -184q68 -68 160 -68t147 44q54 44 72 108l275 -84q-33 -126 -134 -224t-255 -123l-52 -77q91 -2 145 -52t54 -130q0 -79 -67 -139t-205 -60q-82 0 -152 35t-102 77l96 121q78 -78 156 -78t77 54q0 20 -19 35t-52 15t-56 -7l-75 100
l67 104q-198 31 -328 177t-130 370q0 222 154 374q155 152 368 153q213 -1 340 -103t164 -252l-279 -84q-17 66 -69 109t-144 43z" />
    <glyph glyph-name="egrave" unicode="&#xe8;" horiz-adv-x="1144" 
d="M481 1139l-291 309h355l190 -309h-254zM594 -31q-221 -1 -376 147t-155 391t151 393t373 149t358 -139t136 -384q0 -78 -6 -96h-708q3 -84 71 -140t160 -57q158 1 205 134l260 -74q-39 -141 -162 -233t-307 -91zM580 803q-96 0 -148 -53q-53 -53 -59 -119h407
q-4 70 -54 121t-146 51z" />
    <glyph glyph-name="eacute" unicode="&#xe9;" horiz-adv-x="1144" 
d="M594 -31q-221 -1 -376 147t-155 391t151 393t373 149t358 -139t136 -384q0 -78 -6 -96h-708q3 -84 71 -140t160 -57q158 1 205 134l260 -74q-39 -141 -162 -233t-307 -91zM580 803q-96 0 -148 -53q-53 -53 -59 -119h407q-4 70 -54 121t-146 51zM963 1448l-289 -309h-248
l188 309h349z" />
    <glyph glyph-name="ecircumflex" unicode="&#xea;" horiz-adv-x="1144" 
d="M594 -31q-221 -1 -376 147t-155 391t151 393t373 149t358 -139t136 -384q0 -78 -6 -96h-708q3 -84 71 -140t160 -57q158 1 205 134l260 -74q-39 -141 -162 -233t-307 -91zM580 803q-96 0 -148 -53q-53 -53 -59 -119h407q-4 70 -54 121t-146 51zM432 1139h-231l231 309
h293l233 -309h-237l-146 145z" />
    <glyph glyph-name="edieresis" unicode="&#xeb;" horiz-adv-x="1144" 
d="M594 -31q-221 -1 -376 147t-155 391t151 393t373 149t358 -139t136 -384q0 -78 -6 -96h-708q3 -84 71 -140t160 -57q158 1 205 134l260 -74q-39 -141 -162 -233t-307 -91zM580 803q-96 0 -148 -53q-53 -53 -59 -119h407q-4 70 -54 121t-146 51zM651 1294q0 66 45 112
t111 46t112 -46t46 -112t-46 -110t-112 -45q-66 1 -111 45t-45 110zM199 1294q0 66 45 112q44 46 110 46t112 -46t46 -112t-46 -110t-112 -45q-66 1 -110 45t-45 110z" />
    <glyph glyph-name="igrave" unicode="&#xec;" horiz-adv-x="583" 
d="M182 1139l-291 309h355l190 -309h-254zM449 0h-312v1018h312v-1018z" />
    <glyph glyph-name="iacute" unicode="&#xed;" horiz-adv-x="583" 
d="M449 0h-312v1018h312v-1018zM678 1448l-289 -309h-248l189 309h348z" />
    <glyph glyph-name="icircumflex" unicode="&#xee;" horiz-adv-x="583" 
d="M449 0h-312v1018h312v-1018zM145 1139h-231l231 309h293l234 -309h-238l-145 145z" />
    <glyph glyph-name="idieresis" unicode="&#xef;" horiz-adv-x="583" 
d="M449 0h-312v1018h312v-1018zM340 1294q0 66 45 111t110 45t111 -45t45 -111q0 -66 -46 -110q-45 -44 -111 -45q-66 1 -110 45t-44 110zM-68 1294q0 66 45 111t109 45t112 -45q46 -45 46 -111t-45 -110t-111 -45q-66 1 -111 45t-45 110z" />
    <glyph glyph-name="eth" unicode="&#xf0;" 
d="M601 250q93 0 161 60t68 167t-67 167t-161 60t-162 -60q-68 -62 -68 -166t68 -166t161 -62zM1139 584q1 -258 -139 -436t-400 -179q-227 -1 -382 143t-155 363t152 344t352 125q61 0 123 -18t92 -49q-33 115 -125 213l-284 -109l-70 180l170 68q-98 53 -223 90l94 229
q254 -63 432 -200l238 92l71 -185l-153 -59q207 -250 207 -612z" />
    <glyph glyph-name="ntilde" unicode="&#xf1;" horiz-adv-x="1218" 
d="M995 1446v-41q0 -131 -62 -199t-167 -67q-66 0 -154 45t-116 45q-68 0 -70 -88h-176v47q0 128 64 194t151 66q86 0 167 -46t118 -46q68 0 71 90h174zM449 584v-584h-312v1018h301v-117q39 68 120 106t165 37q182 0 276 -114t95 -291v-639h-312v586q0 80 -42 128t-121 48
t-125 -50t-45 -128z" />
    <glyph glyph-name="ograve" unicode="&#xf2;" horiz-adv-x="1208" 
d="M494 1139l-291 309h354l191 -309h-254zM605 1049q230 0 385 -152q155 -151 155 -387t-155 -388t-385 -153q-230 0 -386 154t-156 387t156 386t386 153zM605 256q95 0 162 66t67 188t-67 188q-67 64 -162 64t-163 -66t-68 -186t68 -188q68 -66 163 -66z" />
    <glyph glyph-name="oacute" unicode="&#xf3;" horiz-adv-x="1208" 
d="M605 1049q230 0 385 -152q155 -151 155 -387t-155 -388t-385 -153q-230 0 -386 154t-156 387t156 386t386 153zM605 256q95 0 162 66t67 188t-67 188q-67 64 -162 64t-163 -66t-68 -186t68 -188q68 -66 163 -66zM991 1448l-289 -309h-247l188 309h348z" />
    <glyph glyph-name="ocircumflex" unicode="&#xf4;" horiz-adv-x="1208" 
d="M605 1049q230 0 385 -152q155 -151 155 -387t-155 -388t-385 -153q-230 0 -386 154t-156 387t156 386t386 153zM605 256q95 0 162 66t67 188t-67 188q-67 64 -162 64t-163 -66t-68 -186t68 -188q68 -66 163 -66zM461 1139h-232l232 309h293l233 -309h-237l-146 145z" />
    <glyph glyph-name="otilde" unicode="&#xf5;" horiz-adv-x="1208" 
d="M981 1446v-41q0 -131 -62 -199t-167 -67q-66 0 -154 45t-117 45q-68 0 -69 -88h-176v47q0 128 64 194t151 66q86 0 167 -46t117 -46q68 0 72 90h174zM605 1049q230 0 385 -152q155 -151 155 -387t-155 -388t-385 -153q-230 0 -386 154t-156 387t156 386t386 153zM605 256
q95 0 162 66t67 188t-67 188q-67 64 -162 64t-163 -66t-68 -186t68 -188q68 -66 163 -66z" />
    <glyph glyph-name="odieresis" unicode="&#xf6;" horiz-adv-x="1208" 
d="M605 1049q230 0 385 -152q155 -151 155 -387t-155 -388t-385 -153q-230 0 -386 154t-156 387t156 386t386 153zM605 256q95 0 162 66t67 188t-67 188q-67 64 -162 64t-163 -66t-68 -186t68 -188q68 -66 163 -66zM674 1294q0 66 45 112t111 46t111 -46q46 -46 46 -112
t-46 -110t-112 -45q-67 1 -111 45t-44 110zM221 1294q0 66 45 112t111 46q65 0 111 -46t46 -112t-46 -110t-112 -45q-66 1 -110 45q-45 44 -45 110z" />
    <glyph glyph-name="divide" unicode="&#xf7;" horiz-adv-x="1222" 
d="M94 483v256h1034v-256h-1034zM430 993q0 72 51 122t123 50t122 -50t50 -122t-51 -123t-122 -51t-122 51t-51 123zM430 231q0 72 51 122t123 50t122 -50t50 -122q0 -73 -51 -123t-122 -50t-122 50q-51 51 -51 123z" />
    <glyph glyph-name="oslash" unicode="&#xf8;" horiz-adv-x="1208" 
d="M604 256q96 0 163 66t67 188q0 55 -17 104l-287 -346q35 -12 74 -12zM375 510q0 -61 20 -117l293 352q-43 16 -84 17q-94 0 -162 -66t-67 -186zM604 1049q154 0 277 -70l110 133l139 -117l-108 -131q123 -146 123 -368t-155 -374t-386 -153q-141 0 -266 66l-105 -127
l-141 117l103 122q-131 152 -131 374t155 375q156 153 385 153z" />
    <glyph glyph-name="ugrave" unicode="&#xf9;" horiz-adv-x="1220" 
d="M530 1139l-290 309h354l190 -309h-254zM514 -23q-180 0 -284 114q-103 114 -103 284v643h311v-578q0 -78 42 -127t121 -49t125 48t46 126v580h311v-836q0 -100 11 -182h-299q-8 37 -9 102q-36 -61 -112 -93t-160 -32z" />
    <glyph glyph-name="uacute" unicode="&#xfa;" horiz-adv-x="1220" 
d="M514 -23q-180 0 -284 114q-103 114 -103 284v643h311v-578q0 -78 42 -127t121 -49t125 48t46 126v580h311v-836q0 -100 11 -182h-299q-8 37 -9 102q-36 -61 -112 -93t-160 -32zM956 1448l-288 -309h-248l188 309h348z" />
    <glyph glyph-name="ucircumflex" unicode="&#xfb;" horiz-adv-x="1220" 
d="M514 -23q-180 0 -284 114q-103 114 -103 284v643h311v-578q0 -78 42 -127t121 -49t125 48t46 126v580h311v-836q0 -100 11 -182h-299q-8 37 -9 102q-36 -61 -112 -93t-160 -32zM463 1139h-232l232 309h293l233 -309h-237l-146 145z" />
    <glyph glyph-name="udieresis" unicode="&#xfc;" horiz-adv-x="1220" 
d="M514 -23q-180 0 -284 114q-103 114 -103 284v643h311v-578q0 -78 42 -127t121 -49t125 48t46 126v580h311v-836q0 -100 11 -182h-299q-8 37 -9 102q-36 -61 -112 -93t-160 -32zM684 1294q0 66 45 112t111 46t112 -46t45 -112q0 -66 -46 -110q-45 -44 -111 -45
q-66 1 -111 45t-45 110zM231 1294q0 66 45 112t111 46t112 -46t46 -112t-46 -110t-112 -45q-66 1 -111 45t-45 110z" />
    <glyph glyph-name="yacute" unicode="&#xfd;" horiz-adv-x="1183" 
d="M961 1448l-289 -309h-248l188 309h349zM537 -391h-328l231 528l-428 881h348l248 -545l226 545h329z" />
    <glyph glyph-name="thorn" unicode="&#xfe;" horiz-adv-x="1273" 
d="M905 510q-1 120 -67 186t-163 66t-164 -66t-67 -186t67 -188q67 -66 164 -66t163 66t67 188zM449 -389h-312v1872h312v-557q39 49 115 83t173 33q217 0 345 -148t128 -382t-136 -384q-136 -151 -339 -151t-286 103v-469z" />
    <glyph glyph-name="ydieresis" unicode="&#xff;" horiz-adv-x="1183" 
d="M668 1294q0 66 45 112t111 46t111 -46q46 -46 46 -112t-46 -110t-112 -45q-67 1 -111 45t-44 110zM215 1294q0 66 45 112t111 46q65 0 111 -46t46 -112t-46 -110t-112 -45q-66 1 -110 45q-45 44 -45 110zM537 -391h-328l231 528l-428 881h348l248 -545l226 545h329z" />
    <glyph glyph-name="Amacron" unicode="&#x100;" horiz-adv-x="1503" 
d="M1065 1579h-637v223h637v-223zM750 1092l-179 -502h353zM1130 0l-104 295h-561l-105 -295h-340l547 1452h375l541 -1452h-353z" />
    <glyph glyph-name="amacron" unicode="&#x101;" horiz-adv-x="1118" 
d="M848 1182h-586v215h586v-215zM383 301q0 -43 30 -73q31 -30 101 -31q70 0 123 47t53 155v45l-192 -30q-115 -18 -115 -113zM76 282q0 128 84 206t217 100l239 37q74 10 74 69q0 47 -40 79t-114 32t-119 -44q-46 -44 -50 -106l-271 56q10 127 126 232t334 105t328 -110
q110 -111 109 -283v-497q0 -96 13 -158h-281q-10 41 -10 115q-88 -143 -287 -144q-162 -1 -257 91t-95 220z" />
    <glyph glyph-name="Abreve" unicode="&#x102;" horiz-adv-x="1503" 
d="M749 1542q-161 0 -250 84t-93 199h231q2 -45 31 -74t81 -29q53 0 81 29t30 74h230q-4 -115 -92 -199t-249 -84zM750 1092l-179 -502h353zM1130 0l-104 295h-561l-105 -295h-340l547 1452h375l541 -1452h-353z" />
    <glyph glyph-name="abreve" unicode="&#x103;" horiz-adv-x="1118" 
d="M544 1128q-161 0 -251 92t-94 228h196q4 -47 41 -81t107 -34q71 0 107 34t40 81h199q-4 -136 -94 -228t-251 -92zM383 301q0 -43 30 -73q31 -30 101 -31q70 0 123 47t53 155v45l-192 -30q-115 -18 -115 -113zM76 282q0 128 84 206t217 100l239 37q74 10 74 69
q0 47 -40 79t-114 32t-119 -44q-46 -44 -50 -106l-271 56q10 127 126 232t334 105t328 -110q110 -111 109 -283v-497q0 -96 13 -158h-281q-10 41 -10 115q-88 -143 -287 -144q-162 -1 -257 91t-95 220z" />
    <glyph glyph-name="Aogonek" unicode="&#x104;" horiz-adv-x="1503" 
d="M1116 -240q0 152 148 240h-134l-104 295h-561l-105 -295h-340l547 1452h375l541 -1452q-63 -31 -109 -82t-47 -100q0 -49 27 -73q28 -24 64 -24t65 5v-172q-43 -16 -109 -17q-114 -1 -186 61t-72 162zM750 1087l-179 -497h353z" />
    <glyph glyph-name="aogonek" unicode="&#x105;" horiz-adv-x="1118" 
d="M639 -240q0 152 147 240h-61q-10 51 -10 115q-88 -143 -287 -144q-162 0 -257 91q-95 92 -95 220t84 206t217 100l239 37q74 10 74 69q0 47 -40 79t-114 32t-119 -44q-46 -44 -50 -106l-271 56q10 127 126 232t334 105t328 -110q110 -111 109 -283v-497q0 -84 13 -158
q-64 -31 -110 -82t-46 -100t27 -73t63 -24t66 5v-172q-43 -16 -109 -17q-115 -1 -187 61t-71 162zM383 301q0 -43 30 -73q31 -30 101 -31q70 0 123 47t53 155v45l-192 -30q-115 -18 -115 -113z" />
    <glyph glyph-name="Cacute" unicode="&#x106;" horiz-adv-x="1581" 
d="M1249 1825l-307 -271h-276l213 271h370zM827 -31q-319 0 -536 210t-217 543t219 547t530 214q156 0 282 -46t204 -122q154 -150 190 -322l-305 -96q-20 88 -96 171q-41 44 -113 72t-162 27q-165 1 -289 -115t-124 -321t122 -321t293 -117q170 0 262 84t121 188l310 -88
q-42 -177 -192 -327q-79 -80 -209 -130t-290 -51z" />
    <glyph glyph-name="cacute" unicode="&#x107;" horiz-adv-x="1148" 
d="M598 762q-92 0 -159 -68t-67 -186t70 -184q68 -68 160 -68t147 44q54 44 72 108l275 -84q-37 -146 -165 -250t-339 -104t-370 152q-159 154 -159 388t155 386t368 153q213 -1 340 -103t164 -252l-279 -84q-17 66 -69 109t-144 43zM987 1448l-289 -309h-247l188 309h348z
" />
    <glyph glyph-name="Ccircumflex" unicode="&#x108;" horiz-adv-x="1581" 
d="M827 -31q-319 0 -536 210t-217 543t219 547t530 214q156 0 282 -46t204 -122q154 -150 190 -322l-305 -96q-20 88 -96 171q-41 44 -113 72t-162 27q-165 1 -289 -115t-124 -321t122 -321t293 -117q170 0 262 84t121 188l310 -88q-42 -177 -192 -327q-79 -80 -209 -130
t-290 -51zM702 1554h-276l250 271h297l254 -271h-289l-119 134z" />
    <glyph glyph-name="ccircumflex" unicode="&#x109;" horiz-adv-x="1148" 
d="M598 762q-92 0 -159 -68t-67 -186t70 -184q68 -68 160 -68t147 44q54 44 72 108l275 -84q-37 -146 -165 -250t-339 -104t-370 152q-159 154 -159 388t155 386t368 153q213 -1 340 -103t164 -252l-279 -84q-17 66 -69 109t-144 43zM455 1139h-232l232 309h293l233 -309
h-238l-145 145z" />
    <glyph glyph-name="Cdotaccent" unicode="&#x10a;" horiz-adv-x="1581" 
d="M641 1741q0 76 52 127t129 51t130 -51q54 -51 54 -127t-54 -127t-130 -51q-77 0 -129 51t-52 127zM827 -31q-319 0 -536 210t-217 543t219 547t530 214q156 0 282 -46t204 -122q154 -150 190 -322l-305 -96q-20 88 -96 171q-41 44 -113 72t-162 27q-165 1 -289 -115
t-124 -321t122 -321t293 -117q170 0 262 84t121 188l310 -88q-42 -177 -192 -327q-79 -80 -209 -130t-290 -51z" />
    <glyph glyph-name="cdotaccent" unicode="&#x10b;" horiz-adv-x="1148" 
d="M416 1300q0 76 52 127t129 51t130 -50q53 -52 53 -127t-53 -125t-130 -52q-77 0 -129 50t-52 126zM598 762q-92 0 -159 -68t-67 -186t70 -184q68 -68 160 -68t147 44q54 44 72 108l275 -84q-37 -146 -165 -250t-339 -104t-370 152q-159 154 -159 388t155 386t368 153
q213 -1 340 -103t164 -252l-279 -84q-17 66 -69 109t-144 43z" />
    <glyph glyph-name="Ccaron" unicode="&#x10c;" horiz-adv-x="1581" 
d="M827 -31q-319 0 -536 210t-217 543t219 547t530 214q156 0 282 -46t204 -122q154 -150 190 -322l-305 -96q-20 88 -96 171q-41 44 -113 72t-162 27q-165 1 -289 -115t-124 -321t122 -321t293 -117q170 0 262 84t121 188l310 -88q-42 -177 -192 -327q-79 -80 -209 -130
t-290 -51zM428 1825h287l119 -133l118 133h277l-252 -271h-297z" />
    <glyph glyph-name="ccaron" unicode="&#x10d;" horiz-adv-x="1148" 
d="M598 762q-92 0 -159 -68t-67 -186t70 -184q68 -68 160 -68t147 44q54 44 72 108l275 -84q-37 -146 -165 -250t-339 -104t-370 152q-159 154 -159 388t155 386t368 153q213 -1 340 -103t164 -252l-279 -84q-17 66 -69 109t-144 43zM209 1448h237l146 -148l143 148h232
l-230 -309h-297z" />
    <glyph glyph-name="Dcaron" unicode="&#x10e;" horiz-adv-x="1486" 
d="M682 0h-524v1452h526q330 0 530 -197t199 -531q1 -334 -199 -528q-200 -196 -532 -196zM481 305h189q178 1 292 107t114 314t-114 314t-292 107h-189v-842zM328 1825h286l119 -133l119 133h276l-251 -271h-297z" />
    <glyph glyph-name="dcaron" unicode="&#x10f;" horiz-adv-x="1566" 
d="M377 510q1 -122 67 -188t162 -66t163 67t67 187t-67 186t-163 66t-162 -66t-67 -186zM1139 1483v-1301q0 -92 8 -182h-299q-8 49 -8 98q-37 -53 -110 -87t-163 -34q-217 0 -360 151t-143 382t138 382q140 150 352 150t277 -104v545h308zM1575 1483l-154 -424h-202l59 424
h297z" />
    <glyph glyph-name="Dcroat" unicode="&#x110;" horiz-adv-x="1554" 
d="M547 305h188q178 1 292 107t114 314t-114 314t-292 107h-188v-285h295v-227h-295v-330zM748 0h-525v635h-192v227h192v590h527q330 0 530 -197t199 -531q1 -334 -199 -528q-200 -196 -532 -196z" />
    <glyph glyph-name="dcroat" unicode="&#x111;" horiz-adv-x="1308" 
d="M377 510q1 -122 67 -188t162 -66t163 67t67 187t-67 186t-163 66t-162 -66t-67 -186zM1139 1483v-144h141v-215h-141v-942q0 -92 8 -182h-299q-8 49 -8 98q-37 -53 -110 -87t-163 -34q-217 0 -360 151t-143 382t138 382q140 150 352 150t277 -104v186h-221v215h221v144
h308z" />
    <glyph glyph-name="Emacron" unicode="&#x112;" horiz-adv-x="1193" 
d="M936 1579h-637v223h637v-223zM1079 0h-921v1452h919v-305h-596v-277h541v-284h-541v-279h598v-307z" />
    <glyph glyph-name="emacron" unicode="&#x113;" horiz-adv-x="1144" 
d="M870 1182h-585v215h585v-215zM594 -31q-221 -1 -376 147t-155 391t151 393t373 149t358 -139t136 -384q0 -78 -6 -96h-708q3 -84 71 -140t160 -57q158 1 205 134l260 -74q-39 -141 -162 -233t-307 -91zM580 803q-96 0 -148 -53q-53 -53 -59 -119h407q-4 70 -54 121
t-146 51z" />
    <glyph glyph-name="Ebreve" unicode="&#x114;" horiz-adv-x="1193" 
d="M609 1542q-161 0 -250 84t-93 199h232q2 -45 30 -74t81 -29q52 0 81 29t31 74h229q-4 -115 -92 -199t-249 -84zM1079 0h-921v1452h919v-305h-596v-277h541v-284h-541v-279h598v-307z" />
    <glyph glyph-name="ebreve" unicode="&#x115;" horiz-adv-x="1144" 
d="M576 1128q-160 0 -250 92t-95 228h197q4 -47 41 -81t107 -34t106 34q37 34 41 81h199q-4 -136 -94 -228t-252 -92zM594 -31q-221 -1 -376 147t-155 391t151 393t373 149t358 -139t136 -384q0 -78 -6 -96h-708q3 -84 71 -140t160 -57q158 1 205 134l260 -74
q-39 -141 -162 -233t-307 -91zM580 803q-96 0 -148 -53q-53 -53 -59 -119h407q-4 70 -54 121t-146 51z" />
    <glyph glyph-name="Edotaccent" unicode="&#x116;" horiz-adv-x="1193" 
d="M1079 0h-921v1452h919v-305h-596v-277h541v-284h-541v-279h598v-307zM432 1722q0 76 52 127t129 51t130 -50q53 -52 53 -128t-52 -127q-54 -51 -131 -51t-129 51t-52 127z" />
    <glyph glyph-name="edotaccent" unicode="&#x117;" horiz-adv-x="1144" 
d="M399 1296q1 76 53 127t129 51t130 -50q53 -52 53 -127t-53 -126t-130 -51t-129 50t-53 126zM594 -31q-221 -1 -376 147t-155 391t151 393t373 149t358 -139t136 -384q0 -78 -6 -96h-708q3 -84 71 -140t160 -57q158 1 205 134l260 -74q-39 -141 -162 -233t-307 -91z
M580 803q-96 0 -148 -53q-53 -53 -59 -119h407q-4 70 -54 121t-146 51z" />
    <glyph glyph-name="Eogonek" unicode="&#x118;" horiz-adv-x="1193" 
d="M713 -240q0 152 147 240h-702v1452h919v-305h-596v-277h541v-284h-541v-279h598v-307q-63 -31 -109 -82t-46 -100t26 -73t64 -24q37 0 65 5v-172q-43 -16 -108 -17q-115 -1 -187 61t-71 162z" />
    <glyph glyph-name="eogonek" unicode="&#x119;" horiz-adv-x="1144" 
d="M580 803q-96 0 -148 -53q-53 -53 -59 -119h407q-4 70 -54 121t-146 51zM629 -175q1 -52 27 -78t62 -26t66 5v-172q-43 -16 -108 -17q-115 -1 -187 61t-71 162q0 135 108 213q-198 23 -330 167t-132 377t150 383q151 150 373 149t358 -139t136 -384q0 -78 -6 -96h-708
q3 -84 71 -140t160 -57q158 1 205 134l260 -74q-61 -215 -279 -293q-63 -23 -109 -73t-46 -102z" />
    <glyph glyph-name="Ecaron" unicode="&#x11a;" horiz-adv-x="1193" 
d="M1079 0h-921v1452h919v-305h-596v-277h541v-284h-541v-279h598v-307zM215 1825h287l119 -133l118 133h277l-252 -271h-297z" />
    <glyph glyph-name="ecaron" unicode="&#x11b;" horiz-adv-x="1144" 
d="M594 -31q-221 -1 -376 147t-155 391t151 393t373 149t358 -139t136 -384q0 -78 -6 -96h-708q3 -84 71 -140t160 -57q158 1 205 134l260 -74q-39 -141 -162 -233t-307 -91zM580 803q-96 0 -148 -53q-53 -53 -59 -119h407q-4 70 -54 121t-146 51zM195 1448h237l146 -148
l143 148h231l-229 -309h-297z" />
    <glyph glyph-name="Gcircumflex" unicode="&#x11c;" horiz-adv-x="1613" 
d="M1499 0h-262l-20 147q-53 -76 -157 -127t-251 -51q-311 0 -523 210t-212 545t220 547t519 212t465 -133t223 -316l-311 -108q-23 92 -112 173t-253 81t-294 -116t-130 -336t125 -342q124 -122 298 -122t264 77t108 161h-436v274h739v-776zM700 1554h-276l250 271h297
l254 -271h-289l-119 134z" />
    <glyph glyph-name="gcircumflex" unicode="&#x11d;" horiz-adv-x="1243" 
d="M596 313q96 -1 156 61t61 164q0 102 -63 163q-64 63 -154 63t-155 -62t-65 -164q0 -101 62 -163t158 -62zM811 111v47q-75 -115 -275 -115t-335 141q-135 140 -135 350t134 356t339 146q113 0 185 -39t97 -88v109h297v-891q0 -239 -137 -393t-408 -154q-209 0 -347 108
q-137 108 -160 255l274 77q16 -76 74 -122t145 -48q252 0 252 261zM465 1139h-232l232 309h293l233 -309h-237l-146 145z" />
    <glyph glyph-name="Gbreve" unicode="&#x11e;" horiz-adv-x="1613" 
d="M1499 0h-262l-20 147q-53 -76 -157 -127t-251 -51q-311 0 -523 210t-212 545t220 547t519 212t465 -133t223 -316l-311 -108q-23 92 -112 173t-253 81t-294 -116t-130 -336t125 -342q124 -122 298 -122t264 77t108 161h-436v274h739v-776zM824 1542q-161 0 -250 84
t-93 199h232q3 -45 31 -74t80 -29t81 29t31 74h229q-4 -115 -92 -199t-249 -84z" />
    <glyph glyph-name="gbreve" unicode="&#x11f;" horiz-adv-x="1243" 
d="M597 1128q-161 0 -251 92t-94 228h197q5 -47 41 -81t106 -34t106 34t41 81h199q-4 -136 -94 -228t-251 -92zM596 313q96 -1 156 61t61 164q0 102 -63 163q-64 63 -154 63t-155 -62t-65 -164q0 -101 62 -163t158 -62zM811 111v47q-75 -115 -275 -115t-335 141
q-135 140 -135 350t134 356t339 146q113 0 185 -39t97 -88v109h297v-891q0 -239 -137 -393t-408 -154q-209 0 -347 108q-137 108 -160 255l274 77q16 -76 74 -122t145 -48q252 0 252 261z" />
    <glyph glyph-name="Gdotaccent" unicode="&#x120;" horiz-adv-x="1613" 
d="M1499 0h-262l-20 147q-53 -76 -157 -127t-251 -51q-311 0 -523 210t-212 545t220 547t519 212t465 -133t223 -316l-311 -108q-23 92 -112 173t-253 81t-294 -116t-130 -336t125 -342q124 -122 298 -122t264 77t108 161h-436v274h739v-776zM643 1733q0 76 52 127t129 51
t130 -51q54 -51 54 -127t-54 -127q-54 -52 -130 -52q-77 0 -129 52t-52 127z" />
    <glyph glyph-name="gdotaccent" unicode="&#x121;" horiz-adv-x="1243" 
d="M401 1296q1 76 53 127t129 51t130 -50q53 -52 53 -127t-53 -126t-130 -51t-129 50t-53 126zM596 313q96 -1 156 61t61 164q0 102 -63 163q-64 63 -154 63t-155 -62t-65 -164q0 -101 62 -163t158 -62zM811 111v47q-75 -115 -275 -115t-335 141q-135 140 -135 350t134 356
t339 146q113 0 185 -39t97 -88v109h297v-891q0 -239 -137 -393t-408 -154q-209 0 -347 108q-137 108 -160 255l274 77q16 -76 74 -122t145 -48q252 0 252 261z" />
    <glyph glyph-name="Gcommaaccent" unicode="&#x122;" horiz-adv-x="1613" 
d="M1499 0h-262l-20 147q-53 -76 -157 -127t-251 -51q-311 0 -523 210t-212 545t220 547t519 212t465 -133t223 -316l-311 -108q-23 92 -112 173t-253 81t-294 -116t-130 -336t125 -342q124 -122 298 -122t264 77t108 161h-436v274h739v-776zM668 -223q0 59 45 100t121 41
t128 -55t52 -133q0 -156 -94 -218q-94 -61 -199 -61q-12 0 -25 2v107q170 0 181 94q-29 -14 -81 -14t-90 39t-38 98z" />
    <glyph glyph-name="gcommaaccent" unicode="&#x123;" horiz-adv-x="1243" 
d="M596 313q96 -1 156 61t61 164q0 102 -63 163q-64 63 -154 63t-155 -62t-65 -164q0 -101 62 -163t158 -62zM811 111v47q-75 -115 -275 -115t-335 141q-135 140 -135 350t134 356t339 146q113 0 185 -39t97 -88v109h297v-891q0 -239 -137 -393t-408 -154q-209 0 -347 108
q-137 108 -160 255l274 77q16 -76 74 -122t145 -48q252 0 252 261zM752 1257q0 -59 -45 -100t-121 -41t-128 54t-52 135q0 139 95 207t206 67h16v-104q-80 0 -127 -28t-53 -65q29 14 81 14t90 -40t38 -99z" />
    <glyph glyph-name="Hcircumflex" unicode="&#x124;" horiz-adv-x="1542" 
d="M647 1554h-276l250 271h297l253 -271h-288l-119 134zM1386 0h-325v578h-580v-578h-323v1452h323v-569h580v569h325v-1452z" />
    <glyph glyph-name="hcircumflex" unicode="&#x125;" horiz-adv-x="1218" 
d="M449 0h-312v1483h312v-531q92 92 271 92t276 -114t98 -291v-639h-312v586q0 80 -42 128t-119 48t-123 -46t-49 -118v-598zM502 1575h-277l250 270h297l254 -270h-289l-119 133z" />
    <glyph glyph-name="Hbar" unicode="&#x126;" horiz-adv-x="1583" 
d="M500 879h579v182h-579v-182zM1405 0h-326v578h-579v-578h-324v1061h-141v190h141v201h324v-201h579v201h326v-201h143v-190h-143v-1061z" />
    <glyph glyph-name="hbar" unicode="&#x127;" horiz-adv-x="1265" 
d="M496 0h-312v1124h-157v215h157v144h312v-144h219v-215h-219v-172q92 92 271 92t276 -114t98 -291v-639h-312v586q0 80 -42 128q-43 48 -119 48t-122 -46t-50 -118v-598z" />
    <glyph glyph-name="Itilde" unicode="&#x128;" horiz-adv-x="641" 
d="M682 1833v-70q0 -105 -61 -165t-145 -60t-165 49t-107 49q-54 0 -57 -59v-27h-178v68q-1 106 61 164t145 57q83 0 166 -47t108 -47q55 0 55 59v29h178zM485 0h-327v1452h327v-1452z" />
    <glyph glyph-name="itilde" unicode="&#x129;" horiz-adv-x="583" 
d="M662 1446v-41q0 -131 -62 -199t-168 -67q-66 0 -154 45t-116 45q-68 0 -70 -88h-176v47q0 128 65 194t151 66t166 -46q81 -46 118 -46q68 0 71 90h175zM449 0h-312v1018h312v-1018z" />
    <glyph glyph-name="Imacron" unicode="&#x12a;" horiz-adv-x="641" 
d="M641 1579h-637v223h637v-223zM485 0h-327v1452h327v-1452z" />
    <glyph glyph-name="imacron" unicode="&#x12b;" horiz-adv-x="583" 
d="M586 1182h-586v215h586v-215zM449 0h-312v1018h312v-1018z" />
    <glyph glyph-name="Ibreve" unicode="&#x12c;" horiz-adv-x="641" 
d="M320 1542q-162 0 -250 84t-93 199h232q2 -45 31 -74q28 -29 80 -29t81 29t31 74h230q-4 -115 -92 -199t-250 -84zM485 0h-327v1452h327v-1452z" />
    <glyph glyph-name="ibreve" unicode="&#x12d;" horiz-adv-x="583" 
d="M292 1128q-161 0 -251 92t-94 228h196q4 -47 41 -81t107 -34q71 0 107 34t40 81h199q-4 -136 -94 -228t-251 -92zM449 0h-312v1018h312v-1018z" />
    <glyph glyph-name="Iogonek" unicode="&#x12e;" horiz-adv-x="641" 
d="M119 -240q0 152 147 240h-108v1452h327v-1452q-63 -31 -109 -82t-46 -100t26 -73t64 -24q37 0 65 5v-172q-43 -16 -108 -17q-115 -1 -187 61t-71 162z" />
    <glyph glyph-name="iogonek" unicode="&#x12f;" horiz-adv-x="583" 
d="M82 -240q0 152 147 240h-92v1018h312v-1018q-63 -31 -109 -82t-47 -100q1 -49 27 -73t63 -24t66 5v-172q-43 -16 -109 -17q-114 -1 -186 61t-72 162zM111 1329q0 76 53 129t128 53t129 -53t54 -129t-54 -129t-129 -53t-128 53t-53 129z" />
    <glyph glyph-name="Idotaccent" unicode="&#x130;" horiz-adv-x="641" 
d="M139 1722q0 76 52 127q51 51 129 51t131 -50q53 -52 53 -128t-53 -127t-130 -51t-130 51q-52 51 -52 127zM485 0h-327v1452h327v-1452z" />
    <glyph glyph-name="dotlessi" unicode="&#x131;" horiz-adv-x="583" 
d="M449 0h-312v1018h312v-1018z" />
    <glyph glyph-name="IJ" unicode="&#x132;" horiz-adv-x="1280" 
d="M473 465q0 -92 46 -140q46 -49 123 -49t122 52t45 135v989h326v-997q1 -203 -139 -344t-355 -141t-355 132t-141 347l328 51v-35zM473 641h-328v811h328v-811z" />
    <glyph glyph-name="ij" unicode="&#x133;" horiz-adv-x="1161" 
d="M688 1329q0 76 53 129t129 53t129 -53t53 -129t-54 -129t-129 -53t-128 53t-53 129zM715 -41v1059h311v-1092q0 -156 -91 -251t-245 -95q-104 0 -172 29v258q43 -12 92 -12q105 0 105 104zM111 1329q0 76 53 129t128 53t129 -53t54 -129t-54 -129t-129 -53t-128 53
t-53 129zM449 0h-312v1018h312v-1018z" />
    <glyph glyph-name="Jcircumflex" unicode="&#x134;" horiz-adv-x="1163" 
d="M41 449v96l307 53v-133q0 -92 50 -140q50 -49 127 -49t123 52t46 135v989h324v-997q0 -203 -139 -344t-355 -141t-349 132q-134 132 -134 347zM733 1554h-276l250 271h297l253 -271h-288l-119 134z" />
    <glyph glyph-name="jcircumflex" unicode="&#x135;" horiz-adv-x="585" 
d="M137 -41v1059h312v-1092q1 -156 -91 -251t-245 -95q-111 0 -172 27v262q43 -14 92 -14q104 0 104 104zM139 1139h-231l231 309h293l234 -309h-238l-145 145z" />
    <glyph glyph-name="Kcommaaccent" unicode="&#x136;" horiz-adv-x="1460" 
d="M592 -213q0 59 45 100t121 41t128 -55t52 -133q0 -155 -93 -216t-200 -63q-12 0 -24 2v107q170 0 180 94q-29 -14 -81 -14t-90 39t-38 98zM481 0h-323v1452h323v-610l531 610h426l-566 -629l568 -823h-404l-391 571l-164 -182v-389z" />
    <glyph glyph-name="kcommaaccent" unicode="&#x137;" horiz-adv-x="1179" 
d="M475 -223q0 59 45 100t121 41t128 -55t52 -133q0 -157 -93 -218t-200 -61q-12 0 -24 2v107q170 0 180 94q-29 -14 -81 -14t-90 39t-38 98zM449 0h-312v1483h312v-807l309 342h403l-397 -428l405 -590h-381l-239 358l-100 -108v-250z" />
    <glyph glyph-name="kgreenlandic" unicode="&#x138;" horiz-adv-x="1179" 
d="M449 0h-312v1020h312v-344l309 342h403l-397 -428l405 -590h-381l-239 358l-100 -108v-250z" />
    <glyph glyph-name="Lacute" unicode="&#x139;" horiz-adv-x="1159" 
d="M1108 0h-950v1452h323v-1143h627v-309zM776 1825l-307 -271h-276l213 271h370z" />
    <glyph glyph-name="lacute" unicode="&#x13a;" horiz-adv-x="585" 
d="M449 0h-312v1483h312v-1483zM719 1845l-307 -270h-277l213 270h371z" />
    <glyph glyph-name="Lcommaaccent" unicode="&#x13b;" horiz-adv-x="1159" 
d="M467 -223q0 59 45 100t121 41t128 -55t52 -133q0 -213 -195 -266q-46 -13 -78 -13t-44 2v107q170 0 180 94q-30 -14 -82 -14t-90 39t-37 98zM1108 0h-950v1452h323v-1143h627v-309z" />
    <glyph glyph-name="lcommaaccent" unicode="&#x13c;" horiz-adv-x="585" 
d="M117 -223q0 59 45 100t121 41t128 -55t52 -133q0 -156 -94 -218q-94 -61 -199 -61q-12 0 -25 2v107q170 0 181 94q-30 -14 -82 -14t-90 39t-37 98zM449 0h-312v1483h312v-1483z" />
    <glyph glyph-name="Lcaron" unicode="&#x13d;" horiz-adv-x="1159" 
d="M1108 0h-950v1452h323v-1143h627v-309zM1022 1556l-162 -444h-213l64 444h311z" />
    <glyph glyph-name="lcaron" unicode="&#x13e;" horiz-adv-x="880" 
d="M449 0h-312v1483h312v-1483zM891 1483l-154 -424h-202l59 424h297z" />
    <glyph glyph-name="Ldot" unicode="&#x13f;" horiz-adv-x="1159" 
d="M1108 0h-950v1452h323v-1143h627v-309zM635 860q0 72 50 121t122 49t122 -49t50 -121t-49 -120t-122 -48t-123 48t-50 120z" />
    <glyph glyph-name="ldot" unicode="&#x140;" horiz-adv-x="956" 
d="M543 692q0 76 52 127t129 51t130 -51t53 -126t-53 -126t-130 -51t-129 50t-52 126zM449 0h-312v1483h312v-1483z" />
    <glyph glyph-name="Lslash" unicode="&#x141;" horiz-adv-x="1216" 
d="M1165 0h-950v500l-186 -86v252l186 86v700h324v-551l329 152v-250l-329 -154v-340h626v-309z" />
    <glyph glyph-name="lslash" unicode="&#x142;" horiz-adv-x="710" 
d="M510 0h-311v512l-170 -78v252l170 78v719h311v-576l172 80v-250l-172 -80v-657z" />
    <glyph glyph-name="Nacute" unicode="&#x143;" horiz-adv-x="1574" 
d="M1419 0h-342l-598 954v-954h-321v1452h393l545 -883v883h323v-1452zM1157 1825l-307 -271h-277l213 271h371z" />
    <glyph glyph-name="nacute" unicode="&#x144;" horiz-adv-x="1218" 
d="M449 584v-584h-312v1018h301v-117q39 68 120 106t165 37q182 0 276 -114t95 -291v-639h-312v586q0 80 -42 128t-121 48t-125 -50t-45 -128zM954 1448l-288 -309h-248l188 309h348z" />
    <glyph glyph-name="Ncommaaccent" unicode="&#x145;" horiz-adv-x="1574" 
d="M1419 0h-342l-598 954v-954h-321v1452h393l545 -883v883h323v-1452zM666 -223q0 59 45 100t121 41t127 -55q53 -55 53 -133t-28 -136t-74 -87q-86 -56 -191 -56q-12 0 -25 2v107q170 0 180 94q-29 -14 -81 -14t-90 38q-37 40 -37 99z" />
    <glyph glyph-name="ncommaaccent" unicode="&#x146;" horiz-adv-x="1218" 
d="M449 584v-584h-312v1018h301v-117q39 68 120 106t165 37q182 0 276 -114t95 -291v-639h-312v586q0 80 -42 128t-121 48t-125 -50t-45 -128zM455 -215q0 59 45 100q44 41 120 41t128 -55t53 -133q0 -155 -102 -222q-84 -55 -191 -57q-12 0 -25 2v107q170 0 181 94
q-30 -14 -82 -14t-90 39t-37 98z" />
    <glyph glyph-name="Ncaron" unicode="&#x147;" horiz-adv-x="1574" 
d="M1419 0h-342l-598 954v-954h-321v1452h393l545 -883v883h323v-1452zM379 1825h287l118 -133l119 133h277l-252 -271h-297z" />
    <glyph glyph-name="ncaron" unicode="&#x148;" horiz-adv-x="1218" 
d="M449 584v-584h-312v1018h301v-117q39 68 120 106t165 37q182 0 276 -114t95 -291v-639h-312v586q0 80 -42 128t-121 48t-125 -50t-45 -128zM221 1448h238l145 -148l144 148h231l-229 -309h-297z" />
    <glyph glyph-name="napostrophe" unicode="&#x149;" horiz-adv-x="1218" 
d="M449 584v-584h-312v1018h301v-117q39 68 120 106t165 37q182 0 276 -114t95 -291v-639h-312v586q0 80 -42 128t-121 48t-125 -50t-45 -128zM109 1418q0 60 45 102q46 42 122 43t127 -55t51 -137t-28 -139q-29 -58 -78 -86q-87 -50 -194 -50h-17v106q170 0 180 92
q0 -5 -22 -10q-22 -4 -41 -4q-70 0 -108 39q-37 39 -37 99z" />
    <glyph glyph-name="Eng" unicode="&#x14a;" horiz-adv-x="1574" 
d="M479 0h-321v1452h393l545 -874v874h323v-1518q0 -158 -99 -255q-98 -97 -244 -97t-204 29v264q55 -12 107 -12q117 0 117 102v17l-617 972v-954z" />
    <glyph glyph-name="eng" unicode="&#x14b;" horiz-adv-x="1218" 
d="M782 -31v617q0 80 -42 128t-121 48t-125 -50t-45 -128v-584h-312v1018h301v-117q39 68 120 106t165 37q182 0 276 -114t95 -291v-705q0 -154 -96 -250t-241 -96q-144 0 -186 29v256q49 -12 99 -12q112 -1 112 108z" />
    <glyph glyph-name="Omacron" unicode="&#x14c;" horiz-adv-x="1656" 
d="M74 726q0 337 220 547t535 210t535 -211t219 -547q0 -336 -219 -546q-218 -210 -534 -210t-536 210t-220 547zM410 727q0 -213 126 -326t294 -113t292 114q125 112 125 325t-125 327t-293 114q-167 0 -293 -114t-126 -327zM1186 1579h-711v223h711v-223z" />
    <glyph glyph-name="omacron" unicode="&#x14d;" horiz-adv-x="1208" 
d="M605 1049q230 0 385 -152q155 -151 155 -387t-155 -388t-385 -153q-230 0 -386 154t-156 387t156 386t386 153zM605 256q95 0 162 66t67 188t-67 188q-67 64 -162 64t-163 -66t-68 -186t68 -188q68 -66 163 -66zM897 1182h-586v215h586v-215z" />
    <glyph glyph-name="Obreve" unicode="&#x14e;" horiz-adv-x="1656" 
d="M74 726q0 337 220 547t535 210t535 -211t219 -547q0 -336 -219 -546q-218 -210 -534 -210t-536 210t-220 547zM410 727q0 -213 126 -326t294 -113t292 114q125 112 125 325t-125 327t-293 114q-167 0 -293 -114t-126 -327zM830 1542q-162 0 -250 84t-93 199h232
q2 -45 31 -74q28 -29 80 -29t81 29t31 74h229q-4 -115 -92 -199t-249 -84z" />
    <glyph glyph-name="obreve" unicode="&#x14f;" horiz-adv-x="1208" 
d="M605 1128q-161 0 -251 92t-94 228h197q4 -47 41 -81q36 -34 106 -34t107 34t41 81h198q-4 -136 -94 -228t-251 -92zM605 1049q230 0 385 -152q155 -151 155 -387t-155 -388t-385 -153q-230 0 -386 154t-156 387t156 386t386 153zM605 256q95 0 162 66t67 188t-67 188
q-67 64 -162 64t-163 -66t-68 -186t68 -188q68 -66 163 -66z" />
    <glyph glyph-name="Ohungarumlaut" unicode="&#x150;" horiz-adv-x="1656" 
d="M74 726q0 337 220 547t535 210t535 -211t219 -547q0 -336 -219 -546q-218 -210 -534 -210t-536 210t-220 547zM410 727q0 -213 126 -326t294 -113t292 114q125 112 125 325t-125 327t-293 114q-167 0 -293 -114t-126 -327zM1296 1825l-225 -271h-197l134 271h288z
M926 1825l-191 -271h-192l98 271h285z" />
    <glyph glyph-name="ohungarumlaut" unicode="&#x151;" horiz-adv-x="1208" 
d="M605 1049q230 0 385 -152q155 -151 155 -387t-155 -388t-385 -153q-230 0 -386 154t-156 387t156 386t386 153zM605 256q95 0 162 66t67 188t-67 188q-67 64 -162 64t-163 -66t-68 -186t68 -188q68 -66 163 -66zM1085 1448l-241 -309h-193l144 309h290zM731 1448
l-209 -309h-188l108 309h289z" />
    <glyph glyph-name="OE" unicode="&#x152;" horiz-adv-x="2285" 
d="M2171 0h-924v123q-154 -154 -418 -154q-315 0 -535 210t-220 547t220 547t535 210q268 0 418 -154v123h922v-305h-596v-277h541v-284h-541v-279h598v-307zM410 727q0 -213 126 -326t294 -113t292 114q125 112 125 325t-125 327t-293 114q-167 0 -293 -114t-126 -327z" />
    <glyph glyph-name="oe" unicode="&#x153;" horiz-adv-x="1918" 
d="M604 1049q229 0 383 -150q145 150 371 150q226 -1 362 -139t135 -384q0 -78 -6 -96h-708q3 -84 71 -140t160 -57q158 0 205 134l260 -74q-39 -141 -162 -233t-307 -91q-229 0 -381 152q-156 -152 -384 -152t-384 154t-156 387t156 386t385 153zM605 256q95 0 162 66
t67 188t-67 188q-67 64 -162 64t-163 -66t-68 -186t68 -188q68 -66 163 -66zM1355 803q-95 0 -149 -53t-59 -119h407q-4 70 -54 121t-145 51z" />
    <glyph glyph-name="Racute" unicode="&#x154;" horiz-adv-x="1286" 
d="M481 819h191q98 0 151 48t53 129t-52 128q-54 47 -152 47h-191v-352zM481 541v-541h-323v1452h575q211 0 341 -129t130 -326q0 -147 -76 -255t-210 -154l294 -588h-356l-260 541h-115zM1020 1825l-307 -271h-277l213 271h371z" />
    <glyph glyph-name="racute" unicode="&#x155;" horiz-adv-x="825" 
d="M686 721q-104 0 -171 -68t-66 -209v-444h-312v1018h301v-137q37 79 113 113t137 34t96 -10v-307q-43 10 -98 10zM737 1448l-288 -309h-248l188 309h348z" />
    <glyph glyph-name="Rcommaaccent" unicode="&#x156;" horiz-adv-x="1286" 
d="M512 -213q0 59 45 100t121 41t128 -55t52 -133q0 -155 -93 -216t-200 -63q-12 0 -24 2v107q170 0 180 94q-29 -14 -81 -14t-90 39t-38 98zM481 819h191q98 0 151 48t53 129t-52 128q-54 47 -152 47h-191v-352zM481 541v-541h-323v1452h575q211 0 341 -129t130 -326
q0 -147 -76 -255t-210 -154l294 -588h-356l-260 541h-115z" />
    <glyph glyph-name="rcommaaccent" unicode="&#x157;" horiz-adv-x="825" 
d="M123 -223q0 59 45 100t121 41t128 -55t52 -133q0 -213 -195 -266q-46 -13 -78 -13t-44 2v107q170 0 180 94q-30 -14 -82 -14t-90 39t-37 98zM686 721q-104 0 -171 -68t-66 -209v-444h-312v1018h301v-137q37 79 113 113t137 34t96 -10v-307q-43 10 -98 10z" />
    <glyph glyph-name="Rcaron" unicode="&#x158;" horiz-adv-x="1286" 
d="M481 819h191q98 0 151 48t53 129t-52 128q-54 47 -152 47h-191v-352zM481 541v-541h-323v1452h575q211 0 341 -129t130 -326q0 -147 -76 -255t-210 -154l294 -588h-356l-260 541h-115zM244 1825h286l119 -133l119 133h276l-251 -271h-297z" />
    <glyph glyph-name="rcaron" unicode="&#x159;" horiz-adv-x="825" 
d="M686 721q-104 0 -171 -68t-66 -209v-444h-312v1018h301v-137q37 79 113 113t137 34t96 -10v-307q-43 10 -98 10zM55 1448h238l145 -148l144 148h231l-229 -309h-297z" />
    <glyph glyph-name="Sacute" unicode="&#x15a;" horiz-adv-x="1247" 
d="M640 1196q-102 0 -158 -46t-56 -110q0 -113 143 -139l195 -37q200 -36 310 -156t110 -291t-146 -309t-405 -138q-260 0 -411 142t-169 322l297 72q10 -110 85 -180t216 -70q94 0 150 42q55 42 55 104q0 122 -156 151l-198 37q-184 35 -290 149q-105 115 -106 277
q0 201 154 334t367 133q349 0 484 -254q34 -63 46 -133l-291 -82q-10 68 -67 125t-159 57zM1065 1825l-307 -271h-277l213 271h371z" />
    <glyph glyph-name="sacute" unicode="&#x15b;" horiz-adv-x="954" 
d="M468 199q66 -1 97 25t31 63q0 61 -100 84l-117 26q-303 64 -303 327q0 128 111 226t295 98t283 -94q99 -96 109 -209l-258 -47q-6 55 -42 90t-92 35q-56 -1 -89 -25t-33 -63q0 -61 80 -76l135 -26q154 -31 234 -117t80 -215q-1 -129 -107 -230t-299 -102q-298 0 -402 221
q-24 52 -28 99l264 47q4 -57 44 -97q41 -40 107 -40zM870 1448l-288 -309h-248l188 309h348z" />
    <glyph glyph-name="Scircumflex" unicode="&#x15c;" horiz-adv-x="1247" 
d="M640 1196q-102 0 -158 -46t-56 -110q0 -113 143 -139l195 -37q200 -36 310 -156t110 -291t-146 -309t-405 -138q-260 0 -411 142t-169 322l297 72q10 -110 85 -180t216 -70q94 0 150 42q55 42 55 104q0 122 -156 151l-198 37q-184 35 -290 149q-105 115 -106 277
q0 201 154 334t367 133q349 0 484 -254q34 -63 46 -133l-291 -82q-10 68 -67 125t-159 57zM530 1554h-276l250 271h297l254 -271h-289l-119 134z" />
    <glyph glyph-name="scircumflex" unicode="&#x15d;" horiz-adv-x="954" 
d="M468 199q66 -1 97 25t31 63q0 61 -100 84l-117 26q-303 64 -303 327q0 128 111 226t295 98t283 -94q99 -96 109 -209l-258 -47q-6 55 -42 90t-92 35q-56 -1 -89 -25t-33 -63q0 -61 80 -76l135 -26q154 -31 234 -117t80 -215q-1 -129 -107 -230t-299 -102q-298 0 -402 221
q-24 52 -28 99l264 47q4 -57 44 -97q41 -40 107 -40zM348 1139h-231l231 309h293l233 -309h-237l-145 145z" />
    <glyph glyph-name="Scedilla" unicode="&#x15e;" horiz-adv-x="1247" 
d="M651 256q94 0 150 42q55 42 55 104q0 122 -156 151l-198 37q-184 35 -290 149q-105 115 -106 277q0 201 154 334t367 133q349 0 484 -254q34 -63 46 -133l-291 -82q-10 68 -67 125t-159 57t-158 -46t-56 -110q0 -113 143 -139l195 -37q200 -36 310 -156t110 -282
t-118 -293t-323 -158l-49 -75q90 -2 144 -52t55 -130q0 -79 -67 -139t-205 -60q-82 0 -152 35t-102 77l96 121q77 -78 155 -78t78 54q0 20 -19 35t-52 15t-56 -7l-75 100l65 102q-237 25 -363 161t-143 300l297 72q10 -110 85 -180t216 -70z" />
    <glyph glyph-name="scedilla" unicode="&#x15f;" horiz-adv-x="954" 
d="M468 199q66 -1 97 25t31 63q0 61 -100 84l-117 26q-303 64 -303 327q0 128 111 226t295 98t283 -94q99 -96 109 -209l-258 -47q-6 55 -42 90t-92 35q-56 -1 -89 -25t-33 -63q0 -61 80 -76l135 -26q154 -31 234 -117t80 -206t-81 -215t-228 -118l-52 -77q90 -2 144 -52
t55 -130q0 -79 -67 -139t-205 -60q-82 0 -152 35t-102 77l96 121q78 -78 156 -78t77 54q0 20 -19 35t-52 15t-56 -7l-75 100l67 104q-168 23 -252 119t-90 195l264 47q4 -57 44 -97q41 -40 107 -40z" />
    <glyph glyph-name="Scaron" unicode="&#x160;" horiz-adv-x="1247" 
d="M640 1196q-102 0 -158 -46t-56 -110q0 -113 143 -139l195 -37q200 -36 310 -156t110 -291t-146 -309t-405 -138q-260 0 -411 142t-169 322l297 72q10 -110 85 -180t216 -70q94 0 150 42q55 42 55 104q0 122 -156 151l-198 37q-184 35 -290 149q-105 115 -106 277
q0 201 154 334t367 133q349 0 484 -254q34 -63 46 -133l-291 -82q-10 68 -67 125t-159 57zM238 1825h286l119 -133l119 133h276l-252 -271h-297z" />
    <glyph glyph-name="scaron" unicode="&#x161;" horiz-adv-x="954" 
d="M468 199q66 -1 97 25t31 63q0 61 -100 84l-117 26q-303 64 -303 327q0 128 111 226t295 98t283 -94q99 -96 109 -209l-258 -47q-6 55 -42 90t-92 35q-56 -1 -89 -25t-33 -63q0 -61 80 -76l135 -26q154 -31 234 -117t80 -215q-1 -129 -107 -230t-299 -102q-298 0 -402 221
q-24 52 -28 99l264 47q4 -57 44 -97q41 -40 107 -40zM98 1448h238l145 -148l144 148h231l-229 -309h-297z" />
    <glyph glyph-name="Tcommaaccent" unicode="&#x162;" horiz-adv-x="1296" 
d="M485 0v1143h-446v309h1218v-309h-448v-1143h-66l-65 -100q90 -2 144 -52t54 -130q0 -79 -66 -139q-67 -60 -206 -60q-82 0 -152 35t-102 77l96 121q78 -78 156 -78t78 54q0 20 -20 35t-52 15t-55 -7l-76 100l82 129h-74z" />
    <glyph glyph-name="tcommaaccent" unicode="&#x163;" horiz-adv-x="782" 
d="M203 309v436h-180v273h51q78 0 118 46t39 120v131h279v-297h199v-273h-199v-380q0 -106 113 -107q37 0 82 10v-258q-53 -27 -158 -28l-53 -82q90 -2 144 -52t54 -130q0 -79 -66 -139t-206 -60q-82 0 -152 35t-102 77l96 121q78 -78 156 -78t78 54q0 20 -20 35t-52 15
t-55 -7l-76 100l90 139q-180 78 -180 299z" />
    <glyph glyph-name="Tcaron" unicode="&#x164;" horiz-adv-x="1296" 
d="M1257 1143h-448v-1143h-324v1143h-446v309h1218v-309zM248 1825h287l118 -133l119 133h277l-252 -271h-297z" />
    <glyph glyph-name="tcaron" unicode="&#x165;" horiz-adv-x="960" 
d="M510 1315v-297h199v-273h-199v-380q0 -106 113 -107q37 0 82 10v-258q-57 -29 -162 -28q-158 0 -249 88t-91 239v436h-180v273h51q78 0 118 46t39 120v131h279zM963 1554l-154 -424h-203l60 424h297z" />
    <glyph glyph-name="Tbar" unicode="&#x166;" horiz-adv-x="1296" 
d="M1257 1143h-448v-381h262v-232h-262v-530h-324v530h-254v232h254v381h-446v309h1218v-309z" />
    <glyph glyph-name="tbar" unicode="&#x167;" horiz-adv-x="811" 
d="M520 1315v-297h199v-273h-199v-137h199v-213h-199v-30q0 -106 113 -107q41 0 86 8v-256q-57 -29 -166 -28q-158 0 -249 88t-91 239v86h-180v213h180v137h-180v273h51q78 0 118 46t40 120v131h278z" />
    <glyph glyph-name="Utilde" unicode="&#x168;" horiz-adv-x="1441" 
d="M1071 1833v-70q0 -105 -61 -165t-145 -60q-83 0 -165 49t-108 49q-56 0 -55 -59v-27h-179v68q0 106 62 164t144 57q83 0 166 -47t108 -47q55 0 55 59v29h178zM721 -33q-250 1 -413 147t-163 410v928h324v-901q0 -129 67 -197q68 -68 186 -68t184 68t67 197v901h323v-928
q0 -264 -162 -410t-413 -147z" />
    <glyph glyph-name="utilde" unicode="&#x169;" horiz-adv-x="1220" 
d="M989 1446v-41q0 -131 -62 -199t-167 -67q-66 0 -154 45t-117 45q-68 0 -69 -88h-176v47q0 128 64 194t151 66q86 0 167 -46t117 -46q68 0 72 90h174zM514 -23q-180 0 -284 114q-103 114 -103 284v643h311v-578q0 -78 42 -127t121 -49t125 48t46 126v580h311v-836
q0 -100 11 -182h-299q-8 37 -9 102q-36 -61 -112 -93t-160 -32z" />
    <glyph glyph-name="Umacron" unicode="&#x16a;" horiz-adv-x="1441" 
d="M1042 1579h-636v223h636v-223zM721 -33q-250 1 -413 147t-163 410v928h324v-901q0 -129 67 -197q68 -68 186 -68t184 68t67 197v901h323v-928q0 -264 -162 -410t-413 -147z" />
    <glyph glyph-name="umacron" unicode="&#x16b;" horiz-adv-x="1220" 
d="M899 1182h-586v215h586v-215zM514 -23q-180 0 -284 114q-103 114 -103 284v643h311v-578q0 -78 42 -127t121 -49t125 48t46 126v580h311v-836q0 -100 11 -182h-299q-8 37 -9 102q-36 -61 -112 -93t-160 -32z" />
    <glyph glyph-name="Ubreve" unicode="&#x16c;" horiz-adv-x="1441" 
d="M722 1542q-161 0 -250 84t-93 199h231q2 -45 31 -74t81 -29t81 29t31 74h229q-4 -115 -92 -199t-249 -84zM721 -33q-250 1 -413 147t-163 410v928h324v-901q0 -129 67 -197q68 -68 186 -68t184 68t67 197v901h323v-928q0 -264 -162 -410t-413 -147z" />
    <glyph glyph-name="ubreve" unicode="&#x16d;" horiz-adv-x="1220" 
d="M599 1128q-161 0 -251 92t-94 228h197q4 -47 41 -81q36 -34 106 -34t107 34t40 81h199q-4 -136 -94 -228t-251 -92zM514 -23q-180 0 -284 114q-103 114 -103 284v643h311v-578q0 -78 42 -127t121 -49t125 48t46 126v580h311v-836q0 -100 11 -182h-299q-8 37 -9 102
q-36 -61 -112 -93t-160 -32z" />
    <glyph glyph-name="Uring" unicode="&#x16e;" horiz-adv-x="1441" 
d="M819 1763q0 45 -27 72q-28 27 -70 27t-71 -27t-29 -72t30 -71q28 -26 70 -25q42 -1 70 25t27 71zM1010 1764q0 -120 -86 -200t-203 -79q-117 0 -202 80q-85 79 -85 199t85 200t203 80t203 -80t85 -200zM721 -33q-250 1 -413 147t-163 410v928h324v-901q0 -129 67 -197
q68 -68 186 -68t184 68t67 197v901h323v-928q0 -264 -162 -410t-413 -147z" />
    <glyph glyph-name="uring" unicode="&#x16f;" horiz-adv-x="1220" 
d="M514 -23q-180 0 -284 114q-103 114 -103 284v643h311v-578q0 -78 42 -127t121 -49t125 48t46 126v580h311v-836q0 -100 11 -182h-299q-8 37 -9 102q-36 -61 -112 -93t-160 -32zM684 1335q0 35 -21 57q-22 22 -55 22q-32 0 -54 -22t-22 -57t22 -57t54 -21q32 -1 54 21
t22 57zM846 1336q0 -99 -70 -164q-70 -64 -168 -64t-168 64t-70 164q0 99 70 165t168 66t168 -66t70 -165z" />
    <glyph glyph-name="Uhungarumlaut" unicode="&#x170;" horiz-adv-x="1441" 
d="M721 -33q-250 1 -413 147t-163 410v928h324v-901q0 -129 67 -197q68 -68 186 -68t184 68t67 197v901h323v-928q0 -264 -162 -410t-413 -147zM1194 1825l-225 -271h-197l133 271h289zM823 1825l-190 -271h-193l99 271h284z" />
    <glyph glyph-name="uhungarumlaut" unicode="&#x171;" horiz-adv-x="1220" 
d="M514 -23q-180 0 -284 114q-103 114 -103 284v643h311v-578q0 -78 42 -127t121 -49t125 48t46 126v580h311v-836q0 -100 11 -182h-299q-8 37 -9 102q-36 -61 -112 -93t-160 -32zM1061 1448l-242 -309h-192l141 309h293zM707 1448l-209 -309h-189l109 309h289z" />
    <glyph glyph-name="Uogonek" unicode="&#x172;" horiz-adv-x="1441" 
d="M827 -463q-115 -1 -187 61t-71 174q0 112 103 197q-230 13 -378 159t-149 396v928h324v-901q0 -129 67 -197q68 -68 186 -68t184 68t67 197v901h323v-928q0 -201 -98 -335t-262 -189q-60 -20 -108 -72t-48 -105q0 -102 97 -102q31 0 59 5v-172q-43 -17 -109 -17z" />
    <glyph glyph-name="uogonek" unicode="&#x173;" horiz-adv-x="1220" 
d="M727 -240q0 154 147 240h-79q-8 37 -9 102q-36 -61 -112 -93t-160 -32q-180 0 -284 114q-103 114 -103 284v643h311v-578q0 -78 42 -127t121 -49t125 48t46 126v580h311v-836q0 -80 11 -182q-64 -31 -110 -82t-46 -100t27 -73t63 -24t66 5v-172q-43 -16 -109 -17
q-115 -1 -187 61t-71 162z" />
    <glyph glyph-name="Wcircumflex" unicode="&#x174;" horiz-adv-x="2127" 
d="M1540 520l236 932h331l-395 -1452h-334l-309 963l-311 -963h-340l-395 1452h344l239 -930l301 930h332zM940 1554h-276l249 271h297l254 -271h-288l-119 134z" />
    <glyph glyph-name="wcircumflex" unicode="&#x175;" horiz-adv-x="1742" 
d="M717 1018h330l198 -604l170 604h305l-315 -1018h-309l-222 657l-217 -657h-315l-319 1018h323l170 -602zM731 1139h-231l231 309h293l233 -309h-237l-146 145z" />
    <glyph glyph-name="Ycircumflex" unicode="&#x176;" horiz-adv-x="1378" 
d="M565 1554h-276l250 271h297l254 -271h-289l-119 134zM848 0h-324v606l-504 846h379l297 -539l301 539h361l-510 -846v-606z" />
    <glyph glyph-name="ycircumflex" unicode="&#x177;" horiz-adv-x="1183" 
d="M444 1139h-231l231 309h293l234 -309h-238l-145 145zM537 -391h-328l231 528l-428 881h348l248 -545l226 545h329z" />
    <glyph glyph-name="Ydieresis" unicode="&#x178;" horiz-adv-x="1378" 
d="M848 0h-324v606l-504 846h379l297 -539l301 539h361l-510 -846v-606zM786 1689q0 69 45 115t114 47q69 0 116 -47q47 -48 47 -116t-47 -113t-116 -45t-114 45t-45 114zM444 1530q-70 0 -114 45t-45 114q0 69 45 115q44 46 114 47q70 0 117 -47q47 -48 47 -116t-47 -113
t-117 -45z" />
    <glyph glyph-name="Zacute" unicode="&#x179;" horiz-adv-x="1318" 
d="M1227 0h-1153v311l700 832h-670v309h1115v-299l-717 -844h725v-309zM1032 1825l-307 -271h-276l213 271h370z" />
    <glyph glyph-name="zacute" unicode="&#x17a;" horiz-adv-x="1001" 
d="M928 0h-854v274l448 478h-436v266h834v-256l-469 -494h477v-268zM874 1448l-288 -309h-248l188 309h348z" />
    <glyph glyph-name="Zdotaccent" unicode="&#x17b;" horiz-adv-x="1318" 
d="M489 1722q1 76 53 127t129 51t130 -50q53 -52 53 -128t-53 -127t-130 -51t-129 51t-53 127zM1227 0h-1153v311l700 832h-670v309h1115v-299l-717 -844h725v-309z" />
    <glyph glyph-name="zdotaccent" unicode="&#x17c;" horiz-adv-x="1001" 
d="M324 1296q0 76 52 127t129 51t130 -50q53 -52 53 -127t-53 -126t-130 -51t-129 50t-52 126zM928 0h-854v274l448 478h-436v266h834v-256l-469 -494h477v-268z" />
    <glyph glyph-name="Zcaron" unicode="&#x17d;" horiz-adv-x="1318" 
d="M1227 0h-1153v311l700 832h-670v309h1115v-299l-717 -844h725v-309zM268 1825h287l119 -133l119 133h276l-252 -271h-297z" />
    <glyph glyph-name="zcaron" unicode="&#x17e;" horiz-adv-x="1001" 
d="M928 0h-854v274l448 478h-436v266h834v-256l-469 -494h477v-268zM131 1448h238l145 -148l143 148h232l-230 -309h-297z" />
    <glyph glyph-name="uni018F" unicode="&#x18f;" horiz-adv-x="1605" 
d="M794 268q142 0 247 68t124 190h-716q15 -110 109 -184t236 -74zM818 1485q304 0 508 -205q206 -205 206 -552t-211 -554t-520 -207t-522 203t-213 563q0 27 2 51h1128q-8 195 -126 293q-118 99 -284 99t-269 -87t-132 -190l-301 109q50 190 240 334t494 143z" />
    <glyph glyph-name="florin" unicode="&#x192;" horiz-adv-x="1083" 
d="M193 758v258h241l35 168q33 164 149 249q118 85 238 85t217 -33v-266q-70 16 -128 16q-138 0 -169 -139l-16 -80h225v-258h-278l-158 -785q-33 -165 -150 -249t-239 -84t-221 30v269q159 -39 239 14q48 30 64 108l141 697h-190z" />
    <glyph glyph-name="uni01B5" unicode="&#x1b5;" horiz-adv-x="1318" 
d="M1227 0h-1153v311l254 301h-217v262h436l227 269h-670v309h1115v-299l-238 -279h225v-262h-448l-256 -303h725v-309z" />
    <glyph glyph-name="uni01B6" unicode="&#x1b6;" horiz-adv-x="1001" 
d="M930 0h-856v219l159 184h-145v213h332l127 146h-459v256h832v-227l-152 -175h154v-213h-338l-127 -145h473v-258z" />
    <glyph glyph-name="Aringacute" unicode="&#x1fa;" horiz-adv-x="1503" 
d="M1034 1560q0 -108 -63 -186l512 -1374h-353l-104 295h-561l-105 -295h-340l512 1360q-74 80 -74 194t86 195q84 80 202 80t203 -80q85 -81 85 -189zM844 1548q0 45 -28 72t-70 27t-70 -27q-29 -27 -29 -72q0 -44 29 -70t71 -26q41 0 69 26t28 70zM1188 2148l-307 -270
h-277l213 270h371zM750 1087l-179 -497h353z" />
    <glyph glyph-name="aringacute" unicode="&#x1fb;" horiz-adv-x="1118" 
d="M623 1327q0 35 -22 57q-23 22 -55 21q-32 0 -54 -22q-22 -23 -21 -57q0 -34 22 -56q23 -22 55 -21q32 -1 54 21t21 57zM547 1559q97 0 167 -66t70 -165t-70 -164q-70 -64 -167 -64q-98 0 -168 64t-70 164q0 99 70 165t168 66zM952 1923l-288 -309h-248l188 309h348z
M383 301q0 -43 30 -73q31 -30 101 -31q70 0 123 47t53 155v45l-192 -30q-115 -18 -115 -113zM76 282q0 128 84 206t217 100l239 37q74 10 74 69q0 47 -40 79t-114 32t-119 -44q-46 -44 -50 -106l-271 56q10 127 126 232t334 105t328 -110q110 -111 109 -283v-497
q0 -96 13 -158h-281q-10 41 -10 115q-88 -143 -287 -144q-162 -1 -257 91t-95 220z" />
    <glyph glyph-name="AEacute" unicode="&#x1fc;" horiz-adv-x="2203" 
d="M1614 1825l-307 -271h-277l213 271h371zM1167 578v612l-389 -612h389zM2091 0h-924v313h-559l-200 -313h-388l959 1452h1110v-305h-598v-277h543v-284h-543v-279h600v-307z" />
    <glyph glyph-name="aeacute" unicode="&#x1fd;" horiz-adv-x="1781" 
d="M1204 803q-98 0 -152 -53t-59 -119h414q-4 70 -54 121q-51 51 -149 51zM381 299q0 -41 34 -71q33 -30 103 -31q70 0 125 47t55 155v45l-200 -30q-117 -18 -117 -115zM1217 -31q-233 0 -379 162q-139 -162 -369 -162q-186 0 -290 90q-103 91 -103 221t84 208t217 100
l246 37q76 10 75 69q0 47 -40 79t-116 32t-124 -44q-47 -44 -53 -106l-269 56q10 127 128 232t337 105t326 -116q143 117 321 117q232 -1 366 -139t134 -384q0 -78 -6 -96h-715q6 -90 73 -144t161 -55q160 1 211 140l258 -78q-41 -139 -165 -231t-308 -93zM1274 1448
l-289 -309h-248l189 309h348z" />
    <glyph glyph-name="Oslashacute" unicode="&#x1fe;" horiz-adv-x="1656" 
d="M410 727q0 -145 65 -250l512 660q-78 31 -158 30q-167 1 -293 -113t-126 -327zM1247 727q0 152 -67 254l-512 -664q72 -29 161 -28q168 1 293 113t125 325zM74 740q0 324 220 533q220 210 535 210q193 0 359 -86l143 184l197 -151l-142 -183q197 -211 197 -535t-219 -533
q-219 -210 -535 -210q-197 0 -364 86l-141 -182l-201 150l143 184q-192 209 -192 533zM1262 1825l-308 -271h-276l213 271h371z" />
    <glyph glyph-name="oslashacute" unicode="&#x1ff;" horiz-adv-x="1208" 
d="M604 256q96 0 163 66t67 188q0 55 -17 104l-287 -346q35 -12 74 -12zM375 510q0 -61 20 -117l293 352q-43 16 -84 17q-94 0 -162 -66t-67 -186zM604 1049q154 0 277 -70l110 133l139 -117l-108 -131q123 -146 123 -368t-155 -374t-386 -153q-141 0 -266 66l-105 -127
l-141 117l103 122q-131 152 -131 374t155 375q156 153 385 153zM993 1448l-288 -309h-248l188 309h348z" />
    <glyph glyph-name="Scommaaccent" unicode="&#x218;" horiz-adv-x="1247" 
d="M481 -223q0 59 45 100t121 41t128 -55t52 -133q0 -157 -93 -218t-199 -61q-12 0 -25 2v107q170 0 180 94q-29 -14 -81 -14t-90 39t-38 98zM640 1196q-102 0 -158 -46t-56 -110q0 -113 143 -139l195 -37q200 -36 310 -156t110 -291t-146 -309t-405 -138q-260 0 -411 142
t-169 322l297 72q10 -110 85 -180t216 -70q94 0 150 42q55 42 55 104q0 122 -156 151l-198 37q-184 35 -290 149q-105 115 -106 277q0 201 154 334t367 133q349 0 484 -254q34 -63 46 -133l-291 -82q-10 68 -67 125t-159 57z" />
    <glyph glyph-name="scommaaccent" unicode="&#x219;" horiz-adv-x="954" 
d="M311 -223q0 59 45 100t121 41t128 -55t52 -133q0 -157 -93 -218t-199 -61q-12 0 -25 2v107q170 0 180 94q-29 -14 -81 -14t-90 39t-38 98zM468 199q66 -1 97 25t31 63q0 61 -100 84l-117 26q-303 64 -303 327q0 128 111 226t295 98t283 -94q99 -96 109 -209l-258 -47
q-6 55 -42 90t-92 35q-56 -1 -89 -25t-33 -63q0 -61 80 -76l135 -26q154 -31 234 -117t80 -215q-1 -129 -107 -230t-299 -102q-298 0 -402 221q-24 52 -28 99l264 47q4 -57 44 -97q41 -40 107 -40z" />
    <glyph glyph-name="uni021A" unicode="&#x21a;" horiz-adv-x="1296" 
d="M479 -223q0 59 45 100t121 41t128 -55t52 -133q0 -157 -93 -218t-200 -61q-12 0 -24 2v107q170 0 180 94q-29 -14 -81 -14t-90 39t-38 98zM1257 1143h-448v-1143h-324v1143h-446v309h1218v-309z" />
    <glyph glyph-name="uni021B" unicode="&#x21b;" horiz-adv-x="782" 
d="M297 -223q0 59 45 100t121 41t128 -55t52 -133q1 -156 -101 -223q-85 -56 -192 -56q-12 0 -24 2v107q170 0 180 94q-30 -14 -82 -14t-90 39t-37 98zM510 1315v-297h199v-273h-199v-380q0 -106 113 -107q37 0 82 10v-258q-57 -29 -162 -28q-158 0 -249 88t-91 239v436
h-180v273h51q78 0 118 46t39 120v131h279z" />
    <glyph glyph-name="dotlessj" unicode="&#x237;" horiz-adv-x="585" 
d="M137 -41v1059h312v-1092q1 -156 -91 -251t-245 -95q-111 0 -172 27v262q43 -14 92 -14q104 0 104 104z" />
    <glyph glyph-name="uni0259" unicode="&#x259;" horiz-adv-x="1153" 
d="M572 -33q-220 -1 -364 143t-145 382q0 63 7 88h723q-5 96 -67 153t-154 57t-151 -40q-60 -41 -85 -107l-254 92q45 131 175 223t316 93q229 0 373 -150q144 -151 144 -393t-148 -392t-370 -149zM574 209q100 0 153 55t59 123h-424q4 -72 58 -125t154 -53z" />
    <glyph glyph-name="circumflex" unicode="&#x2c6;" horiz-adv-x="847" 
d="M276 1139h-231l231 309h293l234 -309h-238l-145 145z" />
    <glyph glyph-name="caron" unicode="&#x2c7;" horiz-adv-x="847" 
d="M45 1448h238l145 -148l143 148h232l-230 -309h-297z" />
    <glyph glyph-name="uni02C9" unicode="&#x2c9;" horiz-adv-x="675" 
d="M631 1182h-586v215h586v-215z" />
    <glyph glyph-name="breve" unicode="&#x2d8;" horiz-adv-x="778" 
d="M390 1128q-161 0 -251 92t-94 228h197q4 -47 41 -81t107 -34t106 34q37 34 41 81h198q-4 -136 -94 -228t-251 -92z" />
    <glyph glyph-name="dotaccent" unicode="&#x2d9;" horiz-adv-x="411" 
d="M25 1296q0 76 52 127t129 51t130 -50q53 -52 53 -127t-53 -126t-130 -51t-129 50t-52 126z" />
    <glyph glyph-name="ring" unicode="&#x2da;" horiz-adv-x="565" 
d="M358 1335q0 35 -21 57q-23 22 -55 22t-54 -22t-22 -57t22 -57t55 -21q33 -1 54 21t21 57zM283 1567q97 0 167 -66t70 -165t-70 -164q-70 -64 -167 -64q-98 0 -168 64t-70 164q0 99 70 165t168 66z" />
    <glyph glyph-name="ogonek" unicode="&#x2db;" horiz-adv-x="450" 
d="M297 -463q-115 -1 -187 61t-71 162q0 178 211 273l156 -33q-64 -31 -110 -82t-46 -100t26 -73t64 -24q37 0 66 5v-172q-43 -17 -109 -17z" />
    <glyph glyph-name="tilde" unicode="&#x2dc;" horiz-adv-x="815" 
d="M780 1446v-41q0 -131 -62 -199t-167 -67q-66 0 -154 45t-116 45q-68 0 -70 -88h-176v47q1 128 65 194t150 66t167 -46t118 -46q68 0 71 90h174z" />
    <glyph glyph-name="hungarumlaut" unicode="&#x2dd;" horiz-adv-x="839" 
d="M801 1448l-242 -309h-190l141 309h291zM436 1448l-209 -309h-188l108 309h289z" />
    <glyph glyph-name="uni0394" unicode="&#x394;" horiz-adv-x="1443" 
d="M721 1104l-279 -801h559zM0 0l545 1452h354l545 -1452h-1444z" />
    <glyph glyph-name="uni03A9" unicode="&#x3a9;" horiz-adv-x="1585" 
d="M1159 824q0 154 -107 254t-258 100q-150 0 -258 -100t-108 -254t85 -252t212 -123v-449h-614v297h331q-154 63 -252 205t-98 340q0 285 206 464t495 179t495 -179t205 -464q0 -197 -97 -339t-253 -206h334v-297h-617v449q127 27 213 123t86 252z" />
    <glyph glyph-name="uni03BC" unicode="&#x3bc;" horiz-adv-x="1241" 
d="M548 -23q-62 0 -97 7v-373h-312v1407h312v-578q0 -78 42 -127q43 -49 121 -49t124 48t46 126v580h312v-836q0 -90 10 -182h-299q-8 37 -8 102q-37 -61 -113 -93t-138 -32z" />
    <glyph glyph-name="pi" unicode="&#x3c0;" horiz-adv-x="1329" 
d="M1102 -18q-154 0 -235 85t-81 234v453h-237v-754h-313v754h-170v264h1185v-264h-153v-410q0 -92 94 -92q37 0 63 6v-248q-84 -28 -153 -28z" />
    <glyph glyph-name="Wgrave" unicode="&#x1e80;" horiz-adv-x="2127" 
d="M1540 520l236 932h331l-395 -1452h-334l-309 963l-311 -963h-340l-395 1452h344l239 -930l301 930h332zM950 1554l-307 271h371l213 -271h-277z" />
    <glyph glyph-name="wgrave" unicode="&#x1e81;" horiz-adv-x="1742" 
d="M756 1139l-291 309h354l191 -309h-254zM717 1018h330l198 -604l170 604h305l-315 -1018h-309l-222 657l-217 -657h-315l-319 1018h323l170 -602z" />
    <glyph glyph-name="Wacute" unicode="&#x1e82;" horiz-adv-x="2127" 
d="M1540 520l236 932h331l-395 -1452h-334l-309 963l-311 -963h-340l-395 1452h344l239 -930l301 930h332zM1507 1825l-307 -271h-276l213 271h370z" />
    <glyph glyph-name="wacute" unicode="&#x1e83;" horiz-adv-x="1742" 
d="M717 1018h330l198 -604l170 604h305l-315 -1018h-309l-222 657l-217 -657h-315l-319 1018h323l170 -602zM1278 1448l-289 -309h-248l189 309h348z" />
    <glyph glyph-name="Wdieresis" unicode="&#x1e84;" horiz-adv-x="2127" 
d="M1540 520l236 932h331l-395 -1452h-334l-309 963l-311 -963h-340l-395 1452h344l239 -930l301 930h332zM1373 1530q-69 0 -114 45t-45 114t46 115t114 47q68 0 115 -47q47 -48 47 -116t-47 -113t-116 -45zM602 1689q0 69 46 115t115 47q69 0 116 -47q47 -48 47 -116
t-47 -113t-116 -45t-115 45t-46 114z" />
    <glyph glyph-name="wdieresis" unicode="&#x1e85;" horiz-adv-x="1742" 
d="M717 1018h330l198 -604l170 604h305l-315 -1018h-309l-222 657l-217 -657h-315l-319 1018h323l170 -602zM950 1294q0 66 45 112t111 46t112 -46t46 -112t-46 -110t-112 -45q-66 1 -111 45t-45 110zM489 1294q-1 66 45 112t110 46t111 -46q46 -46 46 -112t-46 -110
t-112 -45q-66 1 -110 45t-44 110z" />
    <glyph glyph-name="uni1E8A" unicode="&#x1e8a;" horiz-adv-x="1423" 
d="M526 1722q0 76 52 127t130 51q77 0 130 -50q53 -52 53 -128t-53 -127t-130 -51q-78 0 -130 51t-52 127zM1380 1452l-467 -729l471 -723h-393l-286 471l-285 -471h-381l469 727l-469 725h389l287 -471l286 471h379z" />
    <glyph glyph-name="uni1E8B" unicode="&#x1e8b;" horiz-adv-x="1130" 
d="M389 1296q0 76 52 127t129 51t130 -50q54 -52 54 -127t-54 -126t-130 -51q-77 0 -129 50t-52 126zM557 287q-38 -58 -186 -287h-342l350 508l-356 510h366l182 -279l179 279h348l-353 -498q342 -487 365 -520h-365z" />
    <glyph glyph-name="Ygrave" unicode="&#x1ef2;" horiz-adv-x="1378" 
d="M590 1554l-307 271h370l213 -271h-276zM848 0h-324v606l-504 846h379l297 -539l301 539h361l-510 -846v-606z" />
    <glyph glyph-name="ygrave" unicode="&#x1ef3;" horiz-adv-x="1183" 
d="M489 1139l-290 309h354l190 -309h-254zM537 -391h-328l231 528l-428 881h348l248 -545l226 545h329z" />
    <glyph glyph-name="uni2007" unicode="&#x2007;" horiz-adv-x="1286" 
 />
    <glyph glyph-name="uni2008" unicode="&#x2008;" horiz-adv-x="669" 
 />
    <glyph glyph-name="uni200B" unicode="&#x200b;" horiz-adv-x="0" 
 />
    <glyph glyph-name="endash" unicode="&#x2013;" horiz-adv-x="1306" 
d="M1184 483h-1059v271h1059v-271z" />
    <glyph glyph-name="emdash" unicode="&#x2014;" horiz-adv-x="2199" 
d="M2056 483h-1911v271h1911v-271z" />
    <glyph glyph-name="quoteleft" unicode="&#x2018;" horiz-adv-x="493" 
d="M430 1024q0 -68 -50 -114t-132 -46t-133 62t-52 145q1 191 105 287t231 106v-139q-61 -6 -115 -50t-59 -110q20 10 45 11q76 0 118 -42t42 -110z" />
    <glyph glyph-name="quoteright" unicode="&#x2019;" horiz-adv-x="493" 
d="M63 1304q-1 66 49 112t133 46t134 -61t51 -146q0 -190 -104 -286t-232 -107v139q60 7 114 49t60 108q-2 -9 -60 -9t-102 44q-43 44 -43 111z" />
    <glyph glyph-name="quotesinglbase" unicode="&#x201a;" horiz-adv-x="493" 
d="M63 148q-1 68 49 114t133 45q83 0 134 -61q51 -62 51 -154t-33 -171q-55 -132 -192 -187q-55 -23 -111 -27v137q61 6 115 48q53 42 59 110q-20 -10 -45 -10q-76 0 -118 44t-42 112z" />
    <glyph glyph-name="quotedblleft" unicode="&#x201c;" horiz-adv-x="923" 
d="M860 1024q0 -68 -50 -114t-132 -46t-132 62t-50 145q0 191 103 287t230 106v-139q-61 -6 -115 -49t-59 -109q20 10 45 11q76 0 118 -43t42 -111zM430 1024q0 -68 -50 -114t-132 -46t-133 62t-52 145q1 191 105 287t231 106v-139q-61 -6 -115 -49t-59 -109q20 10 45 11
q76 0 118 -43t42 -111z" />
    <glyph glyph-name="quotedblright" unicode="&#x201d;" horiz-adv-x="917" 
d="M489 1304q-1 66 49 112t132 46t133 -61t51 -146q0 -190 -103 -285t-231 -106v137q60 7 114 49t60 109q-20 -10 -45 -10q-74 0 -117 44t-43 111zM63 1304q-1 66 49 112t132 46t134 -61t52 -146q0 -190 -104 -285t-232 -106v137q60 7 114 49t60 109q-20 -10 -45 -10
q-74 0 -117 44t-43 111z" />
    <glyph glyph-name="quotedblbase" unicode="&#x201e;" horiz-adv-x="917" 
d="M487 148q-1 68 49 114t133 45q83 0 134 -61q51 -62 51 -154t-33 -171q-55 -132 -192 -187q-55 -23 -111 -27v137q61 6 115 48q53 42 59 110q-20 -10 -45 -10q-76 0 -118 44t-42 112zM63 148q-1 68 49 114t133 45q83 0 134 -61q51 -62 51 -154t-33 -171
q-55 -132 -192 -187q-55 -23 -111 -27v137q61 6 115 48q53 42 59 110q-20 -10 -45 -10q-76 0 -118 44t-42 112z" />
    <glyph glyph-name="dagger" unicode="&#x2020;" horiz-adv-x="874" 
d="M565 334h-258v600h-246v233h246v285h258v-285h248v-233h-248v-600z" />
    <glyph glyph-name="daggerdbl" unicode="&#x2021;" horiz-adv-x="956" 
d="M102 522h246v408h-246v233h246v289h258v-289h248v-233h-248v-408h248v-233h-248v-289h-258v289h-246v233z" />
    <glyph glyph-name="bullet" unicode="&#x2022;" horiz-adv-x="1069" 
d="M106 623q0 176 126 302t302 126t303 -126q126 -126 126 -302t-126 -302t-302 -126t-303 126q-126 126 -126 302z" />
    <glyph glyph-name="ellipsis" unicode="&#x2026;" horiz-adv-x="1875" 
d="M319 338q75 0 129 -54t54 -128t-54 -128t-129 -54t-127 52q-52 54 -52 130t51 129q52 53 128 53zM1118 156q0 -76 -53 -129t-128 -53t-128 52q-53 54 -53 130t52 129t128 53t129 -53t53 -129zM1555 338q75 0 129 -53t53 -129q1 -76 -53 -129t-129 -53t-128 54t-53 128
t53 128t128 54z" />
    <glyph glyph-name="perthousand" unicode="&#x2030;" horiz-adv-x="2310" 
d="M1012 317q0 141 103 241t253 99q150 0 246 -116q96 117 246 117t254 -100q104 -98 104 -242t-103 -241t-254 -97t-247 112q-94 -113 -246 -113q-152 -1 -254 99t-102 241zM1868 449q-55 1 -92 -37t-37 -96t37 -96t92 -38t91 38t36 96t-36 96t-91 37zM561 0h-262l930 1329
h264zM1362 449q-55 1 -92 -37t-37 -96t37 -96t92 -38t91 38t36 96t-36 96t-91 37zM80 1013q0 142 101 241q101 100 245 100t244 -100q102 -100 102 -242t-101 -240t-245 -98t-246 98q-100 99 -100 241zM301 1012q0 -58 35 -96t89 -38t89 38t35 96t-35 96q-35 37 -89 37
t-89 -37t-35 -96z" />
    <glyph glyph-name="guilsinglleft" unicode="&#x2039;" horiz-adv-x="661" 
d="M627 209h-291l-283 399l287 410h289l-285 -412z" />
    <glyph glyph-name="guilsinglright" unicode="&#x203a;" horiz-adv-x="661" 
d="M326 209h-293l284 397l-284 412h291l284 -410z" />
    <glyph glyph-name="uni2042" unicode="&#x2042;" horiz-adv-x="1718" 
d="M1384 670v-215l199 65l68 -192l-203 -68l123 -170l-164 -121l-127 172l-127 -172l-164 121l121 170l-201 68l66 192l199 -65v215h210zM545 670v-215l198 65l68 -192l-203 -68l123 -170l-164 -121l-127 172l-127 -172l-163 121l120 170l-200 68l65 192l199 -65v215h211z
M956 1450v-215l199 65l68 -192l-203 -68l123 -170l-164 -120l-127 172l-127 -172l-164 120l121 170l-201 68l66 192l198 -65v215h211z" />
    <glyph glyph-name="fraction" unicode="&#x2044;" horiz-adv-x="1193" 
d="M262 0h-262l930 1329h264z" />
    <glyph glyph-name="uni2051" unicode="&#x2051;" horiz-adv-x="880" 
d="M547 678v-215l198 65l68 -192l-203 -68l123 -170l-164 -121l-127 173l-127 -173l-163 121l120 170l-200 68l65 192l199 -65v215h211zM547 1450v-215l198 65l68 -192l-203 -68l123 -170l-164 -120l-127 172l-127 -172l-163 120l120 170l-200 68l65 192l199 -65v215h211z
" />
    <glyph glyph-name="uni2070" unicode="&#x2070;" horiz-adv-x="899" 
d="M96 1075q0 166 74 266q94 129 280 129t279 -129q74 -100 74 -266t-74 -266q-98 -129 -280 -129t-279 131q-74 98 -74 264zM334 1075q0 -205 115 -205t114 205t-115 205t-114 -205z" />
    <glyph glyph-name="uni2074" unicode="&#x2074;" horiz-adv-x="897" 
d="M453 1016v209l-187 -209h187zM96 842v229l336 381h248v-436h121v-174h-121v-146h-227v146h-357z" />
    <glyph glyph-name="uni2075" unicode="&#x2075;" horiz-adv-x="829" 
d="M413 874q43 0 69 23t26 59q0 94 -102 95q-59 0 -97 -41l-188 53l90 389h473v-184h-338l-24 -107q52 41 160 41t180 -64t72 -181t-86 -195q-85 -78 -224 -78q-138 0 -228 71t-100 175l205 37q2 -41 35 -67t77 -26z" />
    <glyph glyph-name="uni2076" unicode="&#x2076;" horiz-adv-x="858" 
d="M338 945q0 -39 27 -63t67 -24t69 25q27 25 27 63t-27 63q-28 25 -69 25q-42 0 -68 -26t-26 -63zM561 1278q-184 0 -233 -145q68 57 176 57t184 -62q74 -62 74 -180q0 -120 -91 -196t-237 -76t-243 95q-95 95 -95 253q0 203 129 322t324 118q90 1 188 -28l-39 -181
q-63 23 -137 23z" />
    <glyph glyph-name="uni2077" unicode="&#x2077;" horiz-adv-x="829" 
d="M735 1452v-188q-246 -209 -278 -568h-246q12 195 92 340q81 145 135 201l25 25h-367v190h639z" />
    <glyph glyph-name="uni2078" unicode="&#x2078;" horiz-adv-x="868" 
d="M764 913q0 -105 -86 -169t-242 -64t-244 61t-88 164q0 66 44 115t112 65q-63 17 -98 65t-35 105q0 93 81 153t227 60q147 0 227 -60t79 -153q-1 -57 -35 -104t-98 -66q66 -18 111 -65t45 -107zM434 856q51 0 76 24t25 54t-26 54q-26 22 -75 22t-75 -23q-25 -23 -25 -53
t24 -54t76 -24zM434 1288q-38 0 -60 -20t-22 -46t22 -46t60 -21q39 1 61 21q21 20 21 46t-21 46q-22 20 -61 20z" />
    <glyph glyph-name="uni2079" unicode="&#x2079;" horiz-adv-x="858" 
d="M420 1112q42 0 68 24t26 63q0 38 -27 63q-27 24 -67 24t-68 -24q-26 -24 -26 -63t26 -63t68 -24zM297 864q203 0 242 148q-69 -58 -175 -58t-187 64t-81 180q0 117 89 195q89 77 237 77t244 -97q94 -97 94 -253q0 -208 -124 -326t-314 -118q-85 0 -187 31l35 180
q51 -23 127 -23z" />
    <glyph glyph-name="uni2080" unicode="&#x2080;" horiz-adv-x="899" 
d="M96 225q0 166 74 267q94 129 280 129t279 -129q74 -100 74 -266t-74 -267q-98 -129 -280 -129t-279 131q-74 98 -74 264zM334 225q0 -205 115 -205t114 205t-115 205t-114 -205z" />
    <glyph glyph-name="uni2081" unicode="&#x2081;" horiz-adv-x="630" 
d="M494 -246h-236v434h-192v152q98 0 153 51t68 117h207v-754z" />
    <glyph glyph-name="uni2082" unicode="&#x2082;" horiz-adv-x="811" 
d="M711 272q0 -133 -172 -233l-138 -80q-10 -6 -10 -10h326v-195h-619v27q0 227 187 332l123 69q74 41 73 92q0 25 -19 48q-18 22 -62 22t-68 -28t-23 -60q0 -32 6 -45h-204q-8 33 -9 55q0 111 80 187q80 75 222 75t225 -74q82 -74 82 -182z" />
    <glyph glyph-name="uni2083" unicode="&#x2083;" horiz-adv-x="841" 
d="M412 -72q46 0 72 22t26 58t-27 58q-27 20 -63 20t-64 -12l-71 153l161 97h-323v188h596v-190l-174 -105q96 -15 148 -73t52 -155t-91 -174t-233 -77t-230 74q-87 74 -95 174l211 37q2 -39 31 -67t74 -28z" />
    <glyph glyph-name="uni2084" unicode="&#x2084;" horiz-adv-x="897" 
d="M453 74v209l-187 -209h187zM96 -100v229l336 381h248v-436h121v-174h-121v-146h-227v146h-357z" />
    <glyph glyph-name="uni2085" unicode="&#x2085;" horiz-adv-x="829" 
d="M413 -68q43 0 69 23t26 59q0 94 -102 95q-59 0 -97 -41l-188 53l90 389h473v-184h-338l-24 -107q52 41 160 41t180 -64t72 -181t-86 -195q-85 -78 -224 -78q-138 0 -228 71t-100 175l205 37q2 -41 35 -67t77 -26z" />
    <glyph glyph-name="uni2086" unicode="&#x2086;" horiz-adv-x="858" 
d="M338 7q0 -39 27 -63t67 -24t69 25q27 25 27 63t-27 63q-28 25 -69 25q-42 0 -68 -26t-26 -63zM561 340q-184 0 -233 -145q68 57 176 57t184 -62q74 -62 74 -180q0 -120 -91 -196t-237 -76t-243 95q-95 95 -95 253q0 203 129 322t324 118q90 1 188 -28l-39 -181
q-63 23 -137 23z" />
    <glyph glyph-name="uni2087" unicode="&#x2087;" horiz-adv-x="829" 
d="M735 508v-189q-246 -209 -278 -567h-246q15 257 170 469q35 49 57 74l25 22h-367v191h639z" />
    <glyph glyph-name="uni2088" unicode="&#x2088;" horiz-adv-x="868" 
d="M764 -29q0 -105 -86 -169t-242 -64t-244 61t-88 164q0 66 44 115t112 65q-63 17 -98 65t-35 105q0 93 81 153t227 60q147 0 227 -60t79 -153q-1 -57 -35 -104t-98 -66q66 -18 111 -65t45 -107zM434 -86q51 0 76 24t25 54t-26 54q-26 22 -75 22t-75 -23q-25 -23 -25 -53
t24 -54t76 -24zM434 346q-38 0 -60 -20t-22 -46t22 -46t60 -21q39 0 61 20q21 21 21 47t-21 46q-22 20 -61 20z" />
    <glyph glyph-name="uni2089" unicode="&#x2089;" horiz-adv-x="858" 
d="M420 174q42 0 68 24t26 63q0 38 -27 63q-27 24 -67 24t-68 -24q-26 -24 -26 -63t26 -63t68 -24zM297 -74q203 0 242 148q-69 -58 -175 -58t-187 64t-81 180q0 117 89 195q89 77 237 77t244 -97q94 -97 94 -253q0 -208 -124 -326t-314 -118q-85 0 -187 31l35 180
q51 -23 127 -23z" />
    <glyph glyph-name="Euro" unicode="&#x20ac;" horiz-adv-x="1380" 
d="M965 -33q-229 0 -404 114q-174 114 -250 314h-186v209h143q-2 20 -2 56t2 55h-143v207h186q76 202 252 320q175 118 389 118t361 -92l-115 -246q-86 59 -237 59q-205 0 -308 -159h500l-96 -207h-465q-2 -20 -2 -55t2 -56h422l-92 -209h-256q104 -143 299 -143
q151 0 249 78l142 -234q-162 -129 -391 -129z" />
    <glyph glyph-name="uni2113" unicode="&#x2113;" horiz-adv-x="899" 
d="M571 1036q0 29 -13 46t-34 18q-51 0 -51 -76v-233q98 112 98 245zM197 1008q0 162 92 256t237 94q144 0 232 -88t88 -243t-100 -307t-273 -261v-43q0 -82 45 -120t96 -38q113 0 189 45v-254q-72 -59 -234 -59t-263 91t-109 251q-59 -18 -144 -33v268q76 20 144 45v396z
" />
    <glyph glyph-name="trademark" unicode="&#x2122;" horiz-adv-x="1810" 
d="M1688 705h-205v454l-168 -454h-156l-170 446v-446h-203v747h291l164 -397l156 397h291v-747zM688 1266h-203v-561h-209v561h-204v186h616v-186z" />
    <glyph glyph-name="Omega" unicode="&#x2126;" horiz-adv-x="1585" 
d="M1159 824q0 154 -107 254t-258 100q-150 0 -258 -100t-108 -254t85 -252t212 -123v-449h-614v297h331q-154 63 -252 205t-98 340q0 285 206 464t495 179t495 -179t205 -464q0 -197 -97 -339t-253 -206h334v-297h-617v449q127 27 213 123t86 252z" />
    <glyph glyph-name="uni2160" unicode="&#x2160;" horiz-adv-x="1009" 
d="M926 1329v-268h-258v-793h258v-268h-840v268h260v793h-260v268h840z" />
    <glyph glyph-name="uni2161" unicode="&#x2161;" horiz-adv-x="1624" 
d="M684 1061v-793h260v793h-260zM1540 268v-268h-1454v268h276v793h-276v268h1454v-268h-274v-793h274z" />
    <glyph glyph-name="uni2162" unicode="&#x2162;" horiz-adv-x="2185" 
d="M1255 1061v-793h250v793h-250zM684 1061v-793h250v793h-250zM2101 268v-268h-2015v268h276v793h-276v268h2015v-268h-274v-793h274z" />
    <glyph glyph-name="uni2163" unicode="&#x2163;" horiz-adv-x="2205" 
d="M1378 367l203 694h-410zM678 1061v-793h409l-253 793h-156zM2122 268v-268h-2036v268h270v793h-270v268h2036v-268h-213l-248 -793h461z" />
    <glyph glyph-name="uni2164" unicode="&#x2164;" horiz-adv-x="1658" 
d="M834 367l202 694h-409zM1575 1329v-268h-213l-246 -793h457v-268h-1487v268h457l-254 793h-203v268h1489z" />
    <glyph glyph-name="uni2165" unicode="&#x2165;" horiz-adv-x="2197" 
d="M834 367l202 694h-409zM1518 268v793h-154l-246 -793h400zM2111 268v-268h-2025v268h457l-254 793h-203v268h2025v-268h-272v-793h272z" />
    <glyph glyph-name="uni2166" unicode="&#x2166;" horiz-adv-x="2760" 
d="M834 367l202 694h-409zM1518 268v793h-154l-246 -793h400zM2081 268v793h-242v-793h242zM2675 268v-268h-2589v268h457l-254 793h-203v268h2589v-268h-273v-793h273z" />
    <glyph glyph-name="uni2167" unicode="&#x2167;" horiz-adv-x="3315" 
d="M834 367l202 694h-409zM1839 1061v-793h238v793h-238zM2398 1061v-793h240v793h-240zM1518 268v793h-156l-246 -793h402zM3232 268v-268h-3146v268h457l-254 793h-203v268h3144v-268h-271v-793h273z" />
    <glyph glyph-name="uni2168" unicode="&#x2168;" horiz-adv-x="2154" 
d="M1346 442l-127 -174h251zM1221 1061l129 -182l131 182h-260zM678 1061v-793h164l295 391l-299 402h-160zM2068 268v-268h-1982v268h270v793h-270v268h1982v-268h-210l-297 -404l292 -389h215z" />
    <glyph glyph-name="uni2169" unicode="&#x2169;" horiz-adv-x="1611" 
d="M803 442l-125 -174h250zM680 1061l129 -182l129 182h-258zM1526 1329v-268h-211l-297 -404l293 -389h215v-268h-1440v268h213l295 391l-299 402h-209v268h1440z" />
    <glyph glyph-name="uni216C" unicode="&#x216c;" horiz-adv-x="1351" 
d="M1268 608v-608h-1182v268h227v793h-227v268h797v-268h-248v-793h330v340h303z" />
    <glyph glyph-name="uni216D" unicode="&#x216d;" horiz-adv-x="1521" 
d="M1436 516v-516h-312v113q-135 -145 -362 -146q-292 0 -484 195t-192 499q0 303 194 501t476 198q225 0 356 -141v110h313v-506h-313q-18 87 -70 145q-102 113 -261 112q-159 -2 -273 -110t-113 -300q0 -192 112 -303q113 -111 271 -111t240 82t106 178h312z" />
    <glyph glyph-name="uni216E" unicode="&#x216e;" horiz-adv-x="1529" 
d="M647 268h109q160 2 261 104t101 292t-102 293t-262 104h-107v-793zM782 1329q306 0 484 -180t178 -485q0 -304 -179 -484t-485 -180h-694v268h240v793h-240v268h696z" />
    <glyph glyph-name="uni216F" unicode="&#x216f;" horiz-adv-x="2134" 
d="M764 268v-268h-678v268h227v793h-227v268h664l317 -801l299 801h684v-268h-225v-793h225v-268h-698v268h153v578l-323 -828h-234l-323 820v-570h139z" />
    <glyph glyph-name="arrowleft" unicode="&#x2190;" horiz-adv-x="2211" 
d="M555 752h1542v-269h-1542v-366l-584 499l584 504v-368z" />
    <glyph glyph-name="arrowup" unicode="&#x2191;" horiz-adv-x="1032" 
d="M694 1071v-1370h-268v1370h-371l504 567l498 -567h-363z" />
    <glyph glyph-name="arrowright" unicode="&#x2192;" horiz-adv-x="2281" 
d="M1577 483h-1534v269h1534v372l643 -508l-643 -505v372z" />
    <glyph glyph-name="arrowdown" unicode="&#x2193;" horiz-adv-x="1007" 
d="M346 268v1368h268v-1368h367l-502 -571l-508 571h375z" />
    <glyph glyph-name="uni2196" unicode="&#x2196;" horiz-adv-x="1796" 
d="M141 1450h721l-266 -268l1022 -1020l-188 -189l-1022 1020l-267 -268v725z" />
    <glyph glyph-name="uni2197" unicode="&#x2197;" horiz-adv-x="1533" 
d="M1356 1450v-725l-266 268l-1022 -1020l-191 189l1022 1022l-264 266h721z" />
    <glyph glyph-name="uni2198" unicode="&#x2198;" horiz-adv-x="1740" 
d="M1563 2h-721l264 266l-1020 1022l188 189l1022 -1020l267 268v-725z" />
    <glyph glyph-name="uni2199" unicode="&#x2199;" horiz-adv-x="1515" 
d="M66 2v725l266 -268l1022 1020l188 -189l-1022 -1020l266 -268h-720z" />
    <glyph glyph-name="uni21A9" unicode="&#x21a9;" horiz-adv-x="1789" 
d="M516 680h735q106 0 171 55t65 135q1 80 -63 132t-173 53h-417v268h430q223 0 363 -129t140 -328q0 -200 -139 -328t-364 -128h-748v-361l-582 500l582 504v-373z" />
    <glyph glyph-name="uni21B0" unicode="&#x21b0;" horiz-adv-x="1677" 
d="M647 1116h875v-1116h-269v848h-606v-367l-581 502l581 502v-369z" />
    <glyph glyph-name="uni21B1" unicode="&#x21b1;" horiz-adv-x="1564" 
d="M340 0h-268v1116h884v369l582 -502l-582 -502v367h-616v-848z" />
    <glyph glyph-name="uni21B2" unicode="&#x21b2;" horiz-adv-x="1591" 
d="M1167 1452h269v-1116h-883v-369l-584 504l584 500v-367h614v848z" />
    <glyph glyph-name="uni21B3" unicode="&#x21b3;" horiz-adv-x="1755" 
d="M1022 336h-885v1116h269v-848h616v367l582 -500l-582 -504v369z" />
    <glyph glyph-name="uni21B4" unicode="&#x21b4;" horiz-adv-x="1622" 
d="M131 1184v268h1143v-920h368l-495 -563l-504 563h363v652h-875z" />
    <glyph glyph-name="uni21C6" unicode="&#x21c6;" horiz-adv-x="2451" 
d="M723 1284h1548v-268h-1548v-361l-582 500l582 504v-375zM1757 190h-1550v269h1550v368l582 -503l-582 -500v366z" />
    <glyph glyph-name="partialdiff" unicode="&#x2202;" horiz-adv-x="1282" 
d="M652 686q-140 0 -206 -62t-66 -158t72 -154q71 -58 158 -58q137 0 203 95t76 239q-97 98 -237 98zM522 1188q-156 0 -303 -72l-110 252q197 106 410 106q346 0 531 -218q70 -82 114 -221q44 -140 44 -322q0 -326 -154 -536t-454 -210q-221 0 -378 134t-156 374
q0 145 76 256q77 111 188 163t231 52q223 0 320 -112q-33 354 -359 354z" />
    <glyph glyph-name="Delta" unicode="&#x2206;" horiz-adv-x="1443" 
d="M721 1104l-279 -801h559zM0 0l545 1452h354l545 -1452h-1444z" />
    <glyph glyph-name="product" unicode="&#x220f;" horiz-adv-x="1402" 
d="M1247 0h-325v1153h-441v-1153h-323v1452h1089v-1452z" />
    <glyph glyph-name="summation" unicode="&#x2211;" horiz-adv-x="1169" 
d="M66 0v297l503 426l-503 434v295h1071v-301h-625l496 -428l-514 -422h643v-301h-1071z" />
    <glyph glyph-name="minus" unicode="&#x2212;" horiz-adv-x="1214" 
d="M1120 485h-1026v254h1026v-254z" />
    <glyph glyph-name="uni2215" unicode="&#x2215;" horiz-adv-x="950" 
d="M950 1356l-674 -1385h-276l672 1385h278z" />
    <glyph glyph-name="uni2219" unicode="&#x2219;" horiz-adv-x="600" 
d="M117 658q0 80 56 134t136 54t136 -54q57 -54 57 -134t-56 -133q-56 -54 -137 -54q-80 0 -136 54t-56 133z" />
    <glyph glyph-name="radical" unicode="&#x221a;" horiz-adv-x="1462" 
d="M1524 1561h-283l-518 -1561h-270l-390 1110h287l240 -709l461 1411h473v-251z" />
    <glyph glyph-name="infinity" unicode="&#x221e;" horiz-adv-x="1732" 
d="M1235 463q59 0 97 37t38 92t-38 93t-97 38q-86 0 -199 -131q111 -129 199 -129zM500 723q-60 0 -98 -38t-38 -93t38 -92q36 -37 98 -37q92 0 196 125q-114 135 -196 135zM500 197q-182 1 -299 113t-117 284t117 286t305 114t364 -195q188 195 368 195t296 -114
q117 -114 117 -285t-117 -285q-118 -114 -306 -114t-364 189q-182 -188 -364 -188z" />
    <glyph glyph-name="integral" unicode="&#x222b;" horiz-adv-x="757" 
d="M223 -18v1065q0 188 109 298t297 109h119v-272h-109q-47 0 -75 -32t-27 -87v-1065q0 -188 -109 -298t-297 -110h-121v273h111q45 0 74 32q28 32 28 87z" />
    <glyph glyph-name="approxequal" unicode="&#x2248;" horiz-adv-x="1243" 
d="M826 207q-114 0 -224 61l-98 54q-53 27 -101 26q-104 0 -174 -98l-166 133q55 105 147 163t206 58q113 0 223 -59l96 -53q53 -29 105 -29q110 0 178 100l162 -135q-56 -106 -148 -164t-206 -57zM401 768q-104 0 -172 -100l-166 133q55 107 147 165t207 58q116 0 222 -59
l96 -54q51 -29 105 -28q110 0 178 98l162 -133q-54 -106 -146 -164t-204 -58q-112 -1 -228 62l-98 53q-47 27 -103 27z" />
    <glyph glyph-name="notequal" unicode="&#x2260;" horiz-adv-x="1243" 
d="M1128 283h-563l-121 -197h-270l121 197h-180v249h334l98 162h-432v250h585l111 180h270l-110 -180h157v-250h-311l-98 -162h409v-249z" />
    <glyph glyph-name="lessequal" unicode="&#x2264;" horiz-adv-x="1120" 
d="M106 659v246l900 266v-251l-545 -134l545 -135v-258zM106 336h900v-254h-900v254z" />
    <glyph glyph-name="greaterequal" unicode="&#x2265;" horiz-adv-x="1120" 
d="M1014 905v-246l-899 -266v252l544 133l-544 137v256zM115 336h899v-254h-899v254z" />
    <glyph glyph-name="dotmath" unicode="&#x22c5;" horiz-adv-x="600" 
d="M117 658q0 80 56 134t136 54t136 -54q57 -54 57 -134t-56 -133q-56 -54 -137 -54q-80 0 -136 54t-56 133z" />
    <glyph glyph-name="uni24C5" unicode="&#x24c5;" horiz-adv-x="1665" 
d="M922 590h-134v-275h-213v818h347q116 0 198 -80t82 -193q0 -114 -80 -192t-200 -78zM788 762h91q49 0 79 26t29 72q0 45 -30 73t-78 28h-91v-199zM74 725q0 313 222 537t535 223q313 0 537 -223q224 -222 223 -536q0 -314 -223 -536q-222 -222 -536 -223q-314 1 -536 223
t-222 535zM256 725q0 -248 166 -419t410 -171t410 171q167 171 167 419t-167 420t-411 172q-243 0 -409 -172t-166 -420z" />
    <glyph glyph-name="filledbox" unicode="&#x25a0;" horiz-adv-x="1845" 
d="M199 0v1452h1450v-1452h-1450z" />
    <glyph glyph-name="H22073" unicode="&#x25a1;" horiz-adv-x="1845" 
d="M465 1186v-922h909v922h-909zM1649 0h-1450v1452h1450v-1452z" />
    <glyph glyph-name="uni25AF" unicode="&#x25af;" horiz-adv-x="1218" 
d="M391 254h436v944h-436v-944zM137 0v1452h944v-1452h-944z" />
    <glyph glyph-name="triagup" unicode="&#x25b2;" horiz-adv-x="1718" 
d="M862 1485l856 -1485h-1718z" />
    <glyph glyph-name="uni25B3" unicode="&#x25b3;" horiz-adv-x="1716" 
d="M1251 266l-393 682l-393 -682h786zM858 1485l858 -1485h-1716z" />
    <glyph glyph-name="lozenge" unicode="&#x25ca;" horiz-adv-x="1327" 
d="M53 725l430 727h361l430 -727l-430 -725h-361zM412 725l252 -434l251 434l-251 436z" />
    <glyph glyph-name="circle" unicode="&#x25cb;" horiz-adv-x="1646" 
d="M332 725q0 -203 144 -348t347 -145t345 144q142 146 143 349q-1 203 -143 349t-345 146t-347 -146t-144 -349zM66 725q0 315 221 537t536 223q315 0 537 -222q222 -221 223 -537q0 -316 -222 -538q-221 -222 -537 -221q-316 -1 -537 221t-221 537z" />
    <glyph glyph-name="H18533" unicode="&#x25cf;" horiz-adv-x="1646" 
d="M66 725q0 315 221 537t536 223q315 0 537 -222q222 -221 223 -537q0 -316 -222 -538q-221 -222 -537 -221q-316 -1 -537 221t-221 537z" />
    <glyph glyph-name="uni262E" unicode="&#x262e;" horiz-adv-x="1662" 
d="M481 371q98 -94 215 -127v299zM956 242q117 29 218 123l-218 178v-301zM336 725q0 -70 18 -131l342 266v346q-158 -45 -259 -179t-101 -302zM1323 725q0 172 -103 306t-264 177v-348l347 -270q20 61 20 135zM1589 725q0 -315 -221 -537q-222 -222 -536 -221
q-314 0 -536 221q-222 220 -222 536t222 538t536 223q314 0 536 -222q221 -223 221 -538z" />
    <glyph glyph-name="uni2713" unicode="&#x2713;" horiz-adv-x="1900" 
d="M1876 1296l-1241 -1329l-610 674l194 182l424 -463l1045 1125z" />
    <glyph glyph-name="uni2715" unicode="&#x2715;" horiz-adv-x="1546" 
d="M1329 -10l-559 553l-551 -553l-186 186l549 551l-549 545l186 184l549 -543l541 543l186 -184l-541 -543l559 -553z" />
    <glyph glyph-name="uni2780" unicode="&#x2780;" horiz-adv-x="1683" 
d="M999 352h-235v434h-193v152q98 0 154 51q55 51 68 117h206v-754zM84 725q0 313 222 537t536 223q314 0 535 -223q222 -222 222 -536t-222 -536t-536 -223q-314 0 -536 222q-221 223 -221 536zM264 725q0 -248 167 -419t410 -171t409 171t167 419q0 248 -167 420
q-168 172 -410 172t-409 -172t-167 -420z" />
    <glyph glyph-name="uni2781" unicode="&#x2781;" horiz-adv-x="1683" 
d="M832 1151q142 0 225 -74q82 -74 82 -182q0 -133 -172 -233l-138 -80q-10 -6 -10 -11h326v-194h-619v26q0 227 187 332l123 70q74 41 73 92q0 25 -19 47q-18 22 -62 23q-44 0 -68 -28q-24 -29 -23 -61q0 -32 6 -44h-204q-8 33 -9 55q0 111 80 187t222 75zM84 725
q0 313 222 537t536 223q314 0 535 -223q222 -222 222 -536t-222 -536t-536 -223q-314 0 -536 222q-221 223 -221 536zM264 725q0 -248 167 -419t410 -171t409 171t167 419q0 248 -167 420q-168 172 -410 172t-409 -172t-167 -420z" />
    <glyph glyph-name="uni2782" unicode="&#x2782;" horiz-adv-x="1683" 
d="M836 510q46 0 72 22t26 58q0 37 -27 57q-27 21 -63 21t-64 -13l-71 154l161 96h-323v189h596v-191l-174 -104q96 -15 148 -73t52 -155t-91 -175t-233 -77q-142 0 -230 74q-87 74 -95 174l211 37q2 -38 31 -66t74 -28zM84 725q0 313 222 537t536 223q314 0 535 -223
q222 -222 222 -536t-222 -536t-536 -223q-314 0 -536 222q-221 223 -221 536zM264 725q0 -248 167 -419t410 -171t409 171t167 419q0 248 -167 420q-168 172 -410 172t-409 -172t-167 -420z" />
    <glyph glyph-name="uni2783" unicode="&#x2783;" horiz-adv-x="1683" 
d="M827 684v209l-186 -209h186zM471 510v229l336 381h248v-436h121v-174h-121v-145h-228v145h-356zM84 725q0 313 222 537t536 223q314 0 535 -223q222 -222 222 -536t-222 -536t-536 -223q-314 0 -536 222q-221 223 -221 536zM264 725q0 -248 167 -419t410 -171t409 171
t167 419q0 248 -167 420q-168 172 -410 172t-409 -172t-167 -420z" />
    <glyph glyph-name="uni2784" unicode="&#x2784;" horiz-adv-x="1683" 
d="M826 510q44 0 70 22t26 60q0 94 -103 94q-59 0 -96 -41l-188 53l90 389h473v-184h-338l-25 -106q53 41 161 41t180 -65t71 -181q0 -116 -85 -194q-84 -79 -224 -79t-229 71t-99 175l205 37q2 -40 35 -66q32 -26 76 -26zM84 725q0 313 222 537t536 223q314 0 535 -223
q222 -222 222 -536t-222 -536t-536 -223q-314 0 -536 222q-221 223 -221 536zM264 725q0 -248 167 -419t410 -171t409 171t167 419q0 248 -167 420q-168 172 -410 172t-409 -172t-167 -420z" />
    <glyph glyph-name="uni2785" unicode="&#x2785;" horiz-adv-x="1683" 
d="M725 603q0 -39 27 -63q28 -24 68 -24t68 25t28 63t-28 63t-69 25t-67 -26t-27 -63zM948 936q-184 0 -233 -145q69 57 177 57t182 -62t75 -180q0 -120 -91 -196q-92 -76 -238 -76t-241 95t-96 253q0 203 129 322t324 118q90 1 188 -28l-39 -181q-63 23 -137 23zM84 725
q0 313 222 537t536 223q314 0 535 -223q222 -222 222 -536t-222 -536t-536 -223q-314 0 -536 222q-221 223 -221 536zM264 725q0 -248 167 -419t410 -171t409 171t167 419q0 248 -167 420q-168 172 -410 172t-409 -172t-167 -420z" />
    <glyph glyph-name="uni2786" unicode="&#x2786;" horiz-adv-x="1683" 
d="M1155 1083v-188q-246 -209 -278 -567h-246q12 194 95 344q84 150 134 196l23 25h-367v190h639zM84 725q0 313 222 537t536 223q314 0 535 -223q222 -222 222 -536t-222 -536t-536 -223q-314 0 -536 222q-221 223 -221 536zM264 725q0 -248 167 -419t410 -171t409 171
t167 419q0 248 -167 420q-168 172 -410 172t-409 -172t-167 -420z" />
    <glyph glyph-name="uni2787" unicode="&#x2787;" horiz-adv-x="1683" 
d="M1171 571q1 -105 -85 -169t-242 -64t-244 61t-88 164q0 66 44 115t112 65q-62 17 -98 65t-35 105q0 92 80 153q81 60 227 60t227 -60q80 -60 80 -153q0 -57 -35 -104t-98 -66q66 -18 110 -65t45 -107zM842 514q51 0 76 24q24 24 24 54t-26 54q-26 22 -74 22t-75 -23
q-26 -23 -26 -53t25 -54t76 -24zM842 813q38 1 60 21t22 46t-22 46t-60 20t-61 -20q-21 -20 -21 -46t22 -46t60 -21zM84 725q0 313 222 537t536 223q314 0 535 -223q222 -222 222 -536t-222 -536t-536 -223q-314 0 -536 222q-221 223 -221 536zM264 725q0 -248 167 -419
t410 -171t409 171t167 419q0 248 -167 420q-168 172 -410 172t-409 -172t-167 -420z" />
    <glyph glyph-name="uni2788" unicode="&#x2788;" horiz-adv-x="1683" 
d="M850 770q42 0 68 24t26 63q0 38 -26 63q-27 24 -68 24t-68 -24q-26 -24 -26 -63t26 -63t68 -24zM727 522q203 0 242 148q-69 -58 -175 -58t-187 64t-81 180q0 117 89 195q89 77 237 77t244 -97q94 -97 94 -253q0 -208 -124 -326t-314 -118q-85 0 -187 31l35 180
q51 -23 127 -23zM84 725q0 313 222 537t536 223q314 0 535 -223q222 -222 222 -536t-222 -536t-536 -223q-314 0 -536 222q-221 223 -221 536zM264 725q0 -248 167 -419t410 -171t409 171t167 419q0 248 -167 420q-168 172 -410 172t-409 -172t-167 -420z" />
    <glyph glyph-name="uniE000" unicode="&#xe000;" horiz-adv-x="1456" 
d="M330 532v920h1143v-268h-875v-652h360l-501 -563l-496 563h369z" />
    <glyph glyph-name="uni21B5" unicode="&#xe001;" horiz-adv-x="2304" 
d="M1909 725q0 -315 -221 -537t-537 -221q-182 0 -346 84l123 236q106 -55 223 -56q201 -1 343 145t142 349h-346l475 555l478 -555h-334zM401 725q1 315 223 537t537 223q190 0 346 -84l-123 -238q-100 55 -223 56q-203 1 -347 -145t-144 -349h348l-475 -555l-477 555h335z
" />
    <glyph glyph-name="uniE002" unicode="&#xe002;" horiz-adv-x="1966" 
d="M1602 725q0 -315 -222 -537t-536 -221q-315 0 -538 221q-222 220 -222 536t222 538t538 223q156 0 297 -60l-105 -247q-88 41 -192 41q-203 1 -347 -145q-145 -146 -145 -349t144 -348t347 -145q202 0 344 144q142 146 142 349h-350l475 555l477 -555h-329z" />
    <glyph glyph-name="uniFB00" unicode="&#xfb00;" horiz-adv-x="1413" 
d="M1386 756h-221v-756h-311v756h-358v-756h-312v756h-161v262h161v88q0 178 104 286t285 107q102 0 148 -22v-254q-41 10 -92 10t-92 -29t-41 -98v-88h358v88q0 178 102 286t285 107q109 0 150 -20v-256q-41 10 -93 10t-93 -29q-40 -29 -40 -98v-88h221v-262z" />
    <glyph glyph-name="fi" unicode="&#xfb01;" horiz-adv-x="1316" 
d="M844 1329q0 76 53 129t129 53t129 -53t53 -129t-54 -129t-129 -53t-128 53t-53 129zM870 756h-374v-756h-312v756h-161v262h161v88q0 178 104 286t285 107q98 0 144 -22v-254q-37 10 -88 10t-92 -29t-41 -98v-88h686v-1018h-312v756z" />
    <glyph glyph-name="fl" unicode="&#xfb02;" horiz-adv-x="1318" 
d="M629 1233q-51 0 -92 -29t-41 -98v-88h372v465h314v-1483h-314v756h-372v-756h-312v756h-161v262h161v88q0 178 104 286t285 107q98 0 144 -22v-254q-37 10 -88 10z" />
    <glyph glyph-name="uniFB03" unicode="&#xfb03;" horiz-adv-x="1992" 
d="M1520 1329q0 76 53 129t129 53t129 -53t53 -129t-53 -129t-129 -53t-129 53t-53 129zM573 1499q98 0 148 -24v-252q-41 10 -92 10q-133 0 -133 -127v-88h358v88q0 178 102 286t285 107q104 0 150 -22v-254q-41 10 -93 10t-93 -29q-40 -29 -40 -98v-88h695v-1018h-314v756
h-381v-756h-311v756h-358v-756h-312v756h-161v262h161v88q0 178 104 286t285 107z" />
    <glyph glyph-name="uniFB04" unicode="&#xfb04;" horiz-adv-x="1996" 
d="M629 1233q-51 0 -92 -29t-41 -98v-88h358v88q0 178 102 286t285 107q104 0 150 -22v-254q-41 10 -93 10t-93 -29q-40 -29 -40 -98v-88h383v465h312v-1483h-312v756h-383v-756h-311v756h-358v-756h-312v756h-161v262h161v88q0 178 104 286t285 107q102 0 148 -22v-254
q-41 10 -92 10z" />
    <glyph glyph-name="uniFEFF" unicode="&#xfeff;" horiz-adv-x="0" 
 />
    <glyph glyph-name="i.latn_TRK" horiz-adv-x="583" 
d="M111 1329q0 76 53 129t128 53t129 -53t54 -129t-54 -129t-129 -53t-128 53t-53 129zM449 0h-312v1018h312v-1018z" />
    <glyph glyph-name="Ldot.latn_CAT" horiz-adv-x="1159" 
d="M1108 0h-950v1452h323v-1143h627v-309z" />
    <glyph glyph-name="ldot.latn_CAT" horiz-adv-x="956" 
d="M543 692q0 76 52 127t129 51t130 -51t53 -126t-53 -126t-130 -51t-129 50t-52 126zM449 0h-312v1483h312v-1483z" />
    <glyph glyph-name="zero.numr" horiz-adv-x="899" 
d="M96 952q0 166 74 267q94 129 280 129t279 -129q74 -101 74 -267t-74 -266q-98 -129 -280 -129t-279 131q-74 98 -74 264zM334 952q0 -205 115 -204q115 0 115 204t-116 205q-114 0 -114 -205z" />
    <glyph glyph-name="one.numr" horiz-adv-x="649" 
d="M494 575h-236v435h-192v151q98 0 153 51t68 117h207v-754z" />
    <glyph glyph-name="two.numr" horiz-adv-x="811" 
d="M404 1348q142 0 225 -74q82 -74 82 -182q0 -133 -172 -234l-138 -80q-10 -6 -10 -10h326v-195h-619v27q0 227 187 332l123 69q74 41 73 93q0 26 -19 48q-18 22 -62 22t-68 -28t-23 -61q0 -33 6 -45h-204q-8 33 -9 55q0 111 80 187t222 76z" />
    <glyph glyph-name="three.numr" horiz-adv-x="841" 
d="M412 745q46 0 72 22q26 23 26 59t-27 56t-63 21q-36 0 -64 -12l-71 153l161 97h-323v188h596v-190l-174 -105q96 -14 148 -72t52 -156t-91 -174q-91 -77 -233 -77t-230 74q-87 74 -95 174l211 37q2 -39 31 -67t74 -28z" />
    <glyph glyph-name="four.numr" horiz-adv-x="897" 
d="M453 893v209l-187 -209h187zM96 719v229l336 381h248v-436h121v-174h-121v-146h-227v146h-357z" />
    <glyph glyph-name="five.numr" horiz-adv-x="823" 
d="M508 834q0 94 -102 94q-59 0 -97 -41l-188 53l90 389h473v-184h-338l-24 -107q52 41 160 41q108 -1 180 -65t72 -180t-86 -194q-85 -79 -224 -79q-138 0 -228 71t-100 175l205 37q2 -41 35 -67q33 -25 77 -25q43 0 69 22t26 60z" />
    <glyph glyph-name="six.numr" horiz-adv-x="858" 
d="M338 822q0 -38 27 -62t67 -25q40 0 69 25q27 24 27 62t-27 64q-28 26 -69 26q-42 0 -68 -26t-26 -64zM504 1067q108 0 184 -61q74 -60 74 -180t-91 -196t-237 -77q-146 0 -243 95q-95 95 -95 253q0 203 129 322t324 118q90 1 188 -28l-39 -180q-63 23 -137 22
q-184 0 -233 -145q68 57 176 57z" />
    <glyph glyph-name="seven.numr" horiz-adv-x="829" 
d="M735 1329v-188q-246 -209 -278 -568h-246q15 257 170 469q35 49 57 72l25 25h-367v190h639z" />
    <glyph glyph-name="eight.numr" horiz-adv-x="868" 
d="M436 557q-156 0 -244 61t-88 164q0 66 44 115t112 66q-63 18 -98 65t-35 105q0 92 81 152q81 61 227 61q147 0 227 -60t79 -153q0 -57 -34 -105q-35 -47 -99 -65q66 -17 111 -65t45 -107q0 -106 -86 -170t-242 -64zM434 733q51 0 76 24q25 25 25 55t-26 52t-75 23
q-49 0 -75 -23q-25 -24 -25 -54t24 -54t76 -23zM434 1165q-38 0 -60 -20t-22 -46q0 -27 22 -47t60 -20q39 0 61 20q21 20 21 47q0 26 -21 46q-22 20 -61 20z" />
    <glyph glyph-name="nine.numr" horiz-adv-x="858" 
d="M420 989q42 1 68 25t26 62t-27 63t-67 25t-68 -26q-26 -24 -26 -62t26 -62t68 -25zM297 741q203 0 242 148q-69 -57 -175 -57t-187 62q-81 64 -81 181t89 195t237 78t244 -98q94 -98 94 -253q0 -207 -124 -325t-314 -119q-85 0 -187 31l35 180q51 -23 127 -23z" />
    <glyph glyph-name="zero.dnom" horiz-adv-x="899" 
d="M96 377q0 166 74 266q94 129 280 129t279 -129q74 -100 74 -266t-74 -266q-98 -129 -280 -129t-279 131q-74 98 -74 264zM334 377q0 -205 115 -205t114 205t-115 205t-114 -205z" />
    <glyph glyph-name="one.dnom" horiz-adv-x="630" 
d="M494 0h-236v434h-192v152q98 0 153 51t68 117h207v-754z" />
    <glyph glyph-name="two.dnom" horiz-adv-x="811" 
d="M404 774q142 0 225 -74q82 -74 82 -182q0 -133 -172 -233l-138 -80q-10 -6 -10 -10h326v-195h-619v27q0 227 187 331l123 70q74 41 73 92q0 26 -19 48q-18 22 -62 22t-68 -28t-23 -60q0 -32 6 -45h-204q-8 33 -9 55q0 110 80 186t222 76z" />
    <glyph glyph-name="three.dnom" horiz-adv-x="841" 
d="M412 172q46 0 72 22t26 58t-27 57q-55 40 -127 8l-71 154l161 96h-323v189h596v-191l-174 -104q96 -15 148 -73t52 -155t-91 -175t-233 -76q-142 0 -230 73q-87 74 -95 174l211 37q2 -38 31 -66t74 -28z" />
    <glyph glyph-name="four.dnom" horiz-adv-x="897" 
d="M453 319v209l-187 -209h187zM96 145v230l336 381h248v-437h121v-174h-121v-145h-227v145h-357z" />
    <glyph glyph-name="five.dnom" horiz-adv-x="829" 
d="M413 176q43 0 69 23t26 59q0 94 -102 94q-59 0 -97 -41l-188 54l90 389h473v-185h-338l-24 -106q52 41 160 41t180 -65t72 -181t-86 -194q-85 -78 -224 -78q-138 0 -228 70t-100 175l205 37q2 -40 35 -66t77 -26z" />
    <glyph glyph-name="six.dnom" horiz-adv-x="858" 
d="M432 340q-42 0 -68 -26t-26 -63q0 -38 27 -63q27 -24 67 -24t69 24q27 24 27 63q0 37 -28 63t-68 26zM561 584q-184 0 -233 -146q68 58 176 58t184 -62q74 -62 74 -180q0 -119 -91 -196q-91 -76 -237 -76t-243 95q-95 95 -95 253q0 204 129 322t324 118q90 0 188 -29
l-39 -180q-63 23 -137 23z" />
    <glyph glyph-name="seven.dnom" horiz-adv-x="829" 
d="M735 756v-189q-246 -209 -278 -567h-246q6 100 35 196t84 193q55 98 108 152l25 24h-367v191h639z" />
    <glyph glyph-name="eight.dnom" horiz-adv-x="868" 
d="M764 217q0 -105 -86 -169t-242 -64t-244 61t-88 164q0 66 44 115t112 65q-63 17 -98 65t-35 105q0 93 81 153t227 60q147 0 227 -60t79 -153q-1 -57 -35 -104t-98 -66q66 -18 111 -65t45 -107zM434 160q51 0 76 24t25 54q0 32 -26 54t-75 22t-75 -24q-25 -22 -25 -52
t24 -55q25 -23 76 -23zM352 525q0 -26 22 -46t60 -20q39 0 61 20q21 20 21 46t-21 46q-22 21 -61 21q-38 0 -60 -20t-22 -47z" />
    <glyph glyph-name="nine.dnom" horiz-adv-x="858" 
d="M514 503q0 39 -27 63t-67 24t-68 -25q-26 -25 -26 -63t26 -62t68 -24t68 24t26 63zM364 258q-106 0 -187 64t-81 180t89 194t237 78t244 -97q94 -97 94 -253q0 -207 -124 -326t-314 -118q-85 -1 -187 30l35 180q51 -23 127 -22q203 0 242 147q-69 -57 -175 -57z" />
    <glyph glyph-name="space.frac" horiz-adv-x="100" 
 />
    <glyph glyph-name="a.ordn" horiz-adv-x="864" 
d="M410 756q51 0 87 32t35 105v31l-126 -21q-78 -11 -78 -79t82 -68zM102 813q0 90 60 145t153 70l166 25q51 8 51 49q0 31 -26 51q-27 21 -76 21t-81 -30t-36 -71l-196 41q10 88 90 163q79 75 235 75t234 -79t78 -200v-348q0 -53 8 -111h-205q-6 31 -6 78q-61 -98 -187 -98
t-194 64t-68 155z" />
    <glyph glyph-name="b.ordn" horiz-adv-x="1036" 
d="M698 973q0 82 -45 126t-111 44t-111 -44q-46 -44 -46 -126t46 -126t112 -44q67 0 111 44t44 126zM385 614h-221v1039h225v-387q23 34 78 58t125 24q152 0 242 -104t90 -269q0 -164 -96 -270q-96 -107 -240 -107q-143 0 -203 94v-78z" />
    <glyph glyph-name="c.ordn" horiz-adv-x="944" 
d="M498 1143q-70 0 -115 -46t-45 -125t46 -124t108 -45q62 1 100 29q37 28 49 71l201 -57q-25 -104 -115 -178q-89 -74 -239 -74t-263 106t-113 272t110 272q110 108 260 108t240 -74q91 -74 116 -178l-203 -60q-31 103 -137 103z" />
    <glyph glyph-name="d.ordn" horiz-adv-x="1042" 
d="M340 973q0 -82 46 -126t112 -44t110 44t45 126q0 82 -45 126q-44 44 -110 44t-112 -44t-46 -126zM874 1653v-912q0 -66 5 -127h-217q-6 18 -7 64q-57 -80 -197 -80t-243 106q-102 106 -102 269q0 162 98 268q99 107 245 107t193 -70v375h225z" />
    <glyph glyph-name="e.ordn" horiz-adv-x="923" 
d="M479 784q102 0 137 88l191 -51q-29 -98 -115 -163q-86 -64 -228 -64t-252 103t-110 273t106 276t264 106q157 0 253 -98t96 -269l-4 -72h-495q4 -55 50 -92t107 -37zM467 1174q-65 0 -101 -36t-40 -79h276q-4 45 -37 80t-98 35z" />
    <glyph glyph-name="f.ordn" horiz-adv-x="698" 
d="M594 1139h-154v-525h-225v525h-113v190h113v57q0 125 73 202t204 77q76 0 104 -14v-187q-83 23 -128 -12q-28 -20 -28 -66v-57h154v-190z" />
    <glyph glyph-name="g.ordn" horiz-adv-x="956" 
d="M340 991q0 -69 42 -109t106 -40t106 41q41 41 41 109t-43 110q-44 41 -104 41t-104 -42t-44 -110zM463 522q172 0 172 178v21q-55 -76 -193 -76t-234 99q-95 100 -95 246t95 250t238 103q78 1 127 -27t68 -61v74h217v-622q0 -168 -97 -277t-288 -108q-147 0 -246 75
q-98 76 -114 176l198 58q13 -49 53 -79t99 -30z" />
    <glyph glyph-name="h.ordn" horiz-adv-x="1007" 
d="M393 614h-229v1039h229v-367q61 62 187 62t195 -80t69 -205v-449h-228v410q0 53 -28 86q-29 33 -79 33t-81 -31t-35 -78v-420z" />
    <glyph glyph-name="i.ordn" horiz-adv-x="589" 
d="M164 1543q0 54 39 92t92 38t92 -38t39 -92t-39 -93t-92 -39t-92 39t-39 93zM410 614h-230v715h230v-715z" />
    <glyph glyph-name="j.ordn" horiz-adv-x="690" 
d="M264 1543q0 54 39 92t92 38t92 -38t39 -92t-39 -93t-92 -39t-92 39t-39 93zM281 592v737h229v-764q0 -109 -66 -177t-176 -66q-70 0 -125 18v190q33 -8 68 -8q70 0 70 70z" />
    <glyph glyph-name="k.ordn" horiz-adv-x="970" 
d="M393 614h-229v1039h229v-555l207 231h293l-277 -299l283 -416h-276l-164 246l-66 -72v-174z" />
    <glyph glyph-name="l.ordn" horiz-adv-x="557" 
d="M393 614h-229v1039h229v-1039z" />
    <glyph glyph-name="m.ordn" horiz-adv-x="1447" 
d="M393 614h-229v715h219v-82q25 47 84 76t119 29q154 0 213 -111q78 111 205 111q128 0 204 -69t76 -206v-463h-219v410q0 51 -28 84t-82 33t-84 -34t-29 -83v-410h-226v410q0 51 -27 84q-28 33 -82 33t-84 -34t-30 -83v-410z" />
    <glyph glyph-name="n.ordn" horiz-adv-x="1007" 
d="M393 1024v-410h-229v715h221v-80q27 47 83 73t116 26q128 0 194 -80t66 -205v-449h-228v410q0 53 -28 86q-29 33 -81 33t-83 -34t-31 -85z" />
    <glyph glyph-name="o.ordn" horiz-adv-x="987" 
d="M494 1352q162 0 272 -108t108 -272q0 -164 -109 -272q-109 -106 -271 -106t-272 106t-110 272t110 272q110 108 272 108zM340 973q0 -82 46 -126t110 -44t108 44t45 126q0 82 -45 126t-109 44q-63 0 -109 -44t-46 -126z" />
    <glyph glyph-name="p.ordn" horiz-adv-x="1036" 
d="M702 973q0 82 -45 126t-111 44t-111 -44q-46 -44 -46 -126t46 -126t112 -44q67 0 111 44t44 126zM393 342h-229v987h221v-69q23 36 79 62t128 26q152 0 242 -104t90 -269q0 -164 -96 -270q-96 -107 -236 -107q-139 0 -199 68v-324z" />
    <glyph glyph-name="q.ordn" horiz-adv-x="1038" 
d="M342 973q0 -82 45 -126t111 -44t112 44t45 126q0 82 -46 126q-45 44 -111 44t-111 -44t-45 -126zM874 342h-223v326q-53 -70 -195 -70t-242 105q-101 105 -101 269t97 270q97 105 249 106q84 0 133 -28t65 -56v65h217v-987z" />
    <glyph glyph-name="r.ordn" horiz-adv-x="636" 
d="M563 1114q-74 0 -122 -45t-48 -147v-308h-229v715h221v-92q23 47 82 79t160 13v-223q-31 8 -64 8z" />
    <glyph glyph-name="s.ordn" horiz-adv-x="817" 
d="M492 817q0 39 -68 55l-78 17q-217 47 -217 223q0 100 79 170t209 70q129 0 199 -68t76 -147l-186 -33q-10 84 -96 84q-31 0 -53 -16t-21 -42q0 -41 53 -51l92 -18q109 -19 166 -81t57 -153t-75 -162t-219 -71t-218 72t-79 153l192 31q2 -37 29 -64t78 -26q80 0 80 57z
" />
    <glyph glyph-name="t.ordn" horiz-adv-x="671" 
d="M422 1536v-207h137v-199h-137v-256q0 -72 76 -71q29 0 61 4v-186q-47 -19 -139 -19t-158 62t-65 170v296h-125v199h34q55 0 83 33t28 84v90h205z" />
    <glyph glyph-name="u.ordn" horiz-adv-x="962" 
d="M391 598q-131 0 -205 81t-73 198v452h227v-401q0 -53 29 -86t81 -33t82 32t31 83v405h230v-588q0 -66 6 -127h-217q-6 23 -7 72q-53 -88 -184 -88z" />
    <glyph glyph-name="v.ordn" horiz-adv-x="874" 
d="M834 1329l-271 -715h-229l-293 715h246l162 -432l147 432h238z" />
    <glyph glyph-name="w.ordn" horiz-adv-x="1302" 
d="M539 1329h241l133 -409l115 409h223l-221 -715h-225l-152 453l-149 -453h-230l-223 715h236l114 -407z" />
    <glyph glyph-name="x.ordn" horiz-adv-x="874" 
d="M57 614l244 357l-250 358h268l121 -186l121 186h254l-246 -350l254 -365h-264l-129 193l-123 -193h-250z" />
    <glyph glyph-name="y.ordn" horiz-adv-x="897" 
d="M422 342h-240l162 371l-301 616h254l170 -371l151 371h242z" />
    <glyph glyph-name="z.ordn" horiz-adv-x="829" 
d="M717 614h-604v201l309 322h-299v192h588v-186l-324 -334h330v-195z" />
    <glyph glyph-name="space.tf" 
 />
    <glyph glyph-name="numbersign.tf" 
d="M524 801l-57 -262h207l57 262h-207zM1182 1018v-217h-215l-58 -262h168v-220h-215l-67 -319h-236l68 319h-207l-68 -319h-235l67 319h-164v220h211l58 262h-166v217h211l67 311h236l-68 -311h207l68 311h235l-67 -311h170z" />
    <glyph glyph-name="dollar.tf" 
d="M748 -238h-236v220q-200 32 -310 158t-122 268l280 63q8 -95 76 -159t193 -64q78 0 127 35t49 92q0 88 -127 117l-182 43q-172 43 -271 144q-98 101 -98 256t110 269t275 142v221h236v-228q156 -35 242 -132t112 -216l-283 -76q-33 168 -209 168q-82 0 -127 -39t-45 -92
q0 -88 121 -116l178 -39q197 -43 289 -151t92 -254t-99 -261t-271 -145v-224z" />
    <glyph glyph-name="percent.tf" 
d="M856 -14q-123 0 -209 84t-86 204q0 121 87 205t209 84t208 -84t86 -206q0 -123 -86 -205t-209 -82zM754 272q0 -51 28 -81q28 -29 75 -29q46 0 75 31t29 81t-29 80q-29 31 -75 31q-47 0 -75 -31t-28 -82zM47 1061q0 121 87 205t209 84t208 -84t86 -206t-86 -205t-209 -83
t-209 84t-86 205zM240 1059q0 -51 28 -81t75 -30q46 0 75 31q28 31 28 81t-28 81q-29 31 -75 31t-75 -31q-28 -31 -28 -82zM1075 1098v-207l-987 -672v205z" />
    <glyph glyph-name="plus.tf" 
d="M80 737h389v400h262v-400h387v-254h-387v-399h-262v399h-389v254z" />
    <glyph glyph-name="comma.tf" 
d="M569 -4q-90 0 -146 58t-56 147q0 88 64 148q65 61 171 61t170 -82q66 -82 66 -204t-41 -222q-69 -168 -246 -253q-72 -34 -143 -42v160q82 17 152 83t73 162q-16 -16 -64 -16z" />
    <glyph glyph-name="period.tf" 
d="M369 213q0 94 67 163q68 68 164 68t165 -68t69 -163q0 -94 -70 -164q-70 -69 -164 -69t-163 69q-68 70 -68 164z" />
    <glyph glyph-name="zero.tf" 
d="M59 664q0 317 107 477q68 103 180 161t256 58q289 0 434 -217q106 -164 106 -480t-106 -479q-145 -217 -435 -217t-435 217q-107 163 -107 480zM385 682q0 -231 34 -312t94 -105q38 -15 88 -15t88 15q62 25 95 107q33 83 33 236q0 152 -5 209q-15 173 -90 225
q-46 33 -120 33t-121 -33q-96 -67 -96 -360z" />
    <glyph glyph-name="one.tf" 
d="M152 268h333v596h-299v215q143 2 235 73q91 71 109 177h279v-1061h303v-268h-960v268z" />
    <glyph glyph-name="two.tf" 
d="M599 1360q225 0 361 -126t136 -310q0 -258 -262 -414l-252 -150q-68 -43 -90 -90h614v-270h-1010q0 197 71 341t243 245l217 127q81 47 113 93t32 113t-46 111t-134 45q-88 0 -136 -55t-48 -141q0 -43 12 -82l-303 2q-12 33 -13 110q0 187 134 319t361 132z" />
    <glyph glyph-name="three.tf" 
d="M96 1059v270h959v-250l-328 -254q157 -10 265 -124q108 -113 108 -289t-142 -308t-373 -133q-230 0 -374 124q-143 124 -160 302l311 58q4 -89 62 -149t150 -60q91 0 146 53q54 53 54 135t-57 128t-127 46t-127 -30l-139 213l327 268h-555z" />
    <glyph glyph-name="four.tf" 
d="M666 547v438l-324 -438h324zM59 276v328l545 725h383v-782h187v-271h-187v-276h-321v276h-607z" />
    <glyph glyph-name="five.tf" 
d="M609 242q89 0 147 52q57 52 57 143t-60 143t-162 51q-102 0 -171 -86l-47 16q-238 74 -242 78l150 690h772v-270h-549l-53 -250q82 72 225 72q209 0 334 -117t125 -320q-1 -203 -141 -340t-366 -137t-372 124q-144 124 -156 288l299 61q5 -82 63 -140t147 -58z" />
    <glyph glyph-name="six.tf" 
d="M414 434q0 -84 58 -139t141 -55t141 53q57 53 57 139t-57 140q-56 54 -140 54t-142 -54t-58 -138zM811 1083q-162 0 -281 -86t-143 -258q37 61 117 103t190 43q195 0 317 -123t122 -323q1 -200 -145 -335t-377 -135t-385 164t-152 442q0 353 210 569t556 216
q182 0 274 -55l-84 -263q-106 41 -219 41z" />
    <glyph glyph-name="seven.tf" 
d="M1130 1329v-258q-483 -420 -538 -1071h-336q14 193 71 373q56 180 127 299q151 253 251 344l47 43h-703v270h1081z" />
    <glyph glyph-name="eight.tf" 
d="M600 -31q-227 0 -370 109q-142 109 -142 282q0 104 62 194t163 130q-96 35 -148 120t-52 171q0 169 136 277t351 108t352 -109t138 -276q0 -86 -54 -171t-149 -120q103 -41 165 -130t62 -194q0 -174 -144 -282t-370 -109zM601 231q91 1 144 51t53 116t-50 118
q-50 51 -146 51t-147 -51t-51 -118t52 -117q54 -50 145 -50zM770 946q0 60 -46 104t-124 44t-124 -43t-46 -103t44 -106q44 -45 126 -45t126 44t44 105z" />
    <glyph glyph-name="nine.tf" 
d="M561 715q79 0 135 53t56 134t-56 133t-135 52q-80 0 -135 -52t-55 -134t55 -134t135 -52zM410 246q148 0 259 81q112 81 126 246q-41 -59 -118 -94t-165 -35q-190 0 -319 125t-129 326t142 333t370 132t378 -168t150 -471q0 -352 -184 -552t-523 -200q-188 0 -309 70
l72 260q102 -53 250 -53z" />
    <glyph glyph-name="colon.tf" 
d="M379 829q0 90 65 156q66 66 156 66t157 -66t67 -156q0 -89 -68 -155q-66 -66 -156 -66t-156 66t-65 155zM379 176q0 90 65 156q66 66 156 66t157 -66t67 -156t-68 -156q-66 -66 -156 -66t-156 66q-65 66 -65 156z" />
    <glyph glyph-name="semicolon.tf" 
d="M379 827q0 90 65 156q66 66 156 66t157 -66t67 -156q0 -89 -68 -155q-66 -66 -156 -66t-156 66t-65 155zM569 2q-86 0 -138 54t-52 138q0 83 60 139q61 56 159 56t160 -77q62 -76 61 -190q0 -314 -268 -445q-68 -32 -135 -39v151q78 15 144 77t69 150q-18 -14 -60 -14z
" />
    <glyph glyph-name="less.tf" 
d="M145 500v221l899 459v-283l-589 -281l589 -284v-287z" />
    <glyph glyph-name="equal.tf" 
d="M1106 283h-1014v249h1014v-249zM1106 694h-1014v250h1014v-250z" />
    <glyph glyph-name="greater.tf" 
d="M1057 723v-221l-899 -457v281l590 282l-590 285v287z" />
    <glyph glyph-name="cent.tf" 
d="M750 0h-236v172q-172 41 -281 171t-109 312t109 315q109 132 281 169v190h236v-188q141 -29 232 -116t120 -200l-266 -77q-41 141 -193 141q-97 1 -159 -63t-62 -173t63 -170t151 -61t141 41q52 41 69 98l262 -78q-29 -115 -123 -203t-235 -114v-166z" />
    <glyph glyph-name="sterling.tf" 
d="M131 784h117q-29 86 -29 172q0 162 120 283t325 121q114 0 200 -36t133 -94q93 -115 93 -255v-10l-269 -39v10q0 78 -38 124q-39 46 -111 46t-114 -41t-42 -116t35 -165h360v-225h-288q2 -12 2 -37q0 -172 -127 -256h229q66 0 109 42t43 110l270 -17q1 -173 -105 -287
t-276 -114h-645v242q213 74 213 250q0 33 -6 67h-199v225z" />
    <glyph glyph-name="currency.tf" 
d="M412 508q0 -82 53 -134t137 -52t137 52t54 134t-53 134t-138 52t-137 -52t-53 -134zM156 505q0 114 51 210l-146 147l187 185l151 -152q94 47 207 47t197 -47l151 152l187 -185l-146 -147q53 -90 53 -203t-53 -213l146 -143l-187 -187l-149 152q-94 -47 -203 -47t-203 47
l-151 -152l-187 187l148 145q-53 90 -53 204z" />
    <glyph glyph-name="yen.tf" 
d="M1092 256h-342v-256h-301v256h-322v217h322v129h-322v217h174l-276 510h348l235 -483l236 483h334l-283 -510h197v-217h-342v-129h342v-217z" />
    <glyph glyph-name="section.tf" horiz-adv-x="1208" 
d="M770 467q0 76 -70 113l-208 110q-49 -45 -50 -92q0 -76 68 -113l209 -110q51 47 51 92zM1047 528q0 -166 -150 -258q147 -116 147 -290t-132 -287t-320 -113t-306 104q-120 104 -130 281l293 45q0 -84 43 -124t106 -40t99 33t36 84q0 72 -74 105l-206 104
q-137 70 -214 152t-77 211q0 172 149 258q-145 115 -145 291t132 287q132 112 320 112q188 1 307 -105q120 -106 128 -280l-291 -45q0 164 -154 164q-59 0 -95 -34t-36 -83q0 -70 74 -103l207 -106q137 -72 213 -152t76 -211z" />
    <glyph glyph-name="logicalnot.tf" 
d="M1096 264h-267v400h-763v256h1030v-656z" />
    <glyph glyph-name="plusminus.tf" 
d="M106 336h990v-254h-990v254zM106 897h363v240h262v-240h365v-254h-365v-237h-262v237h-363v254z" />
    <glyph glyph-name="multiply.tf" 
d="M936 88l-336 338l-336 -338l-184 188l334 336l-334 338l184 185l336 -338l336 338l184 -185l-336 -338l336 -336z" />
    <glyph glyph-name="divide.tf" 
d="M768 232q0 -72 -51 -122t-123 -50t-123 50q-51 51 -51 122t51 121t123 50t123 -50t51 -121zM84 485v254h1034v-254h-1034zM420 995q0 72 51 122t123 50t123 -50t51 -122t-51 -123t-123 -51t-123 51t-51 123z" />
    <glyph glyph-name="florin.tf" 
d="M260 758v258h242l35 168q33 164 149 249q118 85 238 85t217 -33v-266q-70 16 -128 16q-140 0 -169 -139l-17 -80h226v-258h-279l-158 -785q-34 -165 -150 -249t-238 -84t-222 30v269q160 -39 240 14q47 30 63 108l142 697h-191z" />
    <glyph glyph-name="uni2007.tf" 
 />
    <glyph glyph-name="uni2008.tf" 
 />
    <glyph glyph-name="perthousand.tf" 
d="M527 336q-41 0 -67 -28t-26 -70t27 -72q27 -29 67 -29t65 28t25 72q0 43 -26 71t-65 28zM891 336q-41 0 -67 -27t-26 -71t26 -73q26 -28 67 -28t67 28t25 72q1 43 -25 71t-67 28zM268 238q0 106 77 181t181 75t183 -74q78 74 183 74t182 -75t77 -183t-77 -180t-183 -72
t-182 71q-76 -71 -184 -71q-109 0 -183 74t-74 180zM47 1098q0 106 77 181t183 75t183 -75t77 -183t-77 -180q-76 -72 -184 -72t-184 74t-75 180zM307 1196q-41 0 -67 -28t-25 -71q0 -44 26 -72q27 -28 67 -28t66 28t26 72q0 43 -26 71t-67 28zM1096 1241v-207l-1010 -690
v205z" />
    <glyph glyph-name="Euro.tf" 
d="M219 660q0 29 2 55h-127v207h170q76 202 252 320t397 118q147 0 261 -45l-78 -264q-74 31 -183 30q-205 0 -307 -159h455l-57 -207h-461q-2 -27 -2 -55t2 -56h430l-55 -209h-302q102 -141 299 -141q111 0 185 31l74 -262q-106 -55 -259 -56q-227 0 -401 114t-250 314
h-170v209h127q-2 27 -2 56z" />
    <glyph glyph-name="minus.tf" 
d="M1114 485h-1026v254h1026v-254z" />
    <glyph glyph-name="approxequal.tf" 
d="M808 207q-112 0 -226 61l-99 54q-51 27 -104 26q-100 0 -170 -98l-168 133q55 105 146 163t204 58t225 -59l99 -53q53 -29 104 -29q108 0 176 100l164 -135q-55 -106 -147 -164t-204 -57zM381 768q-102 0 -172 -100l-168 133q57 107 148 165t204 58t223 -59l99 -54
q53 -29 104 -28q113 0 176 98l164 -133q-117 -219 -348 -223q-115 0 -229 63l-99 53q-51 27 -102 27z" />
    <glyph glyph-name="notequal.tf" 
d="M1106 283h-563l-121 -197h-270l120 197h-180v249h334l98 162h-432v250h586l110 180h271l-111 -180h158v-250h-311l-99 -162h410v-249z" />
    <glyph glyph-name="lessequal.tf" 
d="M154 659v246l899 266v-251l-545 -134l545 -135v-258zM154 336h899v-254h-899v254z" />
    <glyph glyph-name="greaterequal.tf" 
d="M1051 905v-246l-899 -266v252l544 133l-544 137v256zM152 336h899v-254h-899v254z" />
    <glyph glyph-name="parenleft.case" horiz-adv-x="663" 
d="M76 727q0 561 403 979l185 -154q-166 -199 -248 -386t-82 -439t82 -440t248 -385l-185 -154q-187 196 -295 430t-108 549z" />
    <glyph glyph-name="parenright.case" horiz-adv-x="663" 
d="M588 727q0 -315 -108 -549t-296 -430l-184 154q166 197 248 385t82 440t-82 439t-248 386l184 154q404 -414 404 -979z" />
    <glyph glyph-name="hyphen.case" horiz-adv-x="798" 
d="M707 580h-615v280h615v-280z" />
    <glyph glyph-name="bracketleft.case" horiz-adv-x="677" 
d="M668 -242h-510v1930h510v-232h-252v-1460h252v-238z" />
    <glyph glyph-name="bracketright.case" horiz-adv-x="677" 
d="M522 -242h-512v238h254v1460h-254v232h512v-1930z" />
    <glyph glyph-name="braceleft.case" horiz-adv-x="788" 
d="M92 600v254q197 0 197 180v252q0 199 108 300q109 101 299 102h82v-232h-76q-66 0 -110 -40t-45 -128v-301q0 -94 -52 -163t-151 -97q96 -27 150 -96q53 -70 53 -166v-301q0 -88 45 -128t110 -40h76v-232h-82q-190 0 -299 102t-108 302v252q0 180 -197 180z" />
    <glyph glyph-name="braceright.case" horiz-adv-x="788" 
d="M696 854v-254q-195 0 -194 -180v-252q0 -201 -109 -302t-301 -102h-82v232h76q66 0 112 40t46 128v301q0 96 52 166t148 96q-96 29 -148 97t-52 163v301q0 88 -46 128t-112 40h-76v232h82q194 0 302 -102t108 -300v-252q-1 -180 194 -180z" />
    <glyph glyph-name="exclamdown.case" horiz-adv-x="651" 
d="M150 1295q0 73 51 124t125 51t126 -51t52 -124t-52 -125t-126 -52t-125 52t-51 125zM440 997l72 -997h-373l72 997h229z" />
    <glyph glyph-name="guillemotleft.case" horiz-adv-x="1126" 
d="M1094 311h-293l-283 400l287 409h291l-285 -411zM627 311h-291l-283 400l287 409h289l-285 -411z" />
    <glyph glyph-name="uni00AD.case" horiz-adv-x="798" 
d="M707 584h-615v280h615v-280z" />
    <glyph glyph-name="guillemotright.case" horiz-adv-x="1126" 
d="M326 311h-293l284 398l-284 411h289l286 -409zM791 311h-291l282 398l-284 411h290l287 -409z" />
    <glyph glyph-name="questiondown.case" horiz-adv-x="1064" 
d="M381 1297q0 73 52 124t125 51t124 -50q51 -52 51 -125t-51 -125t-124 -52t-125 52t-52 125zM438 999h244q8 -57 8 -90q0 -174 -151 -288l-103 -78q-76 -59 -76 -133t48 -119t136 -45q89 0 138 55t49 137q0 37 -10 78l293 -24q8 -39 8 -89q0 -188 -135 -311t-359 -123
t-353 120q-130 120 -130 286q0 221 195 368l77 58q121 89 121 198z" />
    <glyph glyph-name="endash.case" horiz-adv-x="1302" 
d="M1182 586h-1059v270h1059v-270z" />
    <glyph glyph-name="emdash.case" horiz-adv-x="2195" 
d="M2054 586h-1911v270h1911v-270z" />
    <glyph glyph-name="guilsinglleft.case" horiz-adv-x="661" 
d="M627 311h-291l-283 400l287 409h289l-285 -411z" />
    <glyph glyph-name="guilsinglright.case" horiz-adv-x="661" 
d="M326 311h-293l284 398l-284 411h291l284 -409z" />
    <glyph glyph-name="G.ss01" horiz-adv-x="1591" 
d="M826 -31q-318 0 -535 212t-217 542t219 545t532 215q152 0 276 -44t204 -117q159 -145 200 -314l-319 -86q-23 92 -109 175t-254 83t-293 -115q-124 -115 -124 -335t122 -340t306 -120q125 0 224 58t124 168h-477v280h817q6 -43 6 -133q-4 -287 -194 -481t-508 -193z" />
    <glyph glyph-name="Gcircumflex.ss01" horiz-adv-x="1591" 
d="M731 1554h-276l250 271h296l254 -271h-288l-119 134zM826 -31q-318 0 -535 212t-217 542t219 545t532 215q152 0 276 -44t204 -117q159 -145 200 -314l-319 -86q-23 92 -109 175t-254 83t-293 -115q-124 -115 -124 -335t122 -340t306 -120q125 0 224 58t124 168h-477v280
h817q6 -43 6 -133q-4 -287 -194 -481t-508 -193z" />
    <glyph glyph-name="Gbreve.ss01" horiz-adv-x="1591" 
d="M814 1542q-161 0 -250 84t-93 199h231q2 -45 31 -74t81 -29t81 29t31 74h229q-4 -115 -92 -199t-249 -84zM826 -31q-318 0 -535 212t-217 542t219 545t532 215q152 0 276 -44t204 -117q159 -145 200 -314l-319 -86q-23 92 -109 175t-254 83t-293 -115
q-124 -115 -124 -335t122 -340t306 -120q125 0 224 58t124 168h-477v280h817q6 -43 6 -133q-4 -287 -194 -481t-508 -193z" />
    <glyph glyph-name="Gdotaccent.ss01" horiz-adv-x="1591" 
d="M647 1733q0 76 52 127t129 51t130 -51q54 -51 54 -127t-54 -127q-54 -52 -130 -52q-77 0 -129 52t-52 127zM826 -31q-318 0 -535 212t-217 542t219 545t532 215q152 0 276 -44t204 -117q159 -145 200 -314l-319 -86q-23 92 -109 175t-254 83t-293 -115
q-124 -115 -124 -335t122 -340t306 -120q125 0 224 58t124 168h-477v280h817q6 -43 6 -133q-4 -287 -194 -481t-508 -193z" />
    <glyph glyph-name="Gcommaaccent.ss01" horiz-adv-x="1591" 
d="M676 -223q0 59 45 100t121 41t128 -55t52 -133q0 -213 -195 -266q-47 -13 -79 -13t-43 2v107q170 0 180 94q-29 -14 -81 -14t-90 39t-38 98zM826 -31q-318 0 -535 212t-217 542t219 545t532 215q152 0 276 -44t204 -117q159 -145 200 -314l-319 -86q-23 92 -109 175
t-254 83t-293 -115q-124 -115 -124 -335t122 -340t306 -120q125 0 224 58t124 168h-477v280h817q6 -43 6 -133q-4 -287 -194 -481t-508 -193z" />
    <glyph glyph-name="a.ss02" horiz-adv-x="1284" 
d="M844 121v10q-35 -74 -108 -117t-167 -43q-223 0 -364 153t-141 386t136 386q138 153 359 153q121 -1 191 -49t92 -99v117h301v-836q0 -92 8 -182h-299q-8 45 -8 121zM377 513q1 -126 67 -200q66 -73 165 -73t166 72t67 199q0 126 -66 197q-66 70 -168 70t-167 -69
q-64 -70 -64 -196z" />
    <glyph glyph-name="agrave.ss02" horiz-adv-x="1284" 
d="M537 1139l-291 309h354l191 -309h-254zM844 121v10q-35 -74 -108 -117t-167 -43q-223 0 -364 153t-141 386t136 386q138 153 359 153q121 -1 191 -49t92 -99v117h301v-836q0 -92 8 -182h-299q-8 45 -8 121zM377 513q1 -126 67 -200q66 -73 165 -73t166 72t67 199
q0 126 -66 197q-66 70 -168 70t-167 -69q-64 -70 -64 -196z" />
    <glyph glyph-name="aacute.ss02" horiz-adv-x="1284" 
d="M844 121v10q-35 -74 -108 -117t-167 -43q-223 0 -364 153t-141 386t136 386q138 153 359 153q121 -1 191 -49t92 -99v117h301v-836q0 -92 8 -182h-299q-8 45 -8 121zM377 513q1 -126 67 -200q66 -73 165 -73t166 72t67 199q0 126 -66 197q-66 70 -168 70t-167 -69
q-64 -70 -64 -196zM961 1448l-289 -309h-248l188 309h349z" />
    <glyph glyph-name="acircumflex.ss02" horiz-adv-x="1284" 
d="M844 121v10q-35 -74 -108 -117t-167 -43q-223 0 -364 153t-141 386t136 386q138 153 359 153q121 -1 191 -49t92 -99v117h301v-836q0 -92 8 -182h-299q-8 45 -8 121zM377 513q1 -126 67 -200q66 -73 165 -73t166 72t67 199q0 126 -66 197q-66 70 -168 70t-167 -69
q-64 -70 -64 -196zM481 1139h-231l231 309h293l234 -309h-238l-145 145z" />
    <glyph glyph-name="atilde.ss02" horiz-adv-x="1284" 
d="M1012 1446v-41q0 -131 -62 -199t-168 -67q-66 0 -154 45t-116 45q-68 0 -70 -88h-176v47q0 128 65 194t151 66t166 -46t118 -46q68 0 72 90h174zM844 121v10q-35 -74 -108 -117t-167 -43q-223 0 -364 153t-141 386t136 386q138 153 359 153q121 -1 191 -49t92 -99v117
h301v-836q0 -92 8 -182h-299q-8 45 -8 121zM377 513q1 -126 67 -200q66 -73 165 -73t166 72t67 199q0 126 -66 197q-66 70 -168 70t-167 -69q-64 -70 -64 -196z" />
    <glyph glyph-name="adieresis.ss02" horiz-adv-x="1284" 
d="M844 121v10q-35 -74 -108 -117t-167 -43q-223 0 -364 153t-141 386t136 386q138 153 359 153q121 -1 191 -49t92 -99v117h301v-836q0 -92 8 -182h-299q-8 45 -8 121zM377 513q1 -126 67 -200q66 -73 165 -73t166 72t67 199q0 126 -66 197q-66 70 -168 70t-167 -69
q-64 -70 -64 -196zM692 1294q0 66 45 112t111 46t112 -46t46 -112t-46 -110t-112 -45q-66 1 -111 45t-45 110zM240 1294q0 66 45 112t111 46t111 -46q46 -46 46 -112t-46 -110t-112 -45q-67 1 -111 45t-44 110z" />
    <glyph glyph-name="aring.ss02" horiz-adv-x="1284" 
d="M844 121v10q-35 -74 -108 -117t-167 -43q-223 0 -364 153t-141 386t136 386q138 153 359 153q121 -1 191 -49t92 -99v117h301v-836q0 -92 8 -182h-299q-8 45 -8 121zM377 513q1 -126 67 -200q66 -73 165 -73t166 72t67 199q0 126 -66 197q-66 70 -168 70t-167 -69
q-64 -70 -64 -196zM684 1335q0 35 -21 57q-22 22 -55 22q-32 0 -54 -22t-22 -57t22 -57t54 -21q32 -1 54 21t22 57zM846 1336q0 -99 -70 -164q-70 -64 -168 -64t-168 64t-70 164q0 99 70 165t168 66t168 -66t70 -165z" />
    <glyph glyph-name="amacron.ss02" horiz-adv-x="1284" 
d="M907 1182h-585v215h585v-215zM844 121v10q-35 -74 -108 -117t-167 -43q-223 0 -364 153t-141 386t136 386q138 153 359 153q121 -1 191 -49t92 -99v117h301v-836q0 -92 8 -182h-299q-8 45 -8 121zM377 513q1 -126 67 -200q66 -73 165 -73t166 72t67 199q0 126 -66 197
q-66 70 -168 70t-167 -69q-64 -70 -64 -196z" />
    <glyph glyph-name="abreve.ss02" horiz-adv-x="1284" 
d="M622 1128q-161 0 -251 92t-95 228h197q4 -47 41 -81t107 -34q71 0 107 34t40 81h199q-4 -136 -94 -228t-251 -92zM844 121v10q-35 -74 -108 -117t-167 -43q-223 0 -364 153t-141 386t136 386q138 153 359 153q121 -1 191 -49t92 -99v117h301v-836q0 -92 8 -182h-299
q-8 45 -8 121zM377 513q1 -126 67 -200q66 -73 165 -73t166 72t67 199q0 126 -66 197q-66 70 -168 70t-167 -69q-64 -70 -64 -196z" />
    <glyph glyph-name="aogonek.ss02" horiz-adv-x="1284" 
d="M377 513q1 -126 67 -200q66 -73 165 -73t166 72t67 199q0 126 -66 197q-66 70 -168 70t-167 -69q-64 -70 -64 -196zM1042 -463q-114 -1 -186 61t-72 162q0 156 146 240h-78q-8 45 -8 121v10q-35 -74 -108 -117t-167 -43q-223 0 -364 153t-141 386t136 386
q138 153 359 153q121 -1 191 -49t92 -99v117h301v-836q0 -100 8 -182q-63 -31 -109 -82t-47 -100q0 -49 27 -73t64 -24t65 5v-172q-43 -17 -109 -17z" />
    <glyph glyph-name="aringacute.ss02" horiz-adv-x="1284" 
d="M844 121v10q-35 -74 -108 -117t-167 -43q-223 0 -364 153t-141 386t136 386q138 153 359 153q121 -1 191 -49t92 -99v117h301v-836q0 -92 8 -182h-299q-8 45 -8 121zM377 513q1 -126 67 -200q66 -73 165 -73t166 72t67 199q0 126 -66 197q-66 70 -168 70t-167 -69
q-64 -70 -64 -196zM690 1333q0 35 -21 57q-22 22 -55 22q-32 0 -54 -22t-22 -57t22 -57t54 -21q32 -1 54 21t22 57zM852 1334q0 -99 -70 -164q-70 -64 -168 -64t-168 64t-70 164q0 99 70 165t168 66t168 -66t70 -165zM1024 1933l-289 -309h-248l189 309h348z" />
    <glyph glyph-name="r.ss03" horiz-adv-x="882" 
d="M652 1036q86 0 144 -58t58 -143t-58 -143t-144 -59q-86 1 -143 59q-58 58 -58 143t58 143t143 58zM449 1018v-1018h-312v1018h312z" />
    <glyph glyph-name="racute.ss03" horiz-adv-x="882" 
d="M652 1036q86 0 144 -58t58 -143t-58 -143t-144 -59q-86 1 -143 59q-58 58 -58 143t58 143t143 58zM449 1018v-1018h-312v1018h312zM766 1448l-289 -309h-248l189 309h348z" />
    <glyph glyph-name="rcommaaccent.ss03" horiz-adv-x="882" 
d="M652 1036q86 0 144 -58t58 -143t-58 -143t-144 -59q-86 1 -143 59q-58 58 -58 143t58 143t143 58zM449 1018v-1018h-312v1018h312zM125 -223q0 59 45 100t121 41t128 -55t52 -133q0 -213 -195 -266q-46 -13 -78 -13t-44 2v107q170 0 180 94q-30 -14 -82 -14t-90 39
t-37 98z" />
    <glyph glyph-name="rcaron.ss03" horiz-adv-x="882" 
d="M652 1036q86 0 144 -58t58 -143t-58 -143t-144 -59q-86 1 -143 59q-58 58 -58 143t58 143t143 58zM449 1018v-1018h-312v1018h312zM100 1448h238l145 -148l144 148h231l-229 -309h-297z" />
    <glyph glyph-name="ampersand.ss04" horiz-adv-x="1478" 
d="M784 467v260h609v-260h-136q-9 -213 -163 -355t-417 -142t-417 125q-154 126 -154 321q0 141 90 242t205 130q-95 29 -159 116t-64 190q0 168 132 278t356 111q224 0 344 -116q121 -116 131 -288l-310 -32q-2 80 -47 130q-44 50 -120 50t-125 -40t-49 -113q0 -72 54 -112
q56 -40 118 -40h22v-260h-8q-96 0 -170 -54t-74 -152q0 -96 65 -157t181 -61t184 59q66 59 72 170h-150z" />
    <glyph glyph-name="one.ss05" horiz-adv-x="1019" 
d="M74 268h301v596h-299v215q143 2 234 73t110 177h276v-1061h295v-268h-917v268z" />
    <glyph glyph-name="registered.ss06" horiz-adv-x="878" 
d="M408 1110h28q51 0 51 39t-51 39h-28v-78zM408 1016v-133h-119v401h176q59 0 100 -39t41 -105t-69 -104l73 -153h-127l-53 133h-22zM158 1077q0 -121 81 -203t199 -82t200 82q81 82 81 203t-81 203t-200 82q-120 0 -200 -82t-80 -203zM45 1077q0 164 115 279
q114 114 278 114t280 -116t116 -277t-116 -277t-280 -116t-278 114t-115 279z" />
    <glyph glyph-name="caron.alt" horiz-adv-x="444" 
d="M401 1452l-153 -424h-203l59 424h297z" />
    <glyph glyph-name="commaaccent" horiz-adv-x="436" 
d="M190 1290q-70 0 -108 40t-37 99q0 60 45 102t122 42t128 -55q51 -54 51 -136q0 -218 -203 -265q-47 -11 -98 -11h-16v106q170 0 180 92q0 -5 -22 -10q-22 -4 -42 -4z" />
    <glyph glyph-name="commaturn" horiz-adv-x="395" 
d="M371 1257q0 -59 -45 -100t-121 -41t-128 54t-52 135q0 139 95 207t206 67h16v-104q-80 0 -127 -28t-53 -65q29 14 81 14t90 -40t38 -99z" />
    <glyph glyph-name="dieresis.narrow" horiz-adv-x="720" 
d="M696 1295q0 -65 -44 -109t-108 -43q-64 -1 -108 43t-43 108q0 64 43 110q42 44 106 44t109 -44t45 -109zM23 1294q0 64 44 110q44 44 108 44q65 0 109 -44t44 -109t-44 -109t-109 -43q-65 -1 -109 43t-43 108z" />
    <glyph glyph-name="dieresis.uc.narrow" horiz-adv-x="768" 
d="M430 1689q0 67 45 113t112 45q67 0 111 -46q44 -47 45 -113q0 -66 -45 -110q-46 -44 -112 -44t-111 44t-45 111zM179 1534q-67 0 -111 44t-43 111q0 67 44 113q45 46 111 45q66 0 111 -46q45 -47 45 -113t-45 -110t-112 -44z" />
    <glyph glyph-name="grave.uc" horiz-adv-x="616" 
d="M317 1554l-307 271h371l213 -271h-277z" />
    <glyph glyph-name="dieresis.uc" horiz-adv-x="948" 
d="M592 1689q0 69 45 115t114 47q69 0 115 -47q46 -48 47 -116q0 -68 -47 -113q-48 -45 -116 -45t-113 45t-45 114zM33 1689q0 69 46 115t115 47q70 0 116 -47q46 -48 46 -116t-47 -113t-115 -45t-115 45q-46 45 -46 114z" />
    <glyph glyph-name="macron.uc" horiz-adv-x="684" 
d="M662 1579h-637v223h637v-223z" />
    <glyph glyph-name="acute.uc" horiz-adv-x="616" 
d="M606 1825l-307 -271h-276l213 271h370z" />
    <glyph glyph-name="circumflex.uc" horiz-adv-x="851" 
d="M307 1554h-276l250 271h297l253 -271h-288l-119 134z" />
    <glyph glyph-name="caron.uc" horiz-adv-x="851" 
d="M31 1825h286l119 -133l119 133h276l-251 -271h-297z" />
    <glyph glyph-name="breve.uc" horiz-adv-x="751" 
d="M376 1542q-161 0 -250 84t-93 199h231q2 -45 31 -74t81 -29t81 29t30 74h230q-4 -115 -92 -199t-249 -84z" />
    <glyph glyph-name="dotaccent.uc" horiz-adv-x="411" 
d="M25 1722q0 76 52 127t129 51t130 -50q53 -52 53 -128t-53 -127t-130 -51t-129 51t-52 127z" />
    <glyph glyph-name="ring.uc" horiz-adv-x="624" 
d="M410 1802q0 45 -28 72t-70 27t-70 -27t-29 -72q0 -44 29 -70q28 -26 70 -26t70 26t28 70zM600 1803q0 -119 -86 -199t-203 -80t-201 80t-85 200q0 120 85 199q84 80 202 80t203 -80t85 -200z" />
    <glyph glyph-name="tilde.uc" horiz-adv-x="759" 
d="M737 1833v-70q0 -105 -61 -165t-145 -60t-165 49q-82 49 -108 49q-56 0 -55 -59v-27h-178v68q0 106 61 164q60 58 144 57q84 0 166 -47t108 -47q55 0 55 59v29h178z" />
    <glyph glyph-name="hungarumlaut.uc" horiz-adv-x="800" 
d="M778 1825l-225 -271h-197l133 271h289zM408 1825l-191 -271h-192l98 271h285z" />
    <glyph glyph-name="caron.alt.uc" horiz-adv-x="444" 
d="M420 1452l-162 -444h-213l64 444h311z" />
    <glyph glyph-name="undercommaaccent" horiz-adv-x="395" 
d="M25 -223q0 59 45 100q44 41 120 41t128 -55t52 -133t-27 -136q-28 -58 -74 -87q-86 -56 -191 -56q-12 0 -25 2v107q170 0 180 94q-29 -14 -81 -14t-90 38q-37 40 -37 99z" />
    </font>
</defs>
</svg>
