ply
format ascii 1.0
element vertex 21
property float x
property float y
property float z
element face 33
property list uchar int vertex_indices
end_header
461 -160 5
428 7 20
576 259 0
357 116 140
-301 193 84
-542 129 0
-256 404 0
-506 -126 0
-354 -7 7
-300 -115 32
-247 -222 55
258 314 20
-55 132 166
38 204 50
114 68 50
-93.3894 -47.986 54
140 -430 0
5 -192 0
224 -282 70
-59 -289 5
111 417 0
3 0 1 2
3 1 3 2
3 4 5 6
3 7 5 8
3 8 5 4
3 7 9 10
3 7 8 9
3 3 11 2
3 12 13 14
3 15 4 12
3 15 12 14
3 8 4 15
3 9 8 15
3 16 17 18
3 10 9 15
3 17 15 14
3 19 10 17
3 4 6 12
3 10 15 17
3 12 6 13
3 13 6 20
3 11 20 2
3 17 14 18
3 19 17 16
3 18 14 1
3 7 10 16
3 10 19 16
3 14 3 1
3 14 11 3
3 13 20 11
3 14 13 11
3 18 1 0
3 16 18 0
